<?xml version="1.0" encoding="utf-8" ?>
<svg xmlns="http://www.w3.org/2000/svg" xmlns:cc="http://creativecommons.org/ns#" xmlns:dc="http://purl.org/dc/elements/1.1/" xmlns:ev="http://www.w3.org/2001/xml-events" xmlns:inkscape="http://www.inkscape.org/namespaces/inkscape" xmlns:rdf="http://www.w3.org/1999/02/22-rdf-syntax-ns#" xmlns:sodipodi="http://sodipodi.sourceforge.net/DTD/sodipodi-0.dtd" xmlns:xlink="http://www.w3.org/1999/xlink" baseProfile="tiny" height="21.59cm" version="1.2" viewBox="0 0 1056.0 816.0000000000001" width="27.94cm">
  <metadata>
    <rdf:RDF>
      <cc:Work>
        <dc:format>image/svg+xml</dc:format>
        <dc:source>vpype read art.svg scaleto 3in 3in layout --landscape letter write art-scaled.svg
</dc:source>
        <dc:date>2021-07-27T17:05:30.066464</dc:date>
      </cc:Work>
    </rdf:RDF>
  </metadata>
  <defs/>
  <g fill="none" id="layer1" inkscape:groupmode="layer" inkscape:label="1" stroke="#00f" style="display:inline">
    <polygon points="384.0,548.2839 672.0,548.2839 672.0,267.7161 384.0,267.7161"/>
    <polyline points="672.0,391.9351 643.1063,387.847 665.9919,367.1298 672.0,368.0526"/>
    <polygon points="617.7057,454.0085 600.9265,449.1997 618.8343,436.8255"/>
    <polygon points="591.3346,296.1214 624.0995,274.0514 635.2131,302.4685 626.2142,313.8303 589.8369,301.3817"/>
    <polyline points="672.0,410.3315 670.8552,412.5111 672.0,412.6152"/>
    <polygon points="605.3616,424.2871 575.1652,413.939 571.9732,425.5276 583.3313,445.2199"/>
    <line x1="655.0487" x2="672.0" y1="303.5309" y2="296.865"/>
    <polyline points="658.1014,267.7161 650.122,300.7808 655.0487,303.5309"/>
    <polyline points="650.122,300.7808 635.2131,302.4685 624.0995,274.0514 626.1295,267.7161"/>
    <line x1="658.1014" x2="650.122" y1="267.7161" y2="300.7808"/>
    <polyline points="672.0,296.865 655.0487,303.5309 665.0788,327.042 672.0,327.4985"/>
    <polygon points="623.4424,354.9879 624.7957,373.7382 599.5621,393.71 594.0754,392.4446 588.5675,378.0312 605.3114,348.0621 619.6546,348.9755"/>
    <polyline points="459.242,548.2839 457.2149,543.147 443.8991,539.4937 424.485,548.2839"/>
    <line x1="404.6293" x2="384.0" y1="548.2839" y2="537.1212"/>
    <polyline points="384.0,496.1227 384.9933,494.2248 384.0,493.7945"/>
    <polyline points="672.0,531.8909 668.9489,532.5904 665.1737,548.2839"/>
    <polyline points="582.6464,267.7161 591.3346,296.1214 624.0995,274.0514 626.1295,267.7161"/>
    <polygon points="617.2591,416.2446 640.8657,393.1518 665.5728,418.6918 664.6682,425.0705 623.2942,427.1517 617.414,419.6757"/>
    <polyline points="640.8657,393.1518 640.862,389.2081 643.1063,387.847 672.0,391.9351"/>
    <polyline points="672.0,410.3315 670.8552,412.5111 665.5728,418.6918 640.8657,393.1518"/>
    <polygon points="617.2591,416.2446 599.5621,393.71 624.7957,373.7382 640.862,389.2081 640.8657,393.1518"/>
    <polygon points="617.414,419.6757 605.3616,424.2871 583.3313,445.2199 583.6117,455.7596 600.9265,449.1997 618.8343,436.8255 623.2334,429.2179 623.2942,427.1517"/>
    <polygon points="617.2591,416.2446 599.5621,393.71 594.0754,392.4446 575.5642,404.3238 574.6543,406.0113 575.1652,413.939 605.3616,424.2871 617.414,419.6757"/>
    <polyline points="668.971,434.6793 664.6682,425.0705 665.5728,418.6918 670.8552,412.5111 672.0,412.6152"/>
    <line x1="672.0" x2="668.971" y1="433.9896" y2="434.6793"/>
    <polygon points="669.1964,442.4653 635.5446,449.4139 623.2334,429.2179 623.2942,427.1517 664.6682,425.0705 668.971,434.6793"/>
    <polygon points="650.6134,358.6389 653.3502,331.4628 661.5341,329.4046 661.355,362.8549"/>
    <polygon points="653.3502,331.4628 629.17,332.7001 626.2142,313.8303 635.2131,302.4685 650.122,300.7808 655.0487,303.5309 665.0788,327.042 661.5341,329.4046"/>
    <polyline points="661.355,362.8549 665.9919,367.1298 672.0,368.0526"/>
    <polyline points="672.0,327.4985 665.0788,327.042 661.5341,329.4046 661.355,362.8549"/>
    <polygon points="650.6134,358.6389 623.4424,354.9879 619.6546,348.9755 629.17,332.7001 653.3502,331.4628"/>
    <polygon points="650.6134,358.6389 623.4424,354.9879 624.7957,373.7382 640.862,389.2081 643.1063,387.847 665.9919,367.1298 661.355,362.8549"/>
    <polyline points="413.1602,427.1515 394.8838,406.2218 384.0,416.264"/>
    <polyline points="384.0,446.4598 388.581,449.9744 413.0217,434.3999 413.1602,427.1515"/>
    <polyline points="384.0,464.2677 389.7047,461.4685 388.581,449.9744 384.0,446.4598"/>
    <polygon points="413.1602,427.1515 425.3827,409.5628 437.304,412.887 449.0479,439.3926 436.8274,444.366 413.0217,434.3999"/>
    <polygon points="546.854,502.9105 564.0713,535.0429 586.8971,536.8597 587.3171,512.5658 554.8127,500.4544"/>
    <line x1="474.8968" x2="481.4205" y1="280.7089" y2="267.7161"/>
    <polyline points="495.4526,267.7161 502.4789,283.9459 477.0496,283.2804 474.8968,280.7089"/>
    <line x1="656.4428" x2="672.0" y1="487.6658" y2="485.8855"/>
    <polyline points="672.0,503.5386 650.4989,505.4098 656.4428,487.6658"/>
    <line x1="653.1985" x2="672.0" y1="469.9578" y2="455.7815"/>
    <polyline points="672.0,485.8855 656.4428,487.6658 653.1985,469.9578"/>
    <polyline points="630.4083,470.248 635.5446,449.4139 669.1964,442.4653 669.7269,444.0393 672.0,453.826"/>
    <polyline points="672.0,455.7815 653.1985,469.9578 630.4083,470.248"/>
    <polygon points="623.7448,474.1193 617.7057,454.0085 618.8343,436.8255 623.2334,429.2179 635.5446,449.4139 630.4083,470.248"/>
    <polyline points="546.1686,548.2839 564.0713,535.0429 586.8971,536.8597 587.6002,538.3646 586.8616,548.2839"/>
    <polyline points="586.8616,548.2839 587.6002,538.3646 628.6808,535.8004 630.9574,536.3018 632.5215,548.2839"/>
    <polyline points="665.1737,548.2839 668.9489,532.5904 642.8328,519.3801 630.9574,536.3018 632.5215,548.2839"/>
    <polygon points="562.3663,385.6261 575.5642,404.3238 594.0754,392.4446 588.5675,378.0312 577.9617,372.7978"/>
    <polygon points="573.0959,315.9467 589.8369,301.3817 626.2142,313.8303 629.17,332.7001 619.6546,348.9755 605.3114,348.0621 587.5229,338.3543"/>
    <polyline points="572.3683,315.8993 570.7249,315.4006 560.3936,281.5225 570.3747,267.7161"/>
    <polyline points="582.6464,267.7161 591.3346,296.1214 589.8369,301.3817 573.0959,315.9467 572.3683,315.8993"/>
    <polyline points="528.5452,274.6455 505.9517,286.8202 502.4789,283.9459 495.4526,267.7161"/>
    <line x1="526.8942" x2="528.5452" y1="267.7161" y2="274.6455"/>
    <polyline points="672.0,433.9896 668.971,434.6793 669.1964,442.4653 669.7269,444.0393 672.0,443.8097"/>
    <polyline points="672.0,453.826 669.7269,444.0393 672.0,443.8097"/>
    <line x1="402.6391" x2="384.0" y1="391.8621" y2="390.7848"/>
    <polyline points="384.0,399.8788 395.0088,403.7698 402.6391,391.8621"/>
    <polyline points="395.0088,403.7698 394.8838,406.2218 384.0,416.264"/>
    <line x1="384.0" x2="395.0088" y1="399.8788" y2="403.7698"/>
    <polygon points="399.4254,369.5593 397.7414,375.6258 404.4324,389.4119 421.982,392.7735 437.0998,381.889 430.1168,366.5416 400.9178,367.5645"/>
    <line x1="397.7414" x2="384.0" y1="375.6258" y2="377.3351"/>
    <polyline points="384.0,390.7848 402.6391,391.8621 404.4324,389.4119 397.7414,375.6258"/>
    <polygon points="421.982,392.7735 425.3827,409.5628 413.1602,427.1515 394.8838,406.2218 395.0088,403.7698 402.6391,391.8621 404.4324,389.4119"/>
    <line x1="399.4254" x2="384.0" y1="369.5593" y2="359.0871"/>
    <polyline points="384.0,377.3351 397.7414,375.6258 399.4254,369.5593"/>
    <polygon points="437.0998,381.889 473.6475,387.5948 469.2525,367.3903 459.5413,349.9928 432.314,349.2175 430.1168,366.5416"/>
    <polygon points="400.9178,367.5645 406.7289,335.5553 409.2579,334.1545 429.0048,345.2426 432.314,349.2175 430.1168,366.5416"/>
    <line x1="399.4254" x2="384.0" y1="369.5593" y2="359.0871"/>
    <polyline points="384.0,334.5263 406.7289,335.5553 400.9178,367.5645 399.4254,369.5593"/>
    <polygon points="417.4627,317.6152 434.4762,314.8765 441.6986,330.8062 429.0048,345.2426 409.2579,334.1545 412.0067,325.0758"/>
    <polyline points="397.6161,311.0436 391.0807,305.345 384.0,309.6175"/>
    <polyline points="384.0,334.5263 406.7289,335.5553 409.2579,334.1545 412.0067,325.0758 397.6161,311.0436"/>
    <polyline points="402.0849,267.7161 417.8235,282.8496 415.2221,288.201 408.7524,290.6751 392.4986,296.3869 384.0,290.3927"/>
    <polygon points="408.7524,290.6751 397.6161,311.0436 391.0807,305.345 392.4986,296.3869"/>
    <polyline points="384.0,309.6175 391.0807,305.345 392.4986,296.3869 384.0,290.3927"/>
    <polygon points="415.2221,288.201 417.4627,317.6152 412.0067,325.0758 397.6161,311.0436 408.7524,290.6751"/>
    <polyline points="417.8235,282.8496 433.6857,278.9468 431.3032,267.7161"/>
    <line x1="402.0849" x2="417.8235" y1="267.7161" y2="282.8496"/>
    <line x1="487.8782" x2="486.2215" y1="544.4964" y2="548.2839"/>
    <polyline points="459.242,548.2839 457.2149,543.147 465.0547,531.7396 469.1735,529.4791 487.8782,544.4964"/>
    <polyline points="501.9185,548.2839 502.5582,538.929 526.2126,546.8703 525.3119,548.2839"/>
    <polyline points="486.2215,548.2839 487.8782,544.4964 498.6314,535.0996 502.5582,538.929 501.9185,548.2839"/>
    <polyline points="543.0887,548.2839 534.3347,542.5434 526.2126,546.8703 525.3119,548.2839"/>
    <polygon points="417.7665,518.3393 432.5177,503.2846 433.3488,482.1739 429.7005,479.2292 400.7407,478.9262 400.686,479.0519 408.2749,511.6394 415.7712,519.1081"/>
    <polygon points="417.7665,518.3393 439.8586,528.3021 445.3102,513.6432 432.5177,503.2846"/>
    <line x1="415.7712" x2="404.6809" y1="519.1081" y2="548.2839"/>
    <line x1="404.6293" x2="384.0" y1="548.2839" y2="537.1212"/>
    <polyline points="384.0,514.6947 408.2749,511.6394 415.7712,519.1081"/>
    <polyline points="400.686,479.0519 384.9933,494.2248 384.0,496.1227"/>
    <polyline points="384.0,514.6947 408.2749,511.6394 400.686,479.0519"/>
    <polygon points="429.7005,479.2292 436.8274,444.366 449.0479,439.3926 454.7612,439.1191 459.2238,442.6833 460.8854,479.6615 451.8325,482.9517 433.3488,482.1739"/>
    <polygon points="400.7407,478.9262 389.7047,461.4685 388.581,449.9744 413.0217,434.3999 436.8274,444.366 429.7005,479.2292"/>
    <polyline points="400.7407,478.9262 389.7047,461.4685 384.0,464.2677"/>
    <polyline points="384.0,493.7945 384.9933,494.2248 400.686,479.0519 400.7407,478.9262"/>
    <polyline points="417.7665,518.3393 439.8586,528.3021 443.8991,539.4937 424.485,548.2839"/>
    <polyline points="404.6809,548.2839 415.7712,519.1081 417.7665,518.3393"/>
    <polygon points="443.5854,290.257 459.925,291.884 470.6174,279.8029 466.4493,276.82 449.3477,270.192 436.6069,279.3858"/>
    <line x1="449.3477" x2="450.3526" y1="270.192" y2="267.7161"/>
    <polyline points="469.8405,267.7161 466.4493,276.82 449.3477,270.192"/>
    <polyline points="470.6174,279.8029 474.8968,280.7089 481.4205,267.7161"/>
    <polyline points="469.8405,267.7161 466.4493,276.82 470.6174,279.8029"/>
    <polyline points="436.6069,279.3858 433.6857,278.9468 431.3032,267.7161"/>
    <polyline points="450.3526,267.7161 449.3477,270.192 436.6069,279.3858"/>
    <polygon points="443.5854,290.257 445.8476,308.641 434.4762,314.8765 417.4627,317.6152 415.2221,288.201 417.8235,282.8496 433.6857,278.9468 436.6069,279.3858"/>
    <polyline points="643.1751,510.7188 650.4989,505.4098 672.0,503.5386"/>
    <polyline points="672.0,531.8909 668.9489,532.5904 642.8328,519.3801 642.7734,512.7946 643.1751,510.7188"/>
    <polygon points="571.8546,359.8842 556.6602,352.6158 549.3576,374.345 571.6075,363.7794"/>
    <polygon points="571.6075,363.7794 577.9617,372.7978 562.3663,385.6261 545.1122,378.1852 549.3576,374.345"/>
    <polygon points="571.8546,359.8842 587.5229,338.3543 573.0959,315.9467 572.3683,315.8993 555.2573,350.3951 556.6602,352.6158"/>
    <polygon points="571.8546,359.8842 587.5229,338.3543 605.3114,348.0621 588.5675,378.0312 577.9617,372.7978 571.6075,363.7794"/>
    <polygon points="487.9933,306.2592 503.4773,326.8456 490.0466,334.3979 484.6804,331.6559"/>
    <polygon points="464.9308,330.302 459.5413,349.9928 469.2525,367.3903 491.2162,340.3814 490.0466,334.3979 484.6804,331.6559"/>
    <polygon points="463.2997,327.4412 441.6986,330.8062 429.0048,345.2426 432.314,349.2175 459.5413,349.9928 464.9308,330.302"/>
    <polygon points="461.4129,317.4634 445.8476,308.641 434.4762,314.8765 441.6986,330.8062 463.2997,327.4412"/>
    <polygon points="487.9933,306.2592 503.4773,326.8456 517.2561,324.0459 503.2414,296.8779 487.8554,305.5416"/>
    <polygon points="474.3394,388.2815 473.6475,387.5948 469.2525,367.3903 491.2162,340.3814 498.5637,348.2822"/>
    <polygon points="504.5082,350.2979 527.1258,349.449 527.1318,349.4349 528.1749,328.3965 517.2561,324.0459 503.4773,326.8456 490.0466,334.3979 491.2162,340.3814 498.5637,348.2822"/>
    <polygon points="474.6661,388.7034 437.304,412.887 449.0479,439.3926 454.7612,439.1191 477.9486,391.4477"/>
    <polygon points="474.3394,388.2815 473.6475,387.5948 437.0998,381.889 421.982,392.7735 425.3827,409.5628 437.304,412.887 474.6661,388.7034"/>
    <polygon points="534.1257,413.4954 540.892,405.6633 543.5413,378.4713 528.1735,368.9155 492.7908,391.6832 489.826,394.0915 532.6613,413.899"/>
    <polygon points="528.1735,368.9155 527.1258,349.449 527.1318,349.4349 555.2573,350.3951 556.6602,352.6158 549.3576,374.345 545.1122,378.1852 543.5413,378.4713"/>
    <polygon points="540.892,405.6633 574.6543,406.0113 575.5642,404.3238 562.3663,385.6261 545.1122,378.1852 543.5413,378.4713"/>
    <polygon points="492.7908,391.6832 504.5082,350.2979 527.1258,349.449 528.1735,368.9155"/>
    <polygon points="534.1257,413.4954 552.9086,429.892 571.9732,425.5276 575.1652,413.939 574.6543,406.0113 540.892,405.6633"/>
    <polygon points="492.7908,391.6832 504.5082,350.2979 498.5637,348.2822 474.3394,388.2815 474.6661,388.7034 477.9486,391.4477 488.5783,394.3468 489.826,394.0915"/>
    <polygon points="560.4807,314.9221 539.1387,275.8325 538.765,275.545 528.6254,274.6849 534.8602,306.8761 541.2747,318.479"/>
    <polygon points="560.4807,314.9221 570.7249,315.4006 560.3936,281.5225 539.1387,275.8325"/>
    <polygon points="534.8602,306.8761 505.3774,291.3623 505.9517,286.8202 528.5452,274.6455 528.6254,274.6849"/>
    <polygon points="541.2747,318.479 528.1749,328.3965 517.2561,324.0459 503.2414,296.8779 505.3774,291.3623 534.8602,306.8761"/>
    <polygon points="560.4807,314.9221 570.7249,315.4006 572.3683,315.8993 555.2573,350.3951 527.1318,349.4349 528.1749,328.3965 541.2747,318.479"/>
    <polygon points="472.8965,481.5987 460.8854,479.6615 459.2238,442.6833 486.8117,448.7399 481.0217,476.8804"/>
    <polygon points="453.2003,514.8315 462.777,507.3073 454.9301,496.271 447.3739,513.4546"/>
    <polygon points="462.777,507.3073 479.7465,508.4085 472.8965,481.5987 460.8854,479.6615 451.8325,482.9517 454.9301,496.271"/>
    <polygon points="447.3739,513.4546 445.3102,513.6432 432.5177,503.2846 433.3488,482.1739 451.8325,482.9517 454.9301,496.271"/>
    <polygon points="453.2003,514.8315 465.0547,531.7396 469.1735,529.4791 484.9188,514.2833 479.7465,508.4085 462.777,507.3073"/>
    <polygon points="453.2003,514.8315 465.0547,531.7396 457.2149,543.147 443.8991,539.4937 439.8586,528.3021 445.3102,513.6432 447.3739,513.4546"/>
    <polygon points="549.7854,454.6335 574.9255,463.7201 581.8972,461.2543 583.6117,455.7596 583.3313,445.2199 571.9732,425.5276 552.9086,429.892 547.7107,450.6074"/>
    <polygon points="606.2041,510.9103 627.9156,491.5417 620.8015,477.3663 602.8688,477.9618 590.3327,510.4573 601.5581,512.2195"/>
    <polygon points="627.9156,491.5417 643.1751,510.7188 650.4989,505.4098 656.4428,487.6658 653.1985,469.9578 630.4083,470.248 623.7448,474.1193 620.8015,477.3663"/>
    <polygon points="602.8688,477.9618 581.8972,461.2543 583.6117,455.7596 600.9265,449.1997 617.7057,454.0085 623.7448,474.1193 620.8015,477.3663"/>
    <polygon points="606.2041,510.9103 642.7734,512.7946 643.1751,510.7188 627.9156,491.5417"/>
    <polygon points="590.3327,510.4573 587.3171,512.5658 554.8127,500.4544 574.9255,463.7201 581.8972,461.2543 602.8688,477.9618"/>
    <polygon points="601.5581,512.2195 628.6808,535.8004 587.6002,538.3646 586.8971,536.8597 587.3171,512.5658 590.3327,510.4573"/>
    <polygon points="606.2041,510.9103 642.7734,512.7946 642.8328,519.3801 630.9574,536.3018 628.6808,535.8004 601.5581,512.2195"/>
    <polygon points="487.6522,305.5017 466.6086,311.6773 466.7387,298.3614 476.616,290.3789"/>
    <polygon points="476.616,290.3789 477.0496,283.2804 474.8968,280.7089 470.6174,279.8029 459.925,291.884 466.7387,298.3614"/>
    <polygon points="466.6086,311.6773 461.4129,317.4634 445.8476,308.641 443.5854,290.257 459.925,291.884 466.7387,298.3614"/>
    <polygon points="487.6522,305.5017 487.8554,305.5416 487.9933,306.2592 484.6804,331.6559 464.9308,330.302 463.2997,327.4412 461.4129,317.4634 466.6086,311.6773"/>
    <polygon points="487.6522,305.5017 487.8554,305.5416 503.2414,296.8779 505.3774,291.3623 505.9517,286.8202 502.4789,283.9459 477.0496,283.2804 476.616,290.3789"/>
    <polyline points="548.1539,267.7161 538.765,275.545 528.6254,274.6849 528.5452,274.6455 526.8942,267.7161"/>
    <polyline points="548.1539,267.7161 538.765,275.545 539.1387,275.8325 560.3936,281.5225 570.3747,267.7161"/>
    <polygon points="541.8546,503.3017 530.8622,488.5491 505.3265,483.8515 492.4413,515.2452 496.9072,518.5253 533.417,515.0178"/>
    <polygon points="492.4413,515.2452 484.9188,514.2833 469.1735,529.4791 487.8782,544.4964 498.6314,535.0996 496.9072,518.5253"/>
    <polygon points="533.417,515.0178 534.3347,542.5434 526.2126,546.8703 502.5582,538.929 498.6314,535.0996 496.9072,518.5253"/>
    <polygon points="505.3265,483.8515 504.8995,483.3902 481.0217,476.8804 472.8965,481.5987 479.7465,508.4085 484.9188,514.2833 492.4413,515.2452"/>
    <polygon points="541.8546,503.3017 546.854,502.9105 554.8127,500.4544 574.9255,463.7201 549.7854,454.6335 533.0188,472.0201 530.8622,488.5491"/>
    <polyline points="541.8546,503.3017 546.854,502.9105 564.0713,535.0429 546.1686,548.2839"/>
    <polyline points="543.0887,548.2839 534.3347,542.5434 533.417,515.0178 541.8546,503.3017"/>
    <polygon points="522.8488,440.3639 521.8454,460.9756 507.194,463.6863 493.4929,445.4879 497.5843,439.9471 521.6147,438.8621"/>
    <polygon points="521.8454,460.9756 533.0188,472.0201 530.8622,488.5491 505.3265,483.8515 504.8995,483.3902 507.194,463.6863"/>
    <polygon points="493.4929,445.4879 486.8117,448.7399 481.0217,476.8804 504.8995,483.3902 507.194,463.6863"/>
    <polygon points="522.8488,440.3639 547.7107,450.6074 549.7854,454.6335 533.0188,472.0201 521.8454,460.9756"/>
    <polygon points="493.4929,445.4879 486.8117,448.7399 459.2238,442.6833 454.7612,439.1191 477.9486,391.4477 488.5783,394.3468 497.5843,439.9471"/>
    <polygon points="521.6147,438.8621 532.6613,413.899 489.826,394.0915 488.5783,394.3468 497.5843,439.9471"/>
    <polygon points="522.8488,440.3639 547.7107,450.6074 552.9086,429.892 534.1257,413.4954 532.6613,413.899 521.6147,438.8621"/>
    <polyline points="512.3003,267.7161 507.3714,270.3721 506.399,269.5673 505.5976,267.7161"/>
    <polyline points="517.4095,268.8838 507.0165,274.4841 505.419,273.1619 503.0613,267.7161"/>
    <line x1="517.1313" x2="517.4095" y1="267.7161" y2="268.8838"/>
    <polyline points="521.1214,270.8043 506.6615,278.5962 504.439,276.7566 500.5251,267.7161"/>
    <line x1="520.3856" x2="521.1214" y1="267.7161" y2="270.8043"/>
    <polyline points="524.8333,272.7249 506.3066,282.7082 503.459,280.3512 497.9888,267.7161"/>
    <line x1="523.6399" x2="524.8333" y1="267.7161" y2="272.7249"/>
    <polygon points="488.6803,383.0501 489.852,378.9115 489.2576,378.71 486.8351,382.7099 486.8678,382.7521 487.1961,383.0265 488.259,383.3164 488.3838,383.2909"/>
    <polygon points="489.5024,384.7767 492.7833,373.1888 491.1188,372.6244 484.336,383.8242 484.4275,383.9424 485.3466,384.7108 488.3229,385.5225 488.6722,385.451"/>
    <polygon points="490.3245,386.5033 495.7145,367.4661 492.98,366.5389 481.8368,384.9385 481.9871,385.1326 483.4971,386.395 488.3868,387.7286 488.9607,387.6112"/>
    <polygon points="491.1466,388.23 498.6457,361.7433 494.8413,360.4533 479.3377,386.0528 479.5468,386.3229 481.6476,388.0793 488.4506,389.9346 489.2491,389.7713"/>
    <polygon points="491.9687,389.9566 501.577,356.0206 496.7025,354.3678 476.8385,387.1671 477.1065,387.5131 479.7981,389.7635 488.5145,392.1407 489.5375,391.9314"/>
    <polyline points="387.1426,382.4219 384.01,382.8116 384.0,382.824"/>
    <polyline points="384.0,383.3146 384.0745,383.8399 387.6324,384.0455 387.8117,383.8005 387.1426,382.4219"/>
    <line x1="389.2623" x2="384.0" y1="381.0627" y2="381.7173"/>
    <polyline points="384.0,385.2254 390.6337,385.6088 391.1358,384.9228 389.2623,381.0627"/>
    <line x1="391.3821" x2="384.0" y1="379.7035" y2="380.6217"/>
    <polyline points="384.0,386.6153 393.635,387.1721 394.46,386.0451 391.3821,379.7035"/>
    <line x1="393.5018" x2="384.0" y1="378.3443" y2="379.5262"/>
    <polyline points="384.0,388.0051 396.6364,388.7354 397.7841,387.1674 393.5018,378.3443"/>
    <line x1="395.6216" x2="384.0" y1="376.9851" y2="378.4306"/>
    <polyline points="384.0,389.395 399.6377,390.2988 401.1083,388.2897 395.6216,376.9851"/>
    <polygon points="411.4645,301.9418 411.6886,304.8833 411.143,305.6293 409.7039,304.2261 410.8176,302.1893"/>
    <polygon points="412.216,299.1937 412.8434,307.4296 411.3157,309.5186 407.2864,305.5896 410.4045,299.8864"/>
    <polygon points="412.9676,296.4455 413.9982,309.976 411.4885,313.4079 404.8688,306.9531 409.9915,297.5836"/>
    <polygon points="413.7191,293.6973 415.153,312.5224 411.6612,317.2972 402.4513,308.3166 409.5785,295.2808"/>
    <polygon points="414.4706,290.9491 416.3079,315.0688 411.834,321.1865 400.0337,309.6801 409.1655,292.978"/>
    <polygon points="660.0359,513.9396 660.7682,513.4087 663.6659,513.1565 668.1578,514.8556 662.6132,516.1268 660.0016,514.8057 659.9957,514.1472"/>
    <polyline points="656.6637,513.2954 658.7144,511.8089 666.8278,511.1028 672.0,513.0592"/>
    <polyline points="672.0,517.558 663.8804,519.4195 656.5679,515.7206 656.5512,513.8767 656.6637,513.2954"/>
    <polyline points="653.2915,512.6513 656.6605,510.2091 669.9896,509.0491 672.0,509.8095"/>
    <polyline points="672.0,521.1412 665.1475,522.7122 653.1341,516.6355 653.1068,513.6062 653.2915,512.6513"/>
    <polyline points="649.9194,512.0071 654.6066,508.6094 672.0,507.0956"/>
    <polyline points="672.0,524.7245 666.4147,526.0049 649.7004,517.5503 649.6623,513.3357 649.9194,512.0071"/>
    <polyline points="646.5472,511.363 652.5527,507.0096 672.0,505.3171"/>
    <polyline points="672.0,528.3077 667.6818,529.2977 646.2666,518.4652 646.2179,513.0651 646.5472,511.363"/>
    <polygon points="667.3029,287.7384 670.2678,286.5725 671.1894,284.6387 670.0688,283.9969 667.7094,283.7376 666.8103,287.4634"/>
    <line x1="664.8521" x2="672.0" y1="290.8969" y2="288.0861"/>
    <polyline points="672.0,280.355 665.9902,279.6946 663.4726,290.1269 664.8521,290.8969"/>
    <line x1="662.4013" x2="672.0" y1="294.0554" y2="290.2808"/>
    <polyline points="672.0,276.5009 664.271,275.6515 660.1349,292.7904 662.4013,294.0554"/>
    <line x1="659.9504" x2="672.0" y1="297.2139" y2="292.4755"/>
    <polyline points="672.0,272.6468 662.5518,271.6085 656.7973,295.4539 659.9504,297.2139"/>
    <line x1="657.4996" x2="672.0" y1="300.3724" y2="294.6703"/>
    <line x1="672.0" x2="662.2032" y1="268.7928" y2="267.7161"/>
    <polyline points="660.7962,267.7161 653.4596,298.1173 657.4996,300.3724"/>
    <polygon points="425.4751,427.7752 426.6974,426.0163 427.8895,426.3487 429.0639,428.9993 427.8418,429.4966 425.4613,428.5"/>
    <polygon points="423.0122,427.6504 426.4344,422.7256 429.7724,423.6564 433.0607,431.0779 429.639,432.4705 422.9734,429.68"/>
    <polygon points="420.5492,427.5257 426.1715,419.4349 431.6553,420.964 437.0575,433.1566 431.4361,435.4444 420.4854,430.86"/>
    <polygon points="418.0862,427.401 425.9086,416.1442 433.5382,418.2717 441.0543,435.2352 433.2332,438.4182 417.9975,432.0399"/>
    <polygon points="415.6232,427.2762 425.6456,412.8535 435.4211,415.5793 445.0511,437.3139 435.0303,441.3921 415.5096,433.2199"/>
    <polygon points="645.6491,368.0813 642.932,367.7162 643.0673,369.5912 644.674,371.1382 644.8984,371.0021 647.187,368.9304 646.7233,368.5029"/>
    <polygon points="646.642,366.1928 639.0341,365.1706 639.413,370.4206 643.9116,374.7522 644.54,374.3711 650.9479,368.5703 649.6496,367.3733"/>
    <polygon points="647.6348,364.3043 635.1362,362.6249 635.7587,371.25 643.1492,378.3662 644.1816,377.7401 654.7089,368.2101 652.576,366.2437"/>
    <polygon points="648.6277,362.4158 631.2383,360.0793 632.1044,372.0794 642.3868,381.9802 643.8232,381.1091 658.4699,367.85 655.5023,365.1141"/>
    <polygon points="649.6205,360.5274 627.3403,357.5336 628.45,372.9088 641.6244,385.5942 643.4647,384.478 662.2309,367.4899 658.4287,363.9845"/>
    <polygon points="410.1959,375.91 410.0275,376.5167 410.6966,377.8953 412.4516,378.2314 413.9634,377.143 413.2651,375.6082 410.3452,375.7105"/>
    <polygon points="408.0418,374.6399 407.5703,376.3385 409.4438,380.1986 414.3577,381.1398 418.5906,378.0922 416.6354,373.7949 408.4597,374.0813"/>
    <polygon points="405.8877,373.3697 405.113,376.1603 408.1909,382.5019 416.2638,384.0483 423.2179,379.0414 420.0058,371.9816 406.5742,372.4521"/>
    <polygon points="403.7336,372.0996 402.6558,375.9822 406.9381,384.8053 418.1699,386.9567 427.8452,379.9906 423.3761,370.1683 404.6888,370.8229"/>
    <polygon points="401.5795,370.8294 400.1986,375.804 405.6852,387.1086 420.0759,389.8651 432.4725,380.9398 426.7465,368.355 402.8033,369.1937"/>
    <polygon points="558.4674,301.9602 559.4918,302.008 558.4587,298.6202 556.3332,298.0512"/>
    <polygon points="558.8701,304.5526 561.7384,304.6865 558.8457,295.2007 552.8943,293.6075"/>
    <polygon points="559.2727,307.1449 563.9851,307.365 559.2327,291.7811 549.4554,289.1637"/>
    <polygon points="559.6754,309.7373 566.2317,310.0435 559.6197,288.3616 546.0165,284.72"/>
    <polygon points="560.078,312.3297 568.4783,312.7221 560.0066,284.9421 542.5776,280.2762"/>
    <polygon points="450.8951,523.9205 452.0806,525.6113 451.2966,526.7521 449.965,526.3868 449.561,525.2676 450.1061,523.8017 450.3125,523.7828"/>
    <polygon points="451.3562,522.1027 454.6754,526.837 452.4803,530.0311 448.7518,529.0081 447.6205,525.8745 449.1469,521.77 449.7248,521.7172"/>
    <polygon points="451.8172,520.2849 457.2702,528.0627 453.6639,533.3101 447.5386,531.6295 445.68,526.4814 448.1877,519.7383 449.137,519.6516"/>
    <polygon points="452.2782,518.4671 459.8651,529.2883 454.8476,536.5891 446.3254,534.2509 443.7396,527.0883 447.2286,517.7066 448.5493,517.5859"/>
    <polygon points="452.7392,516.6493 462.4599,530.514 456.0313,539.868 445.1123,536.8723 441.7991,527.6952 446.2694,515.6749 447.9616,515.5203"/>
    <polygon points="614.1843,449.0603 612.5064,448.5794 614.2972,447.342"/>
    <polygon points="614.8886,450.0499 610.1904,448.7035 615.2046,445.2387"/>
    <polygon points="615.5929,451.0396 607.8745,448.8275 616.112,443.1354"/>
    <polygon points="616.2972,452.0292 605.5585,448.9516 617.0194,441.0321"/>
    <polygon points="617.0014,453.0188 603.2425,449.0756 617.9268,438.9288"/>
    <line x1="672.0" x2="669.5496" y1="538.0978" y2="548.2839"/>
    <polygon points="621.0904,518.8746 624.7473,519.0631 624.7532,519.7216 623.5657,521.4138 623.338,521.3637 620.6258,519.0056"/>
    <polygon points="618.1131,517.2818 628.3525,517.8094 628.3692,519.6533 625.044,524.3914 624.4066,524.251 616.8122,517.6484"/>
    <polygon points="615.1359,515.6889 631.9577,516.5557 631.9851,519.585 626.5224,527.369 625.4751,527.1384 612.9987,516.2912"/>
    <polygon points="612.1586,514.096 635.563,515.302 635.601,519.5167 628.0007,530.3466 626.5437,530.0257 609.1852,514.9339"/>
    <polygon points="609.1814,512.5031 639.1682,514.0483 639.2169,519.4484 629.479,533.3242 627.6122,532.9131 605.3716,513.5767"/>
    <polygon points="565.0257,361.88 563.5062,361.1531 562.776,363.326 565.001,362.2695"/>
    <polygon points="566.3915,361.4808 562.137,359.4457 560.0923,365.5298 566.3223,362.5715"/>
    <polygon points="567.7573,361.0817 560.7678,357.7382 557.4086,367.7336 567.6436,362.8734"/>
    <polygon points="569.123,360.6825 559.3986,356.0307 554.725,369.9374 568.9649,363.1754"/>
    <polygon points="570.4888,360.2834 558.0294,354.3233 552.0413,372.1412 570.2862,363.4774"/>
    <polygon points="607.8056,499.9811 609.9768,498.0442 609.2654,496.6267 607.4721,496.6862 606.2185,499.9358 607.341,500.112"/>
    <polygon points="607.4853,502.1669 613.5645,496.7437 611.5726,492.7746 606.5514,492.9413 603.0413,502.0401 606.1844,502.5335"/>
    <polygon points="607.165,504.3528 617.1523,495.4432 613.8798,488.9225 605.6308,489.1965 599.8642,504.1444 605.0279,504.955"/>
    <polygon points="606.8447,506.5386 620.7401,494.1427 616.1871,485.0704 604.7101,485.4516 596.687,506.2487 603.8713,507.3765"/>
    <polygon points="606.5244,508.7244 624.3279,492.8422 618.4943,481.2183 603.7894,481.7067 593.5098,508.353 602.7147,509.798"/>
    <polygon points="490.5537,319.6011 492.1021,321.6598 490.759,322.415 490.2224,322.1408"/>
    <polygon points="490.0416,316.9327 494.3772,322.6969 490.6166,324.8116 489.114,324.0438"/>
    <polygon points="489.5295,314.2643 496.6522,323.7341 490.4741,327.2081 488.0056,325.9468"/>
    <polygon points="489.0175,311.596 498.9272,324.7713 490.3316,329.6047 486.8972,327.8498"/>
    <polygon points="488.5054,308.9276 501.2023,325.8084 490.1891,332.0013 485.7888,329.7529"/>
    <polygon points="473.9415,339.5988 473.4026,341.5679 474.3737,343.3076 476.57,340.6067 476.4531,340.0084 475.9165,339.7342"/>
    <polygon points="472.1394,337.7394 470.6303,343.2529 473.3494,348.1241 479.4993,340.5617 479.1718,338.8863 477.6693,338.1185"/>
    <polygon points="470.3372,335.8801 467.8581,344.9378 472.3252,352.9407 482.4285,340.5166 481.8905,337.7642 479.4221,336.5029"/>
    <polygon points="468.5351,334.0207 465.0858,346.6228 471.301,357.7572 485.3578,340.4716 484.6092,336.6421 481.1749,334.8872"/>
    <polygon points="466.733,332.1614 462.3136,348.3078 470.2768,362.5737 488.287,340.4265 487.3279,335.52 482.9277,333.2715"/>
    <polyline points="537.8154,548.2839 533.5812,545.5072 528.3692,548.2839"/>
    <polygon points="454.5445,393.2002 454.4754,393.1315 450.8206,392.5609 449.3088,393.6494 449.6489,395.3283 450.841,395.6607 454.5772,393.2424"/>
    <polygon points="458.5035,392.2164 458.3098,392.0242 448.0764,390.4265 443.8435,393.4742 444.7956,398.1752 448.1336,399.106 458.595,392.3346"/>
    <polygon points="462.4625,391.2327 462.1442,390.9168 445.3323,388.2922 438.3781,393.299 439.9424,401.0221 445.4262,402.5512 462.6128,391.4268"/>
    <polygon points="466.4214,390.2489 465.9787,389.8095 442.5881,386.1578 432.9127,393.1238 435.0892,403.869 442.7188,405.9965 466.6306,390.519"/>
    <polygon points="470.3804,389.2652 469.8131,388.7021 439.844,384.0234 427.4474,392.9487 430.2359,406.7159 440.0114,409.4417 470.6484,389.6112"/>
    <polygon points="622.8165,398.9691 621.0468,396.7156 623.5701,394.7184 625.1767,396.2654 625.1771,396.6598"/>
    <polygon points="621.705,402.4242 616.7498,396.1145 623.8152,390.5224 628.3138,394.854 628.3148,395.9582"/>
    <polygon points="620.5935,405.8793 612.4529,395.5134 624.0603,386.3263 631.4508,393.4425 631.4525,395.2566"/>
    <polygon points="619.482,409.3344 608.156,394.9123 624.3055,382.1303 634.5879,392.031 634.5903,394.555"/>
    <polygon points="618.3706,412.7895 603.859,394.3111 624.5506,377.9343 637.7249,390.6196 637.728,393.8534"/>
    <polygon points="538.8707,363.9643 538.7659,362.0176 538.7665,362.0162 541.5791,362.1122 541.7194,362.3343 540.9891,364.5072 540.5646,364.8912 540.4075,364.9199"/>
    <polygon points="536.7313,364.9545 536.4379,359.5039 536.4396,359.5 544.3147,359.7688 544.7075,360.3906 542.6628,366.4748 541.4741,367.55 541.0342,367.6301"/>
    <polygon points="534.5918,365.9448 534.1099,356.9902 534.1126,356.9837 547.0504,357.4254 547.6957,358.4469 544.3365,368.4423 542.3836,370.2088 541.661,370.3404"/>
    <polygon points="532.4524,366.935 531.7819,354.4764 531.7857,354.4674 549.786,355.0819 550.6839,356.5032 546.0102,370.4099 543.2931,372.8676 542.2877,373.0507"/>
    <polygon points="530.313,367.9252 529.4539,351.9627 529.4588,351.9512 552.5216,352.7385 553.672,354.5595 547.6839,372.3774 544.2027,375.5264 542.9145,375.761"/>
    <polygon points="570.0072,343.6572 571.574,341.5042 570.1313,339.2635 570.0586,339.2587 568.3475,342.7083 568.4878,342.9304"/>
    <polygon points="570.3767,346.9026 574.7638,340.8743 570.7242,334.6001 570.5205,334.5868 565.7295,344.2457 566.1223,344.8675"/>
    <polygon points="570.7462,350.148 577.9536,340.2443 571.3171,329.9368 570.9825,329.915 563.1114,345.783 563.7568,346.8046"/>
    <polygon points="571.1157,353.3934 581.1433,339.6143 571.9101,325.2734 571.4444,325.2431 560.4934,347.3204 561.3912,348.7417"/>
    <polygon points="571.4851,356.6388 584.3331,338.9843 572.503,320.6101 571.9063,320.5712 557.8753,348.8577 559.0257,350.6787"/>
    <polygon points="482.7797,276.7145 484.1855,273.9145 485.5379,277.0382 482.9949,276.9716"/>
    <polygon points="481.2031,277.5134 485.1395,269.6734 488.9261,278.4197 481.8059,278.2334"/>
    <line x1="479.6265" x2="484.9469" y1="278.3123" y2="267.7161"/>
    <polyline points="487.0823,267.7161 492.3143,279.8013 480.6168,279.4952 479.6265,278.3123"/>
    <line x1="478.0499" x2="483.7714" y1="279.1111" y2="267.7161"/>
    <polyline points="489.8724,267.7161 495.7025,281.1828 479.4277,280.7569 478.0499,279.1111"/>
    <line x1="476.4734" x2="482.596" y1="279.91" y2="267.7161"/>
    <polyline points="492.6625,267.7161 499.0907,282.5643 478.2387,282.0187 476.4734,279.91"/>
    <polygon points="531.9936,451.8811 534.4797,452.9054 534.6872,453.308 533.0106,455.0467 531.8932,453.9422"/>
    <polygon points="530.1646,449.5776 537.1259,452.4458 537.7069,453.5731 533.0122,458.4414 529.8837,455.3489"/>
    <polygon points="528.3356,447.2742 539.7721,451.9862 540.7265,453.8382 533.0139,461.836 527.8741,456.7556"/>
    <polygon points="526.5067,444.9708 542.4183,451.5266 543.7462,454.1033 533.0155,465.2307 525.8645,458.1623"/>
    <polygon points="524.6777,442.6673 545.0645,451.067 546.7658,454.3684 533.0171,468.6254 523.855,459.569"/>
    <polyline points="415.6828,268.6517 417.269,268.2614 417.1533,267.7161"/>
    <line x1="414.7098" x2="415.6828" y1="267.7161" y2="268.6517"/>
    <polyline points="416.1109,271.4913 420.5524,270.3985 419.9833,267.7161"/>
    <line x1="412.1849" x2="416.1109" y1="267.7161" y2="271.4913"/>
    <polyline points="416.5391,274.3309 423.8357,272.5356 422.8133,267.7161"/>
    <line x1="409.6599" x2="416.5391" y1="267.7161" y2="274.3309"/>
    <polyline points="416.9672,277.1705 427.119,274.6727 425.6433,267.7161"/>
    <line x1="407.1349" x2="416.9672" y1="267.7161" y2="277.1705"/>
    <polyline points="417.3953,280.0101 430.4024,276.8097 428.4733,267.7161"/>
    <line x1="404.6099" x2="417.3953" y1="267.7161" y2="280.0101"/>
    <polygon points="444.94,502.0184 444.7336,502.0372 443.4544,501.0014 443.5375,498.8903 445.3859,498.9681 445.6956,500.3"/>
    <polygon points="445.4268,504.3056 444.8489,504.3584 441.267,501.458 441.4997,495.547 446.6752,495.7648 447.5425,499.4942"/>
    <polygon points="445.9135,506.5929 444.9643,506.6796 439.0797,501.9147 439.462,492.2037 447.9645,492.5615 449.3894,498.6884"/>
    <polygon points="446.4003,508.8801 445.0796,509.0008 436.8924,502.3713 437.4243,488.8604 449.2538,489.3583 451.2363,497.8826"/>
    <polygon points="446.8871,511.1674 445.1949,511.322 434.705,502.828 435.3865,485.5172 450.5432,486.155 453.0832,497.0768"/>
    <polygon points="607.8384,297.2084 611.1149,295.0014 612.2262,297.8431 611.3263,298.9793 607.6886,297.7344"/>
    <polygon points="604.5376,296.991 613.7118,290.8114 616.8236,298.7681 614.3039,301.9495 604.1183,298.4639"/>
    <polygon points="601.2368,296.7736 616.3087,286.6214 621.421,299.6932 617.2815,304.9197 600.5479,299.1933"/>
    <polygon points="597.9361,296.5562 618.9057,282.4314 626.0183,300.6183 620.259,307.8899 596.9776,299.9228"/>
    <polygon points="594.6353,296.3388 621.5026,278.2414 630.6157,301.5434 623.2366,310.8601 593.4072,300.6522"/>
    <polygon points="395.242,431.764 393.4144,429.671 391.5632,431.3791 391.7162,432.8012 391.7733,432.9018 392.2967,433.6723 392.7841,434.0463 395.2282,432.4889"/>
    <polygon points="398.8257,430.8415 393.7083,424.9812 388.5249,429.7637 388.9532,433.7456 389.1133,434.0273 390.5787,436.1848 391.9435,437.2319 398.7869,432.8711"/>
    <polygon points="402.4093,429.919 394.0021,420.2913 385.4866,428.1484 386.1903,434.6899 386.4533,435.1528 388.8607,438.6973 391.1029,440.4175 402.3456,433.2533"/>
    <polyline points="405.993,428.9965 394.296,415.6015 384.0,425.1014"/>
    <polyline points="384.0,436.5827 387.1427,441.2098 390.2622,443.6032 405.9043,433.6355 405.993,428.9965"/>
    <polyline points="409.5766,428.074 394.5899,410.9116 384.0,420.6827"/>
    <polyline points="384.0,441.6247 385.4247,443.7223 389.4216,446.7888 409.463,434.0177 409.5766,428.074"/>
    <polygon points="411.1387,400.7991 411.4788,402.4781 410.2565,404.2369 408.4289,402.144 408.4414,401.8988 409.2044,400.708 409.3837,400.463"/>
    <polygon points="413.3074,399.194 414.2595,403.895 410.8373,408.8198 405.7199,402.9595 405.7549,402.273 407.8913,398.9388 408.3935,398.2528"/>
    <polygon points="415.476,397.5889 417.0403,405.312 411.418,413.4028 403.0108,403.7751 403.0684,402.6472 406.5783,397.1696 407.4032,396.0426"/>
    <polygon points="417.6447,395.9838 419.8211,406.7289 411.9988,417.9857 400.3018,404.5907 400.3819,403.0214 405.2652,395.4004 406.4129,393.8324"/>
    <polygon points="419.8134,394.3786 422.6019,408.1459 412.5795,422.5686 397.5928,405.4062 397.6953,403.3956 403.9521,393.6312 405.4227,391.6221"/>
    <polygon points="599.3574,410.3125 597.5877,408.0591 597.039,407.9325 595.1879,409.1205 595.0969,409.2892 595.148,410.082 598.1677,411.1168 599.3729,410.6556"/>
    <polygon points="602.9377,411.4989 597.9826,405.1893 596.4463,404.835 591.2632,408.1611 591.0084,408.6336 591.1514,410.8534 599.6064,413.7508 602.9811,412.4597"/>
    <polygon points="606.5181,412.6854 598.3775,402.3195 595.8536,401.7374 587.3384,407.2018 586.9199,407.978 587.1549,411.6248 601.0452,416.3849 606.5893,414.2637"/>
    <polygon points="610.0984,413.8718 598.7724,399.4497 595.2609,398.6398 583.4137,406.2425 582.8313,407.3225 583.1583,412.3962 602.484,419.019 610.1976,416.0677"/>
    <polygon points="613.6787,415.0582 599.1672,396.5798 594.6682,395.5422 579.489,405.2832 578.7428,406.6669 579.1617,413.1676 603.9228,421.653 613.8058,417.8717"/>
    <polygon points="388.5147,394.0209 384.9569,393.8153 384.9887,394.2351 387.7517,395.2117"/>
    <line x1="391.3396" x2="384.0" y1="393.5891" y2="393.165"/>
    <polyline points="384.0,395.0843 389.2031,396.9233 391.3396,393.5891"/>
    <line x1="394.1645" x2="384.0" y1="393.1574" y2="392.5699"/>
    <polyline points="384.0,396.2829 390.6546,398.6349 394.1645,393.1574"/>
    <line x1="396.9893" x2="384.0" y1="392.7256" y2="391.9749"/>
    <polyline points="384.0,397.4816 392.106,400.3465 396.9893,392.7256"/>
    <line x1="399.8142" x2="384.0" y1="392.2938" y2="391.3798"/>
    <polyline points="384.0,398.6802 393.5574,402.0582 399.8142,392.2938"/>
    <polygon points="518.2549,472.1124 519.3723,473.2168 519.1566,474.8697 516.603,474.3999 516.5603,474.3538 516.7898,472.3834"/>
    <polygon points="518.973,469.885 522.1016,472.9775 521.4977,477.6056 514.3477,476.2903 514.2281,476.1611 514.8706,470.644"/>
    <polygon points="519.6911,467.6577 524.8309,472.7381 523.8388,480.3415 512.0924,478.1806 511.896,477.9684 512.9514,468.9046"/>
    <polygon points="520.4092,465.4303 527.5602,472.4988 526.18,483.0773 509.8371,480.0709 509.5638,479.7756 511.0323,467.1651"/>
    <polygon points="521.1273,463.203 530.2895,472.2594 528.5211,485.8132 507.5818,481.9612 507.2316,481.5829 509.1131,465.4257"/>
    <polygon points="443.5028,464.8035 444.2155,461.3172 445.4376,460.8199 446.0089,460.7925 446.4552,461.149 446.6213,464.8468 445.716,465.1758 443.8677,465.098"/>
    <polygon points="440.7424,467.6887 442.7379,457.927 446.1596,456.5344 447.7594,456.4579 449.0089,457.4558 449.4742,467.8097 446.9393,468.731 441.7639,468.5132"/>
    <polygon points="437.9819,470.5738 441.2603,454.5367 446.8817,452.249 449.5098,452.1232 451.5626,453.7627 452.327,470.7727 448.1626,472.2862 439.6601,471.9284"/>
    <polygon points="435.2214,473.4589 439.7827,451.1465 447.6038,447.9635 451.2603,447.7885 454.1164,450.0696 455.1798,473.7356 449.3859,475.8413 437.5563,475.3435"/>
    <polygon points="432.461,476.344 438.3051,447.7562 448.3258,443.678 453.0107,443.4538 456.6701,446.3764 458.0326,476.6985 450.6092,479.3965 435.4525,478.7587"/>
    <polygon points="563.8627,372.1549 564.4981,373.0567 562.9385,374.3395 561.2131,373.5955 561.6377,373.2114"/>
    <polygon points="565.4116,370.4798 567.1908,373.0049 562.8241,376.5969 557.9929,374.5134 559.1817,373.4381"/>
    <polygon points="566.9606,368.8047 569.8835,372.9531 562.7096,378.8542 554.7728,375.4314 556.7257,373.6649"/>
    <polygon points="568.5096,367.1296 572.5762,372.9014 562.5952,381.1115 551.5526,376.3493 554.2696,373.8916"/>
    <polygon points="570.0585,365.4545 575.2689,372.8496 562.4807,383.3688 548.3324,377.2673 551.8136,374.1183"/>
    <polygon points="400.6413,298.0102 399.5277,300.047 398.8741,299.4772 399.0159,298.5814"/>
    <polygon points="402.2635,296.5432 399.1454,302.2463 397.3154,300.6507 397.7125,298.1425"/>
    <polygon points="403.8858,295.0762 398.7631,304.4457 395.7568,301.8243 396.409,297.7036"/>
    <polygon points="405.508,293.6091 398.3808,306.645 394.1981,302.9979 395.1055,297.2647"/>
    <polygon points="407.1302,292.1421 397.9985,308.8443 392.6394,304.1715 393.8021,296.8258"/>
    <polygon points="546.2568,487.8304 546.7568,487.7913 547.5526,487.5457 549.5639,483.8723 547.0499,482.9636 545.3733,484.7023 545.1576,486.3552"/>
    <polygon points="545.3764,490.9247 546.7762,490.8152 549.0047,490.1274 554.6362,479.8418 547.597,477.2976 542.9024,482.1658 542.2985,486.794"/>
    <polygon points="544.4959,494.019 546.7956,493.839 550.4567,492.7092 559.7086,475.8114 548.1441,471.6316 540.4315,479.6294 539.4394,487.2327"/>
    <polygon points="543.6155,497.1132 546.8151,496.8628 551.9087,495.2909 564.7809,471.781 548.6912,465.9656 537.9606,477.093 536.5804,487.6715"/>
    <polygon points="542.735,500.2075 546.8345,499.8867 553.3607,497.8727 569.8532,467.7505 549.2383,460.2996 535.4897,474.5565 533.7213,488.1103"/>
    <polygon points="507.4492,372.5335 508.6209,368.395 510.8827,368.3101 510.9874,370.2567"/>
    <polygon points="504.5175,376.3635 507.7983,364.7756 514.1313,364.5379 514.4246,369.9885"/>
    <polygon points="501.5858,380.1934 506.9758,361.1561 517.3799,360.7656 517.8619,369.7202"/>
    <polygon points="498.6542,384.0234 506.1533,357.5367 520.6286,356.9934 521.2991,369.452"/>
    <polygon points="495.7225,387.8533 505.3307,353.9173 523.8772,353.2212 524.7363,369.1837"/>
    <polygon points="402.3869,524.0004 401.277,526.9203 398.669,525.5091 399.0415,523.5803 401.6373,523.2536"/>
    <polygon points="405.0638,523.022 401.956,531.1977 394.6536,527.2463 395.6966,521.8455 402.9648,520.9307"/>
    <polygon points="407.7406,522.0435 402.635,535.475 390.6382,528.9834 392.3517,520.1108 404.2923,518.6079"/>
    <polygon points="410.4175,521.0651 403.3141,539.7524 386.6228,530.7206 389.0068,518.376 405.6198,516.2851"/>
    <polyline points="413.0943,520.0866 403.9931,544.0297 384.0,533.2113"/>
    <polyline points="384.0,525.247 385.6619,516.6413 406.9473,513.9623 413.0943,520.0866"/>
    <polyline points="510.4162,548.2839 510.4182,548.2546 510.5053,548.2839"/>
    <polyline points="508.2918,548.2839 508.4532,545.9232 515.4848,548.2839"/>
    <polyline points="506.1674,548.2839 506.4882,543.5918 520.4643,548.2839"/>
    <polyline points="504.043,548.2839 504.5232,541.2604 523.9198,547.7723 523.5938,548.2839"/>
    <polyline points="555.2196,267.7161 553.3933,269.2389 553.4307,269.2677 555.5562,269.8367 556.6381,268.3401 555.6917,267.7161"/>
    <polyline points="553.8064,267.7161 550.4677,270.5001 550.5723,270.5806 556.5237,272.1738 559.5529,267.9836 559.1473,267.7161"/>
    <polyline points="552.3933,267.7161 547.542,271.7613 547.7139,271.8936 557.4912,274.511 562.4034,267.7161"/>
    <polyline points="550.9802,267.7161 544.6163,273.0226 544.8555,273.2065 558.4587,276.8482 565.0605,267.7161"/>
    <polyline points="549.567,267.7161 541.6906,274.2838 541.9971,274.5195 559.4261,279.1853 567.7176,267.7161"/>
    <polygon points="532.463,433.2843 534.9492,434.3086 535.469,432.2371 533.5907,430.5975 533.4442,430.6378 532.3396,433.1341"/>
    <polygon points="530.5401,434.7002 537.5015,437.5684 538.9569,431.7681 533.6977,427.177 533.2877,427.29 530.1946,434.2797"/>
    <polygon points="528.6173,436.1161 540.0538,440.8281 542.4448,431.299 533.8047,423.7566 533.1311,423.9423 528.0496,435.4253"/>
    <polygon points="526.6945,437.5321 542.6061,444.0879 545.9327,430.83 533.9117,420.3362 532.9745,420.5945 525.9047,436.5709"/>
    <polygon points="524.7716,438.948 545.1584,447.3476 549.4207,430.361 534.0187,416.9158 532.8179,417.2468 523.7597,437.7165"/>
    <polyline points="672.0,435.4397 671.9543,435.4501 672.0,437.0289"/>
    <polygon points="526.1723,312.7143 524.8623,313.7061 523.7704,313.271 522.3689,310.5542 522.5825,310.0027 525.5308,311.554"/>
    <polygon points="529.1927,313.8673 525.5248,316.6442 522.4675,315.426 518.5434,307.819 519.1415,306.2746 527.3967,310.6184"/>
    <polygon points="532.2132,315.0202 526.1873,319.5823 521.1647,317.581 514.7179,305.0837 515.7005,302.5465 529.2626,309.6829"/>
    <polygon points="535.2337,316.1731 526.8498,322.5204 519.8618,319.736 510.8924,302.3485 512.2595,298.8185 531.1284,308.7473"/>
    <polygon points="538.2542,317.3261 527.5124,325.4584 518.5589,321.8909 507.0669,299.6132 508.8185,295.0904 532.9943,307.8117"/>
    <polygon points="482.6873,432.3655 482.0192,432.6907 479.2604,432.085 478.8142,431.7286 481.1329,426.9615 482.1959,427.2514 483.0965,431.8114"/>
    <polygon points="484.8484,434.99 482.9777,435.9006 475.2531,434.2047 474.0036,433.2067 480.496,419.8587 483.4724,420.6705 485.994,433.4385"/>
    <polygon points="487.0096,437.6144 483.9362,439.1104 471.2458,436.3244 469.193,434.6848 479.8592,412.756 484.7489,414.0895 488.8916,435.0657"/>
    <polygon points="489.1707,440.2389 484.8947,442.3202 467.2384,438.444 464.3824,436.1629 479.2223,405.6532 486.0254,407.5086 491.7892,436.6928"/>
    <polygon points="491.3318,442.8634 485.8532,445.5301 463.2311,440.5637 459.5718,437.641 478.5855,398.5505 487.3019,400.9277 494.6867,438.3199"/>
    <polygon points="583.9244,492.9291 583.6229,493.14 580.3724,491.9289 582.3837,488.2554 583.0809,488.0088 585.178,489.6796"/>
    <polygon points="585.2061,496.4348 584.3617,497.0252 575.2605,493.634 580.8921,483.3484 582.8441,482.6579 588.7162,487.336"/>
    <polygon points="586.4877,499.9404 585.1006,500.9103 570.1485,495.3391 579.4004,478.4413 582.6074,477.307 592.2543,484.9925"/>
    <polygon points="587.7694,503.446 585.8394,504.7955 565.0366,497.0442 577.9088,473.5342 582.3707,471.9561 595.7925,482.6489"/>
    <polygon points="589.051,506.9517 586.5783,508.6807 559.9246,498.7493 576.4172,468.6272 582.1339,466.6052 599.3306,480.3053"/>
    <polygon points="492.1527,295.4712 492.173,295.4752 493.7116,294.6088 493.9252,294.0573 493.9827,293.6031 493.6354,293.3156 491.0924,293.2491 491.0491,293.9589"/>
    <polygon points="491.2526,297.4773 491.3095,297.4885 495.6176,295.0627 496.2157,293.5183 496.3765,292.2465 495.4041,291.4417 488.2839,291.2554 488.1625,293.2429"/>
    <polygon points="490.3525,299.4834 490.446,299.5018 497.5235,295.5165 498.5061,292.9793 498.7703,290.8899 497.1728,289.5677 485.4753,289.2616 485.2759,292.5269"/>
    <polygon points="489.4524,301.4895 489.5824,301.515 499.4295,295.9703 500.7966,292.4403 501.1641,289.5334 498.9415,287.6938 482.6667,287.2679 482.3892,291.8109"/>
    <polygon points="488.5523,303.4956 488.7189,303.5283 501.3354,296.4241 503.087,291.9013 503.5579,288.1768 500.7102,285.8198 479.8582,285.2742 479.5026,291.0949"/>
    <polyline points="463.576,267.7161 463.18,268.7794 460.4365,267.7161"/>
    <polyline points="465.6642,267.7161 464.2698,271.4596 454.6108,267.7161"/>
    <line x1="451.3362" x2="451.7375" y1="268.7048" y2="267.7161"/>
    <polyline points="467.7523,267.7161 465.3596,274.1398 451.3362,268.7048"/>
    <polygon points="479.6378,371.8599 479.5686,371.7912 479.1291,369.7708 481.3254,367.0699 482.0602,367.86"/>
    <polygon points="478.5781,375.1442 478.3844,374.9519 477.1538,369.2947 483.3036,361.7322 485.3609,363.9444"/>
    <polygon points="477.5184,378.4285 477.2001,378.1127 475.1785,368.8186 485.2818,356.3945 488.6616,360.0289"/>
    <polygon points="476.4587,381.7128 476.0159,381.2734 473.2031,368.3425 487.2599,351.0568 491.9623,356.1133"/>
    <polygon points="475.3991,384.9971 474.8317,384.4341 471.2278,367.8664 489.2381,345.7191 495.263,352.1978"/>
  </g>
</svg>
