<?xml version="1.0" encoding="utf-8" ?>
<svg xmlns="http://www.w3.org/2000/svg" xmlns:cc="http://creativecommons.org/ns#" xmlns:dc="http://purl.org/dc/elements/1.1/" xmlns:ev="http://www.w3.org/2001/xml-events" xmlns:inkscape="http://www.inkscape.org/namespaces/inkscape" xmlns:rdf="http://www.w3.org/1999/02/22-rdf-syntax-ns#" xmlns:sodipodi="http://sodipodi.sourceforge.net/DTD/sodipodi-0.dtd" xmlns:xlink="http://www.w3.org/1999/xlink" baseProfile="tiny" height="21.59cm" version="1.2" viewBox="0 0 1056.0 816.0000000000001" width="27.94cm">
  <metadata>
    <rdf:RDF>
      <cc:Work>
        <dc:format>image/svg+xml</dc:format>
        <dc:source>vpype read art.svg scaleto 4in 4in layout --landscape letter write art-scaled.svg
</dc:source>
        <dc:date>2021-07-27T16:52:56.106839</dc:date>
      </cc:Work>
    </rdf:RDF>
  </metadata>
  <defs/>
  <g fill="none" id="layer1" inkscape:groupmode="layer" inkscape:label="1" stroke="#00f" style="display:inline">
    <polygon points="336.0,595.0452 720.0,595.0452 720.0,220.9548 336.0,220.9548"/>
    <polyline points="526.9491,220.9548 525.2702,224.7466 516.696,228.2232 499.509,220.9548"/>
    <line x1="336.187" x2="336.0" y1="400.4533" y2="400.949"/>
    <polyline points="336.0,405.4308 385.3427,412.0322 354.2856,382.3664 351.0622,384.2475 336.187,400.4533"/>
    <polyline points="336.0,400.949 336.187,400.4533 336.0,400.165"/>
    <polyline points="336.0,337.015 339.5036,339.4816 336.0987,369.4809 336.0,369.4647"/>
    <polyline points="336.0,400.165 336.187,400.4533 351.0622,384.2475 336.0987,369.4809 336.0,369.4647"/>
    <polygon points="367.4828,353.3989 339.5036,339.4816 336.0987,369.4809 351.0622,384.2475 354.2856,382.3664 371.187,361.6876"/>
    <polyline points="720.0,587.5999 698.8853,587.3039 703.2391,595.0452"/>
    <polyline points="362.7046,220.9548 376.2614,226.6132 380.875,220.9548"/>
    <line x1="346.4216" x2="348.2803" y1="222.9039" y2="220.9548"/>
    <polyline points="337.9126,220.9548 343.2119,224.2913 346.4216,222.9039"/>
    <line x1="343.2119" x2="336.0" y1="224.2913" y2="230.48"/>
    <line x1="337.9126" x2="343.2119" y1="220.9548" y2="224.2913"/>
    <polyline points="703.2391,595.0452 698.8853,587.3039 698.6835,587.2596 690.5953,594.4826 690.8056,595.0452"/>
    <line x1="701.5699" x2="720.0" y1="548.2557" y2="545.0055"/>
    <polyline points="720.0,587.5999 698.8853,587.3039 698.6835,587.2596 691.9829,557.6834 699.8409,548.7956 701.5699,548.2557"/>
    <line x1="697.9452" x2="720.0" y1="512.5158" y2="524.8189"/>
    <polyline points="720.0,496.5078 705.1268,476.4153 699.5794,477.3544 683.8928,495.8321 697.9452,512.5158"/>
    <line x1="705.1268" x2="720.0" y1="476.4153" y2="463.81"/>
    <line x1="720.0" x2="705.1268" y1="496.5078" y2="476.4153"/>
    <polyline points="697.9452,512.5158 701.5699,548.2557 720.0,545.0055"/>
    <line x1="720.0" x2="697.9452" y1="524.8189" y2="512.5158"/>
    <polygon points="697.9452,512.5158 701.5699,548.2557 699.8409,548.7956 666.1935,510.9715 681.0689,497.6858 683.8928,495.8321"/>
    <polyline points="662.9033,595.0452 684.0868,559.0348 659.9499,554.8258 653.3814,568.9476 653.6906,595.0452"/>
    <polyline points="687.8268,595.0452 690.5953,594.4826 698.6835,587.2596 691.9829,557.6834 684.0868,559.0348 662.9033,595.0452"/>
    <polygon points="659.9499,554.8258 643.0399,529.7333 654.0425,514.098 666.1935,510.9715 699.8409,548.7956 691.9829,557.6834 684.0868,559.0348"/>
    <polygon points="653.3814,568.9476 618.8757,563.9641 629.9859,534.1309 643.0399,529.7333 659.9499,554.8258"/>
    <polyline points="595.864,595.0452 618.8757,563.9641 653.3814,568.9476 653.6906,595.0452"/>
    <polyline points="687.8268,595.0452 690.5953,594.4826 690.8056,595.0452"/>
    <polyline points="577.1987,512.3436 629.9859,534.1309 618.8757,563.9641 595.864,595.0452"/>
    <line x1="593.3075" x2="577.1987" y1="595.0452" y2="512.3436"/>
    <polyline points="618.1878,240.2091 579.3745,245.6213 578.6063,220.9548"/>
    <polyline points="616.7839,220.9548 618.3622,226.4982 618.1878,240.2091"/>
    <line x1="618.3622" x2="639.3265" y1="226.4982" y2="220.9548"/>
    <line x1="616.7839" x2="618.3622" y1="220.9548" y2="226.4982"/>
    <polyline points="720.0,403.495 700.1097,407.2398 693.1556,419.7518 720.0,444.3973"/>
    <polyline points="671.7907,449.9141 682.5729,423.7164 693.1556,419.7518 720.0,444.3973"/>
    <polyline points="720.0,463.81 705.1268,476.4153 699.5794,477.3544 673.4655,453.4417 671.7907,449.9141"/>
    <polyline points="336.0,473.3637 370.993,459.7974 336.0,434.1763"/>
    <polygon points="396.7964,401.2691 388.3569,413.5713 385.3427,412.0322 354.2856,382.3664 371.187,361.6876 389.9182,368.5433"/>
    <line x1="409.9467" x2="412.673" y1="585.4531" y2="595.0452"/>
    <line x1="397.9838" x2="409.9467" y1="595.0452" y2="585.4531"/>
    <polyline points="336.0,277.8355 352.806,273.1684 378.6666,296.0437 348.8219,312.0355 336.0,311.6179"/>
    <polyline points="352.806,273.1684 363.8778,262.4529 346.4216,222.9039 343.2119,224.2913 336.0,230.48"/>
    <line x1="336.0" x2="352.806" y1="277.8355" y2="273.1684"/>
    <polygon points="348.8219,312.0355 379.9197,321.918 383.8968,298.3762 378.6666,296.0437"/>
    <polyline points="336.0,337.015 339.5036,339.4816 367.4828,353.3989 381.5303,326.1916 379.9197,321.918 348.8219,312.0355 336.0,311.6179"/>
    <polyline points="336.0,564.1905 336.1308,564.1314 352.8593,577.868 357.8065,595.0452"/>
    <polyline points="499.509,220.9548 516.696,228.2232 500.1639,253.9285 453.7231,237.9984 457.2562,220.9548"/>
    <polygon points="543.2331,338.0495 539.043,339.5926 524.3633,342.4341 508.1748,324.5535 512.6368,311.1301 543.6523,319.7457"/>
    <polygon points="543.6523,319.7457 545.4881,283.793 519.3652,282.6372 512.6368,311.1301"/>
    <polygon points="539.043,339.5926 535.0082,395.8882 516.1337,401.6532 510.2143,395.741 495.4467,369.5811 524.3633,342.4341"/>
    <polygon points="496.7183,320.5261 508.1748,324.5535 512.6368,311.1301 519.3652,282.6372 507.185,278.9703 492.6162,286.7476 488.5752,301.925"/>
    <polygon points="421.326,329.551 381.5303,326.1916 379.9197,321.918 383.8968,298.3762 392.3799,294.4062 425.7881,309.8089"/>
    <polygon points="428.7052,352.2878 389.9182,368.5433 371.187,361.6876 367.4828,353.3989 381.5303,326.1916 421.326,329.551"/>
    <polygon points="584.909,359.871 555.3052,353.296 561.1311,386.3201"/>
    <polygon points="561.1311,386.3201 561.1181,393.3991 535.0082,395.8882 539.043,339.5926 543.2331,338.0495 546.4175,339.4167 555.3052,353.296"/>
    <line x1="556.4597" x2="582.7787" y1="587.5954" y2="595.0452"/>
    <polyline points="548.9551,595.0452 552.2425,589.3222 556.4597,587.5954"/>
    <polyline points="521.3432,591.3773 552.2425,589.3222 548.9551,595.0452"/>
    <line x1="516.8504" x2="521.3432" y1="595.0452" y2="591.3773"/>
    <polygon points="573.3785,499.6592 643.0764,498.8616 654.0425,514.098 643.0399,529.7333 629.9859,534.1309 577.1987,512.3436 571.8686,506.547"/>
    <polyline points="387.2601,452.9728 388.3569,413.5713 385.3427,412.0322 336.0,405.4308"/>
    <polyline points="336.0,434.1763 370.993,459.7974 374.3335,460.9976 387.2601,452.9728"/>
    <line x1="659.0142" x2="661.022" y1="234.1386" y2="220.9548"/>
    <polyline points="639.3265,220.9548 618.3622,226.4982 618.1878,240.2091 629.7903,249.2256 659.0142,234.1386"/>
    <polygon points="565.5846,269.4682 579.3745,245.6213 618.1878,240.2091 629.7903,249.2256 628.2975,287.1574 622.7317,290.217"/>
    <polyline points="563.8821,270.2069 525.2702,224.7466 526.9491,220.9548"/>
    <polyline points="578.6063,220.9548 579.3745,245.6213 565.5846,269.4682 563.8821,270.2069"/>
    <polygon points="561.9511,272.524 545.4881,283.793 543.6523,319.7457 543.2331,338.0495 546.4175,339.4167 586.7457,328.4586"/>
    <polygon points="561.9511,272.524 545.4881,283.793 519.3652,282.6372 507.185,278.9703 500.1639,253.9285 516.696,228.2232 525.2702,224.7466 563.8821,270.2069"/>
    <polygon points="669.7165,456.9549 630.4161,472.2661 637.302,479.8041 654.8454,473.7649"/>
    <polygon points="630.4161,472.2661 620.9508,463.5362 605.257,465.9094 586.3066,482.2831 573.6524,495.359 573.3785,499.6592 643.0764,498.8616 637.302,479.8041"/>
    <polygon points="654.8454,473.7649 681.0689,497.6858 666.1935,510.9715 654.0425,514.098 643.0764,498.8616 637.302,479.8041"/>
    <polygon points="669.7165,456.9549 673.4655,453.4417 699.5794,477.3544 683.8928,495.8321 681.0689,497.6858 654.8454,473.7649"/>
    <polygon points="467.5815,353.6985 433.7816,355.3753 433.1167,398.1253 460.3748,399.41 483.4281,366.2976"/>
    <polygon points="483.4281,366.2976 495.4467,369.5811 510.2143,395.741 485.9797,405.5054 465.4434,407.8511 460.3748,399.41"/>
    <polygon points="433.7816,355.3753 428.7052,352.2878 389.9182,368.5433 396.7964,401.2691 432.0368,399.4911 433.1167,398.1253"/>
    <polygon points="467.5815,353.6985 470.487,341.3737 496.7183,320.5261 508.1748,324.5535 524.3633,342.4341 495.4467,369.5811 483.4281,366.2976"/>
    <polyline points="455.5093,595.0452 455.5964,587.7154 440.4916,588.2501 436.9984,595.0452"/>
    <polyline points="412.673,595.0452 409.9467,585.4531 415.5179,574.82 440.4916,588.2501 436.9984,595.0452"/>
    <polyline points="415.2731,574.1711 415.5179,574.82 409.9467,585.4531 397.9838,595.0452"/>
    <polyline points="357.8065,595.0452 352.8593,577.868 386.6809,563.1018 405.685,565.5854 415.2731,574.1711"/>
    <polygon points="411.9446,539.5399 401.4408,516.6188 391.131,513.883 382.8486,522.3153 386.6809,563.1018 405.685,565.5854"/>
    <polygon points="382.8149,237.4825 407.8198,227.0827 439.8831,255.3065 439.1584,257.5796 399.3359,264.4357 381.996,255.4416"/>
    <polygon points="399.3359,264.4357 392.3799,294.4062 425.7881,309.8089 439.4439,295.9859 444.749,274.7704 439.1584,257.5796"/>
    <polygon points="439.8831,255.3065 453.7231,237.9984 500.1639,253.9285 507.185,278.9703 492.6162,286.7476 444.749,274.7704 439.1584,257.5796"/>
    <line x1="407.8198" x2="407.2567" y1="227.0827" y2="220.9548"/>
    <polyline points="457.2562,220.9548 453.7231,237.9984 439.8831,255.3065 407.8198,227.0827"/>
    <polyline points="382.8149,237.4825 376.2614,226.6132 380.875,220.9548"/>
    <polyline points="407.2567,220.9548 407.8198,227.0827 382.8149,237.4825"/>
    <polygon points="381.996,255.4416 363.8778,262.4529 352.806,273.1684 378.6666,296.0437 383.8968,298.3762 392.3799,294.4062 399.3359,264.4357"/>
    <polyline points="382.8149,237.4825 376.2614,226.6132 362.7046,220.9548"/>
    <polyline points="348.2803,220.9548 346.4216,222.9039 363.8778,262.4529 381.996,255.4416 382.8149,237.4825"/>
    <polygon points="467.1091,323.9758 486.7404,303.0742 452.5405,306.1512"/>
    <polygon points="467.1091,323.9758 470.487,341.3737 496.7183,320.5261 488.5752,301.925 486.7404,303.0742"/>
    <polygon points="452.5405,306.1512 439.4439,295.9859 444.749,274.7704 492.6162,286.7476 488.5752,301.925 486.7404,303.0742"/>
    <polygon points="467.1091,323.9758 470.487,341.3737 467.5815,353.6985 433.7816,355.3753 428.7052,352.2878 421.326,329.551 425.7881,309.8089 439.4439,295.9859 452.5405,306.1512"/>
    <polygon points="647.2817,443.2392 671.7907,449.9141 673.4655,453.4417 669.7165,456.9549 630.4161,472.2661 620.9508,463.5362 635.6743,443.6286"/>
    <polygon points="566.815,410.4747 564.5755,395.703 561.1181,393.3991 535.0082,395.8882 516.1337,401.6532 514.6571,432.1552 524.4027,436.0041 527.7017,435.1086"/>
    <polyline points="558.4791,513.8707 571.8686,506.547 577.1987,512.3436 593.3075,595.0452"/>
    <polyline points="582.7787,595.0452 556.4597,587.5954 546.007,563.8552 558.4791,513.8707"/>
    <polyline points="492.8865,595.0452 474.1148,582.009 474.9244,595.0452"/>
    <polyline points="455.5093,595.0452 455.5964,587.7154 470.9397,578.3195 474.1148,582.009 474.9244,595.0452"/>
    <polygon points="522.342,557.4738 514.8765,577.5433 488.7858,565.7164 516.4051,551.1557"/>
    <polyline points="514.8765,577.5433 521.3432,591.3773 516.8504,595.0452"/>
    <polyline points="492.8865,595.0452 474.1148,582.009 470.9397,578.3195 473.7165,567.1047 488.7858,565.7164 514.8765,577.5433"/>
    <polygon points="522.342,557.4738 546.007,563.8552 556.4597,587.5954 552.2425,589.3222 521.3432,591.3773 514.8765,577.5433"/>
    <polygon points="391.5988,453.1455 387.2601,452.9728 388.3569,413.5713 396.7964,401.2691 432.0368,399.4911 434.9404,431.1709"/>
    <polygon points="685.1043,272.7003 685.5191,269.8724 659.0142,234.1386 629.7903,249.2256 628.2975,287.1574 635.5141,287.9395"/>
    <polygon points="614.4897,361.5475 640.2087,331.7954 620.3555,299.1161 599.061,331.6359 610.2753,357.1016"/>
    <polygon points="599.061,331.6359 586.7457,328.4586 561.9511,272.524 563.8821,270.2069 565.5846,269.4682 622.7317,290.217 620.3555,299.1161"/>
    <polygon points="610.2753,357.1016 584.909,359.871 555.3052,353.296 546.4175,339.4167 586.7457,328.4586 599.061,331.6359"/>
    <polygon points="614.4897,361.5475 624.727,384.4771 564.5755,395.703 561.1181,393.3991 561.1311,386.3201 584.909,359.871 610.2753,357.1016"/>
    <polyline points="720.0,258.3836 687.5613,267.8531 687.9942,266.9874 716.4247,224.609 720.0,223.024"/>
    <polyline points="687.5613,267.8531 685.5191,269.8724 659.0142,234.1386 661.022,220.9548"/>
    <polyline points="689.4445,220.9548 690.9336,221.6103 687.9942,266.9874 687.5613,267.8531"/>
    <polygon points="716.4247,224.609 690.9336,221.6103 687.9942,266.9874"/>
    <polyline points="720.0,284.6682 714.4316,285.9624 688.6695,278.3552 685.1043,272.7003 685.5191,269.8724 687.5613,267.8531 720.0,258.3836"/>
    <polyline points="689.4445,220.9548 690.9336,221.6103 716.4247,224.609 720.0,223.024"/>
    <polyline points="720.0,300.9562 714.4316,285.9624 720.0,284.6682"/>
    <polyline points="720.0,321.4002 712.7258,322.0176 688.412,288.3804 688.6695,278.3552 714.4316,285.9624 720.0,300.9562"/>
    <polyline points="340.92,536.5211 347.257,499.1316 336.0,497.0017"/>
    <line x1="336.0" x2="340.92" y1="541.3438" y2="536.5211"/>
    <polyline points="347.257,499.1316 373.9488,469.643 374.3335,460.9976 370.993,459.7974 336.0,473.3637"/>
    <line x1="336.0" x2="347.257" y1="497.0017" y2="499.1316"/>
    <polygon points="340.92,536.5211 382.8486,522.3153 391.131,513.883 373.9488,469.643 347.257,499.1316"/>
    <polyline points="336.0,560.5781 336.1308,564.1314 336.0,564.1905"/>
    <polyline points="340.92,536.5211 382.8486,522.3153 386.6809,563.1018 352.8593,577.868 336.1308,564.1314 336.0,560.5781"/>
    <line x1="336.0" x2="340.92" y1="541.3438" y2="536.5211"/>
    <polygon points="444.9131,546.2716 415.2731,574.1711 415.5179,574.82 440.4916,588.2501 455.5964,587.7154 470.9397,578.3195 473.7165,567.1047 467.0016,547.3372 465.4497,546.6059"/>
    <polygon points="438.0005,541.508 411.9446,539.5399 405.685,565.5854 415.2731,574.1711 444.9131,546.2716"/>
    <polygon points="426.067,508.5566 401.4408,516.6188 411.9446,539.5399 438.0005,541.508"/>
    <polygon points="426.067,508.5566 401.4408,516.6188 391.131,513.883 373.9488,469.643 374.3335,460.9976 387.2601,452.9728 391.5988,453.1455 418.4488,470.2474 431.6162,504.0169"/>
    <polygon points="585.4749,430.1052 623.0908,394.774 624.9638,413.8996 597.2946,443.5879"/>
    <polygon points="597.2946,443.5879 605.257,465.9094 620.9508,463.5362 635.6743,443.6286 624.9638,413.8996"/>
    <polygon points="654.8307,425.1554 624.8531,385.6025 624.95,384.6519 645.8209,382.0341 672.0012,416.37"/>
    <polygon points="654.8307,425.1554 647.2817,443.2392 635.6743,443.6286 624.9638,413.8996 623.0908,394.774 624.8531,385.6025"/>
    <polygon points="654.8307,425.1554 647.2817,443.2392 671.7907,449.9141 682.5729,423.7164 672.0012,416.37"/>
    <polygon points="572.4697,427.0904 550.2117,432.3441 560.081,451.7172 572.3322,428.4204 572.6877,427.3596"/>
    <polygon points="550.2117,432.3441 527.7017,435.1086 524.4027,436.0041 554.1885,464.8177 560.081,451.7172"/>
    <polygon points="572.3322,428.4204 586.3066,482.2831 573.6524,495.359 558.4648,477.1626 554.1885,464.8177 560.081,451.7172"/>
    <polygon points="572.4697,427.0904 566.815,410.4747 527.7017,435.1086 550.2117,432.3441"/>
    <polygon points="572.6877,427.3596 585.4749,430.1052 597.2946,443.5879 605.257,465.9094 586.3066,482.2831 572.3322,428.4204"/>
    <polygon points="572.4697,427.0904 566.815,410.4747 564.5755,395.703 624.727,384.4771 624.95,384.6519 624.8531,385.6025 623.0908,394.774 585.4749,430.1052 572.6877,427.3596"/>
    <polygon points="515.8381,526.2002 516.4051,551.1557 488.7858,565.7164 473.7165,567.1047 467.0016,547.3372 478.9698,535.4735"/>
    <polygon points="523.211,517.1879 558.4791,513.8707 571.8686,506.547 573.3785,499.6592 573.6524,495.359 558.4648,477.1626 522.6489,474.7021 511.82,503.9278"/>
    <polygon points="523.211,517.1879 558.4791,513.8707 546.007,563.8552 522.342,557.4738 516.4051,551.1557 515.8381,526.2002"/>
    <polygon points="680.0679,362.7033 662.6402,330.6237 663.6473,322.455 680.7878,308.084 699.3839,331.0432 682.5516,361.8446 680.293,362.7142"/>
    <polygon points="680.0679,362.7033 645.8209,382.0341 624.95,384.6519 624.727,384.4771 614.4897,361.5475 640.2087,331.7954 662.6402,330.6237"/>
    <polygon points="663.6473,322.455 635.5141,287.9395 628.2975,287.1574 622.7317,290.217 620.3555,299.1161 640.2087,331.7954 662.6402,330.6237"/>
    <polygon points="680.7878,308.084 688.412,288.3804 688.6695,278.3552 685.1043,272.7003 635.5141,287.9395 663.6473,322.455"/>
    <polygon points="699.3839,331.0432 712.7258,322.0176 688.412,288.3804 680.7878,308.084"/>
    <line x1="682.5516" x2="720.0" y1="361.8446" y2="365.0151"/>
    <polyline points="720.0,321.4002 712.7258,322.0176 699.3839,331.0432 682.5516,361.8446"/>
    <polyline points="680.293,362.7142 700.1097,407.2398 720.0,403.495"/>
    <polyline points="720.0,365.0151 682.5516,361.8446 680.293,362.7142"/>
    <polygon points="680.0679,362.7033 645.8209,382.0341 672.0012,416.37 682.5729,423.7164 693.1556,419.7518 700.1097,407.2398 680.293,362.7142"/>
    <polygon points="487.5915,489.2955 457.7837,485.8369 443.3683,503.1625 448.635,508.9536 478.7934,509.8527 488.0428,490.1562"/>
    <polygon points="443.3683,503.1625 431.6162,504.0169 418.4488,470.2474 434.5774,468.6069 455.5161,479.344 457.7837,485.8369"/>
    <polygon points="448.635,508.9536 465.4497,546.6059 444.9131,546.2716 438.0005,541.508 426.067,508.5566 431.6162,504.0169 443.3683,503.1625"/>
    <polygon points="478.7934,509.8527 478.9698,535.4735 467.0016,547.3372 465.4497,546.6059 448.635,508.9536"/>
    <polygon points="488.0428,490.1562 511.82,503.9278 523.211,517.1879 515.8381,526.2002 478.9698,535.4735 478.7934,509.8527"/>
    <polygon points="453.7367,443.0111 434.5774,468.6069 455.5161,479.344 463.7063,449.8409"/>
    <polygon points="477.1459,422.202 485.9797,405.5054 465.4434,407.8511 465.6507,417.7725"/>
    <polygon points="449.0798,436.7241 434.9404,431.1709 432.0368,399.4911 433.1167,398.1253 460.3748,399.41 465.4434,407.8511 465.6507,417.7725"/>
    <polygon points="453.7367,443.0111 434.5774,468.6069 418.4488,470.2474 391.5988,453.1455 434.9404,431.1709 449.0798,436.7241"/>
    <polygon points="477.3766,422.3888 468.8646,449.989 497.1386,454.9049 498.7961,453.8213 511.5431,434.889"/>
    <polygon points="477.3766,422.3888 477.1459,422.202 465.6507,417.7725 449.0798,436.7241 453.7367,443.0111 463.7063,449.8409 468.8646,449.989"/>
    <polygon points="497.1386,454.9049 487.5915,489.2955 457.7837,485.8369 455.5161,479.344 463.7063,449.8409 468.8646,449.989"/>
    <polygon points="497.1386,454.9049 487.5915,489.2955 488.0428,490.1562 511.82,503.9278 522.6489,474.7021 498.7961,453.8213"/>
    <polygon points="511.5431,434.889 514.6571,432.1552 524.4027,436.0041 554.1885,464.8177 558.4648,477.1626 522.6489,474.7021 498.7961,453.8213"/>
    <polygon points="477.3766,422.3888 477.1459,422.202 485.9797,405.5054 510.2143,395.741 516.1337,401.6532 514.6571,432.1552 511.5431,434.889"/>
    <polygon points="498.0886,581.5236 498.7353,582.907 497.6479,583.7947 496.2897,583.5516 494.0124,581.9701 493.6949,581.6012 493.9726,580.4797 495.4795,580.3409"/>
    <polygon points="501.4462,580.7275 503.2569,584.601 500.2121,587.0868 496.4093,586.406 490.0329,581.9779 489.1439,580.9449 489.9214,577.8047 494.1408,577.416"/>
    <polygon points="504.8038,579.9315 507.7785,586.2951 502.7763,590.3788 496.5289,589.2604 486.0534,581.9857 484.5928,580.2885 485.8702,575.1297 492.802,574.4911"/>
    <polygon points="508.1613,579.1354 512.3,587.9891 505.3405,593.6709 496.6484,592.1149 482.0738,581.9935 480.0418,579.6322 481.819,572.4547 491.4633,571.5662"/>
    <polyline points="511.5189,578.3394 516.8216,589.6832 510.2538,595.0452"/>
    <polyline points="497.1918,595.0452 496.768,594.9693 478.0943,582.0012 475.4907,578.9759 477.7678,569.7797 490.1245,568.6413 511.5189,578.3394"/>
    <polygon points="344.6351,324.1018 344.5027,324.9796 345.38,326.4001 346.1261,326.9253 348.924,328.3171 350.3288,325.5963 350.1677,325.169 347.0579,324.1807"/>
    <polygon points="340.6268,321.5307 340.2561,323.9886 342.7125,327.9658 344.8016,329.4366 352.6358,333.3334 356.5691,325.7154 356.1181,324.5188 347.4107,321.7517"/>
    <polygon points="336.6184,318.9597 336.0095,322.9975 340.045,329.5316 343.4771,331.9478 356.3476,338.3498 362.8094,325.8344 362.0685,323.8686 347.7635,319.3226"/>
    <polyline points="336.0,328.867 337.3775,331.0974 342.1526,334.4591 360.0593,343.3662 369.0497,325.9535 368.0189,323.2184 348.1163,316.8936 336.0,316.499"/>
    <polyline points="336.0,333.5713 340.8281,336.9704 363.7711,348.3825 375.29,326.0725 373.9693,322.5682 348.4691,314.4645 336.0,314.0584"/>
    <polygon points="662.9793,430.0481 662.2244,431.8565 664.6753,432.524 665.7535,429.9042 664.6963,429.1696"/>
    <polygon points="661.3496,429.0696 659.2358,434.133 666.0984,436.002 669.1174,428.6666 666.1573,426.6096"/>
    <polygon points="659.7199,428.091 656.2473,436.4096 667.5214,439.48 672.4812,427.4291 667.6183,424.0497"/>
    <polygon points="658.0902,427.1125 653.2587,438.6861 668.9445,442.958 675.8451,426.1915 669.0792,421.4898"/>
    <polygon points="656.4604,426.1339 650.2702,440.9627 670.3676,446.4361 679.209,424.9539 670.5402,418.9299"/>
    <polygon points="601.4813,423.2555 605.2429,419.7223 605.4302,421.6349 602.6633,424.6037"/>
    <polygon points="598.28,424.6254 608.8125,414.7327 609.3369,420.0878 601.5895,428.4006"/>
    <polygon points="595.0788,425.9954 612.3821,409.743 613.2436,418.5408 600.5158,432.1974"/>
    <polygon points="591.8775,427.3653 615.9516,404.7534 617.1503,416.9937 599.442,435.9942"/>
    <polygon points="588.6762,428.7352 619.5212,399.7637 621.057,415.4466 598.3683,439.7911"/>
    <polygon points="502.1457,305.0919 503.2913,305.4946 503.7375,304.1523 504.4104,301.303 503.1924,300.9363 501.7355,301.7141 501.3314,303.2318"/>
    <polygon points="501.0602,308.1788 504.268,309.3064 505.5174,305.5479 507.4013,297.5698 503.9909,296.5431 499.9116,298.7208 498.7801,302.9704"/>
    <polygon points="499.9747,311.2656 505.2447,313.1182 507.2972,306.9434 510.3923,293.8367 504.7894,292.1499 498.0878,295.7275 496.2289,302.7091"/>
    <polygon points="498.8892,314.3524 506.2214,316.93 509.0771,308.339 513.3832,290.1035 505.588,287.7567 496.2639,292.7342 493.6777,302.4477"/>
    <polygon points="497.8038,317.4393 507.1981,320.7417 510.857,309.7346 516.3742,286.3703 506.3865,283.3635 494.4401,289.7409 491.1265,302.1864"/>
    <polygon points="716.7093,238.9857 717.6155,240.0754 717.7501,242.2906 712.985,243.6816 713.0282,243.595 715.8713,239.3572"/>
    <line x1="718.3284" x2="720.0" y1="235.3673" y2="237.3775"/>
    <polyline points="720.0,244.9837 707.9002,248.5159 708.0214,248.2735 715.982,236.4075 718.3284,235.3673"/>
    <line x1="719.9475" x2="720.0" y1="231.749" y2="231.8121"/>
    <polyline points="720.0,248.3337 702.8155,253.3502 703.0146,252.952 716.0927,233.4579 719.9475,231.749"/>
    <polyline points="720.0,251.6837 697.7308,258.1845 698.0078,257.6304 716.2033,230.5083 720.0,228.8251"/>
    <polyline points="720.0,255.0337 692.6461,263.0188 693.001,262.3089 716.314,227.5586 720.0,225.9246"/>
    <polygon points="616.281,342.5663 618.8529,339.5911 616.8675,336.3232 614.7381,339.5752 615.8595,342.1218"/>
    <polygon points="615.9227,346.3626 623.124,338.032 617.5651,328.8818 611.6027,337.9873 614.7427,345.1177"/>
    <polygon points="615.5645,350.1588 627.3952,336.4728 618.2627,321.4403 608.4672,336.3995 613.6258,348.1137"/>
    <polygon points="615.2062,353.9551 631.6664,334.9137 618.9603,313.9989 605.3318,334.8116 612.509,351.1097"/>
    <polygon points="614.848,357.7513 635.9375,333.3545 619.6579,306.5575 602.1964,333.2237 611.3921,354.1056"/>
    <polygon points="462.1915,261.849 463.5755,260.1182 468.2196,261.7112 468.9217,264.2154 467.4648,264.9931 462.6781,263.7954 462.1191,262.0763"/>
    <polygon points="457.7298,260.5405 461.605,255.6942 474.6085,260.1547 476.5744,267.1664 472.4951,269.344 459.0923,265.9904 457.5269,261.177"/>
    <polygon points="453.2682,259.232 459.6346,251.2703 480.9973,258.5981 484.227,270.1173 477.5254,273.6949 455.5065,268.1854 452.9348,260.2776"/>
    <polygon points="448.8065,257.9235 457.6641,246.8463 487.3862,257.0416 491.8797,273.0683 482.5557,278.0458 451.9206,270.3804 448.3427,259.3783"/>
    <polygon points="444.3448,256.615 455.6936,242.4223 493.775,255.485 499.5324,276.0193 487.5859,282.3967 448.3348,272.5754 443.7505,258.479"/>
    <polygon points="531.8809,331.262 531.4619,331.4163 529.9939,331.7005 528.375,329.9124 528.8212,328.5701 531.9228,329.4317"/>
    <polygon points="534.1513,332.6195 532.9781,333.0516 528.8678,333.8472 524.335,328.8406 525.5843,325.0821 534.2687,327.4945"/>
    <polygon points="536.4218,333.977 534.4943,334.6869 527.7417,335.9939 520.2949,327.7689 522.3475,321.5941 536.6146,325.5573"/>
    <polygon points="538.6922,335.3345 536.0106,336.3221 526.6155,338.1406 516.2549,326.6971 519.1106,318.1061 538.9605,323.6201"/>
    <polygon points="540.9627,336.692 537.5268,337.9574 525.4894,340.2874 512.2148,325.6253 515.8737,314.6181 541.3064,321.6829"/>
    <polygon points="707.2571,505.212 710.7846,507.1797 711.4959,506.358 707.9753,501.6019 707.4205,501.6958 705.8519,503.5436"/>
    <polygon points="705.3947,506.6727 715.2716,512.1825 717.2634,509.8816 707.4056,496.5646 705.8523,496.8275 701.4601,502.0013"/>
    <polyline points="703.5323,508.1335 719.7587,517.1853 720.0,516.9065"/>
    <polyline points="720.0,509.3109 706.8359,491.5273 704.2841,491.9592 697.0682,500.459 703.5323,508.1335"/>
    <line x1="701.67" x2="720.0" y1="509.5943" y2="519.8196"/>
    <polyline points="720.0,505.0432 706.2662,486.4899 702.7158,487.091 692.6764,498.9167 701.67,509.5943"/>
    <line x1="699.8076" x2="720.0" y1="511.055" y2="522.3192"/>
    <polyline points="720.0,500.7755 705.6965,481.4526 701.1476,482.2227 688.2846,497.3744 699.8076,511.055"/>
    <polygon points="704.2923,233.4694 701.7432,233.1695 701.4493,237.7073"/>
    <polygon points="706.7188,231.6973 699.5813,230.8577 698.7583,243.5633"/>
    <polygon points="709.1453,229.9253 697.4194,228.5458 696.0672,249.4193"/>
    <polygon points="711.5718,228.1532 695.2574,226.234 693.3762,255.2753"/>
    <polygon points="713.9982,226.3811 693.0955,223.9221 690.6852,261.1313"/>
    <polyline points="536.1086,595.0452 542.3589,594.6295 542.1201,595.0452"/>
    <polyline points="521.9633,593.661 547.3007,591.9758 545.5376,595.0452"/>
    <line x1="520.2678" x2="521.9633" y1="595.0452" y2="593.661"/>
    <polygon points="568.6078,457.8938 570.0052,463.2801 568.7398,464.5877 567.221,462.768 566.7934,461.5335 567.3826,460.2235"/>
    <polygon points="569.3526,451.9991 573.2655,467.0807 569.7223,470.7419 565.4698,465.6469 564.2724,462.1904 565.9223,458.5222"/>
    <polygon points="570.0975,446.1044 576.5258,470.8813 570.7049,476.8962 563.7185,468.5259 561.7514,462.8472 564.462,456.821"/>
    <polygon points="570.8424,440.2098 579.786,474.6819 571.6874,483.0504 561.9673,471.4048 559.2304,463.504 563.0017,455.1197"/>
    <polygon points="571.5873,434.3151 583.0463,478.4825 572.6699,489.2047 560.216,474.2837 556.7094,464.1608 561.5413,453.4185"/>
    <polygon points="647.0761,405.3609 644.0783,401.4056 644.088,401.3106 646.1751,401.0488 648.7931,404.4824"/>
    <polygon points="648.627,409.3198 640.2333,398.245 640.2604,397.9788 646.1043,397.2459 653.4347,406.8599"/>
    <polygon points="650.1779,413.2787 636.3882,395.0844 636.4328,394.6471 646.0334,393.4429 658.0763,409.2374"/>
    <polygon points="651.7289,417.2376 632.5432,391.9238 632.6052,391.3154 645.9626,389.64 662.718,411.6149"/>
    <polygon points="653.2798,421.1965 628.6982,388.7631 628.7776,387.9836 645.8918,385.837 667.3596,413.9924"/>
    <polygon points="369.631,235.225 368.9756,234.1381 367.3248,233.4491 366.4885,233.2462 365.9917,233.7672 367.7373,237.7221 369.5491,237.0209"/>
    <polygon points="372.2678,235.6765 370.4328,232.6331 365.8104,230.7038 363.4687,230.1358 362.0776,231.5945 366.9654,242.6682 372.0385,240.7051"/>
    <polygon points="374.9045,236.128 371.8899,231.1281 364.296,227.9586 360.449,227.0254 358.1636,229.4219 366.1935,247.6144 374.5278,244.3892"/>
    <polygon points="377.5413,236.5795 373.3471,229.6231 362.7816,225.2133 357.4293,223.915 354.2496,227.2492 365.4216,252.5605 377.0172,248.0733"/>
    <polyline points="380.1781,237.031 374.8042,228.1182 361.2672,222.4681 355.0289,220.9548"/>
    <polyline points="354.2662,220.9548 350.3356,225.0766 364.6497,257.5067 379.5066,251.7574 380.1781,237.031"/>
    <polyline points="431.8055,220.9548 430.9082,222.0771 429.6333,220.9548"/>
    <polyline points="437.184,220.9548 436.5784,223.8767 432.7032,228.723 423.8783,220.9548"/>
    <line x1="419.749" x2="419.6175" y1="222.3859" y2="220.9548"/>
    <polyline points="442.2021,220.9548 440.8646,227.4071 434.4981,235.3688 419.749,222.3859"/>
    <line x1="415.7726" x2="415.4972" y1="223.9515" y2="220.9548"/>
    <polyline points="447.2201,220.9548 445.1508,230.9375 436.2931,242.0147 415.7726,223.9515"/>
    <line x1="411.7962" x2="411.3769" y1="225.5171" y2="220.9548"/>
    <polyline points="452.2382,220.9548 449.4369,234.4679 438.0881,248.6606 411.7962,225.5171"/>
    <line x1="635.0127" x2="634.721" y1="594.7038" y2="595.0452"/>
    <polyline points="630.2925,595.0452 629.15,593.9477 631.5212,590.745 634.9717,591.2434 635.0127,594.7038"/>
    <polyline points="623.0699,595.0452 622.3527,594.3563 628.9921,585.3888 638.6537,586.7842 638.7515,595.0452"/>
    <polyline points="615.8472,595.0452 615.5555,594.765 626.463,580.0327 642.3356,582.3251 642.4863,595.0452"/>
    <polyline points="608.8534,595.0452 623.9339,574.6765 646.0175,577.8659 646.2211,595.0452"/>
    <polyline points="602.3587,595.0452 621.4048,569.3203 649.6995,573.4068 649.9558,595.0452"/>
    <polygon points="668.8922,542.604 667.2012,540.0948 668.3015,538.5312 669.5166,538.2186 672.8813,542.001 672.0955,542.8898 671.3059,543.0249"/>
    <polygon points="667.1037,545.0484 662.3689,538.0225 665.4497,533.6446 668.852,532.7692 678.2732,543.3599 676.073,545.8485 673.8621,546.2269"/>
    <polygon points="665.3153,547.4927 657.5367,535.9502 662.5979,528.7579 668.1874,527.3198 683.6651,544.7189 680.0505,548.8072 676.4183,549.4289"/>
    <polygon points="663.5268,549.9371 652.7044,533.8779 659.7461,523.8713 667.5228,521.8704 689.0571,546.0778 684.028,551.7659 678.9745,552.6309"/>
    <polygon points="661.7383,552.3814 647.8721,531.8056 656.8943,518.9847 666.8581,516.4209 694.449,547.4367 688.0054,554.7246 681.5306,555.8329"/>
    <polygon points="404.5788,488.1331 402.1162,488.9393 401.0852,488.6657 399.367,484.2417 399.4054,483.3772 400.6981,482.5747 401.132,482.592 403.817,484.3022 405.1337,487.6791"/>
    <polygon points="408.8764,492.2178 401.9811,494.4752 399.0943,493.7092 394.2833,481.322 394.3911,478.9013 398.0105,476.6543 399.2253,476.7027 406.7433,481.4912 410.4302,490.9467"/>
    <polygon points="413.1741,496.3025 401.846,500.0111 397.1035,498.7526 389.1997,478.4022 389.3767,474.4254 395.3229,470.7339 397.3187,470.8134 409.6697,478.6803 415.7267,494.2142"/>
    <polygon points="417.4717,500.3872 401.7109,505.547 395.1127,503.7961 384.1161,475.4825 384.3623,469.9494 392.6353,464.8136 395.412,464.9241 412.596,475.8693 421.0232,497.4818"/>
    <polygon points="421.7694,504.4719 401.5759,511.0829 393.1218,508.8395 379.0324,472.5627 379.3479,465.4735 389.9477,458.8932 393.5054,459.0348 415.5224,473.0584 426.3197,500.7493"/>
    <polygon points="467.6931,431.9746 467.67,431.9559 466.5205,431.5129 464.8634,433.4081 465.3291,434.0368 466.326,434.7198 466.8419,434.7346"/>
    <polygon points="469.6298,430.0574 469.5652,430.0051 466.3465,428.7648 461.7067,434.0713 463.0106,435.8316 465.8021,437.744 467.2464,437.7854"/>
    <polygon points="471.5665,428.1402 471.4604,428.0543 466.1726,426.0168 458.55,434.7345 460.6921,437.6265 465.2781,440.7682 467.6509,440.8363"/>
    <polygon points="473.5032,426.2231 473.3556,426.1036 465.9986,423.2687 455.3933,435.3977 458.3737,439.4214 464.7542,443.7925 468.0555,443.8872"/>
    <polygon points="475.4399,424.3059 475.2508,424.1528 465.8246,420.5206 452.2365,436.0609 456.0552,441.2162 464.2302,446.8167 468.46,446.9381"/>
    <polygon points="713.1983,306.6309 711.8864,306.7423 709.455,303.3785 709.4808,302.376 712.057,303.1367 713.2762,306.4196"/>
    <polygon points="715.7276,309.4855 712.0543,309.7973 705.2464,300.3789 705.3185,297.5719 712.5319,299.7019 715.9457,308.894"/>
    <polygon points="718.2569,312.3402 712.2222,312.8524 701.0378,297.3793 701.1563,292.7677 713.0068,296.267 718.6152,311.3683"/>
    <polyline points="720.0,315.2615 712.39,315.9074 696.8292,294.3797 696.994,287.9635 713.4817,292.8321 720.0,310.3835"/>
    <polyline points="720.0,318.3309 712.5579,318.9625 692.6206,291.38 692.8318,283.1594 713.9567,289.3973 720.0,305.6698"/>
    <polygon points="426.8726,550.4384 424.267,550.2416 423.641,552.8461 424.5998,553.7047 427.5638,550.9148"/>
    <polygon points="429.0981,548.6523 421.8025,548.1013 420.0498,555.394 422.7345,557.798 431.0337,549.9861"/>
    <polygon points="431.3237,546.8663 419.338,545.9609 416.4586,557.9418 420.8691,561.8913 434.5035,549.0575"/>
    <polygon points="433.5493,545.0802 416.8735,543.8206 412.8674,560.4897 419.0038,565.9845 437.9734,548.1289"/>
    <polygon points="435.7749,543.2941 414.4091,541.6802 409.2762,563.0375 417.1385,570.0778 441.4432,547.2002"/>
    <polygon points="594.217,373.651 595.2407,375.944 589.2255,377.0666 588.8798,376.8362 588.8811,376.1283 591.2589,373.4834 593.7955,373.2064"/>
    <polygon points="598.2715,371.2303 601.1379,377.6506 584.2955,380.7939 583.3275,380.1488 583.3311,378.1666 589.9889,370.7609 597.0915,369.9855"/>
    <polygon points="602.3261,368.8096 607.0352,379.3572 579.3655,384.5212 577.7751,383.4613 577.7811,380.205 588.7189,368.0384 600.3874,366.7645"/>
    <polygon points="606.3806,366.3889 612.9325,381.0638 574.4355,388.2485 572.2228,386.7739 572.2311,382.2433 587.449,365.3159 603.6834,363.5435"/>
    <polygon points="610.4352,363.9682 618.8297,382.7705 569.5055,391.9757 566.6705,390.0865 566.6811,384.2817 586.179,362.5935 606.9793,360.3226"/>
    <polygon points="440.9384,489.3076 439.7632,489.393 438.4464,486.0161 440.0593,485.852 442.1532,486.9257 442.3799,487.575"/>
    <polygon points="441.4244,492.0786 438.1338,492.3178 434.4469,482.8623 438.9629,482.403 444.8258,485.4094 445.4607,487.2274"/>
    <polygon points="441.9103,494.8496 436.5044,495.2426 430.4474,479.7086 437.8666,478.954 447.4983,483.893 448.5414,486.8798"/>
    <polygon points="442.3963,497.6205 434.875,498.1673 426.4478,476.5549 436.7702,475.505 450.1709,482.3767 451.6222,486.5322"/>
    <polygon points="442.8823,500.3915 433.2456,501.0921 422.4483,473.4011 435.6738,472.0559 452.8435,480.8603 454.703,486.1845"/>
    <polygon points="402.0641,431.6416 401.6302,431.6244 401.7399,427.6842 402.5838,426.454 406.1079,426.2762 406.3982,429.4442"/>
    <polygon points="399.971,435.9424 398.7562,435.894 399.0633,424.8616 401.4263,421.417 411.2937,420.9192 412.1066,429.7895"/>
    <polygon points="397.8779,440.2432 395.8821,440.1637 396.3867,422.039 400.2688,416.38 416.4794,415.5621 417.8151,430.1349"/>
    <polygon points="395.7849,444.544 393.0081,444.4334 393.7101,419.2165 399.1113,411.3431 421.6652,410.2051 423.5235,430.4802"/>
    <polygon points="393.6918,448.8447 390.1341,448.7031 391.0335,416.3939 397.9539,406.3061 426.851,404.8481 429.2319,430.8256"/>
    <polygon points="395.1693,580.0804 395.1938,580.1453 394.6367,581.2086 391.2663,583.9111 389.5361,582.5618 388.9279,580.4501 392.3101,578.9735 394.2105,579.2218"/>
    <polygon points="399.1901,578.8985 399.2586,579.0802 397.6987,582.0575 388.2616,589.6244 383.4171,585.8464 381.7142,579.9337 391.1842,575.7991 396.5054,576.4945"/>
    <polyline points="403.2108,577.7167 403.3234,578.0152 400.7607,582.9064 385.6217,595.0452"/>
    <polyline points="384.8818,595.0452 377.2981,589.131 374.5005,579.4173 390.0584,572.6248 398.8003,573.7673 403.2108,577.7167"/>
    <polyline points="407.2316,576.5348 407.3883,576.9501 403.8227,583.7553 389.7424,595.0452"/>
    <polyline points="374.551,595.0452 371.1791,592.4155 367.2868,578.9008 388.9326,569.4505 401.0952,571.04 407.2316,576.5348"/>
    <polyline points="411.2524,575.3529 411.4531,575.8851 406.8847,584.6042 393.8631,595.0452"/>
    <polyline points="364.8715,595.0452 360.073,578.3844 387.8067,566.2761 403.3901,568.3127 411.2524,575.3529"/>
    <polygon points="532.5273,573.2012 534.8938,573.8394 535.9391,576.2134 535.5174,576.3861 532.4274,576.5916 531.7808,575.2082"/>
    <polygon points="530.4902,570.0557 537.1164,571.8425 540.0432,578.4898 538.8624,578.9733 530.2106,579.5487 528.3999,575.6752"/>
    <polygon points="528.4532,566.9102 539.3391,569.8457 544.1473,580.7662 542.2074,581.5605 527.9937,582.5058 525.0191,576.1422"/>
    <polygon points="526.4161,563.7647 541.5617,567.8489 548.2515,583.0426 545.5525,584.1478 525.7769,585.463 521.6382,576.6093"/>
    <polygon points="524.3791,560.6193 543.7843,565.852 552.3556,585.319 548.8975,586.735 523.5601,588.4201 518.2574,577.0763"/>
    <polyline points="464.5366,595.0452 464.54,594.7606 468.8361,592.1298 469.7251,593.1628 469.842,595.0452"/>
    <polyline points="462.2798,595.0452 462.3041,592.9993 469.362,588.6772 470.8225,590.3744 471.1126,595.0452"/>
    <polyline points="460.023,595.0452 460.0682,591.238 469.8879,585.2246 471.9199,587.5859 472.3832,595.0452"/>
    <polyline points="457.7661,595.0452 457.8323,589.4767 470.4138,581.7721 473.0173,584.7975 473.6538,595.0452"/>
    <polygon points="639.622,419.4169 638.8671,421.2252 637.7064,421.2642 636.6353,418.2913 636.448,416.3787 636.6243,415.4616"/>
    <polygon points="642.6638,420.5646 640.55,425.628 637.3,425.7371 634.301,417.4129 633.7766,412.0578 634.27,409.4898"/>
    <polygon points="645.7055,421.7123 642.2329,430.0308 636.8935,430.21 631.9667,416.5346 631.1051,407.7368 631.9158,403.5179"/>
    <polygon points="648.7473,422.86 643.9158,434.4336 636.4871,434.6828 629.6324,415.6562 628.4337,403.4159 629.5616,397.5461"/>
    <polygon points="651.789,424.0077 645.5987,438.8364 636.0807,439.1557 627.2981,414.7779 625.7622,399.095 627.2074,391.5743"/>
    <polygon points="678.8187,344.7646 677.076,341.5566 677.1767,340.7398 678.8907,339.3027 680.7503,341.5986 679.0671,344.6787 678.8413,344.7657"/>
    <polygon points="679.0686,348.3523 674.1888,339.37 674.4708,337.0828 679.2702,333.0589 684.4771,339.4875 679.764,348.1119 679.1316,348.3554"/>
    <polygon points="679.3184,351.9401 671.3016,337.1834 671.7649,333.4258 679.6496,326.8152 688.2038,337.3764 680.4609,351.545 679.422,351.9451"/>
    <polygon points="679.5683,355.5278 668.4145,334.9969 669.059,329.7689 680.029,320.5715 691.9305,335.2653 681.1578,354.9782 679.7123,355.5348"/>
    <polygon points="679.8181,359.1156 665.5273,332.8103 666.3532,326.1119 680.4084,314.3277 695.6572,333.1542 681.8547,358.4114 680.0027,359.1245"/>
    <polyline points="370.4754,220.9548 376.8086,223.5982 378.9639,220.9548"/>
    <polyline points="336.0,515.2574 336.9662,509.5569 336.0,509.3741"/>
    <polyline points="336.3407,530.0111 340.3964,506.0818 336.0,505.25"/>
    <line x1="336.0" x2="336.3407" y1="530.3451" y2="530.0111"/>
    <polyline points="338.6304,533.2661 343.8267,502.6067 336.0,501.1258"/>
    <line x1="336.0" x2="338.6304" y1="535.8445" y2="533.2661"/>
    <polygon points="339.1555,297.7173 340.397,295.0904 342.1268,294.6101 344.7129,296.8976 341.7284,298.4968 339.3056,298.4179"/>
    <polyline points="336.0,298.9013 339.4192,291.6668 344.2627,290.3217 351.5036,296.7268 343.1471,301.2045 336.3631,300.9836 336.0,299.2883"/>
    <polyline points="336.0,293.4087 338.4414,288.2431 346.3985,286.0334 358.2943,296.5561 344.5658,303.9123 336.0,303.6333"/>
    <polyline points="336.0,287.9162 337.4636,284.8194 348.5343,281.7451 365.0851,296.3853 345.9845,306.62 336.0,306.2948"/>
    <polyline points="336.0,282.4237 336.4858,281.3958 350.6702,277.4567 371.8758,296.2145 347.4032,309.3277 336.0,308.9564"/>
    <polygon points="452.4029,455.3876 450.4869,457.9472 452.5808,459.0209 453.3998,456.0706"/>
    <polygon points="452.6696,452.9123 447.305,460.0792 453.1679,463.0855 455.4611,454.8247"/>
    <polygon points="452.9364,450.437 444.1231,462.2111 453.7549,467.1502 457.5224,453.5788"/>
    <polygon points="453.2032,447.9617 440.9412,464.343 454.342,471.2148 459.5837,452.3328"/>
    <polygon points="453.47,445.4864 437.7593,466.475 454.9291,475.2794 461.645,451.0869"/>
    <polyline points="336.0,382.1494 338.5136,379.4109 336.0,376.9304"/>
    <polyline points="336.0,388.3186 342.6965,381.0231 336.0,374.4148"/>
    <polyline points="336.0,394.4878 346.8793,382.6353 336.0,371.8991"/>
    <polygon points="560.4045,240.9668 556.5433,236.4207 558.4291,232.1616 561.8167,234.1081 561.9537,238.5082 560.5747,240.8929"/>
    <polygon points="561.1,246.8148 550.2887,234.0859 555.5691,222.1602 565.0541,227.6105 565.4379,239.9308 561.5767,246.6079"/>
    <polyline points="561.7955,252.6628 544.0341,231.7511 548.8144,220.9548"/>
    <polyline points="568.0165,220.9548 568.2916,221.1129 568.922,241.3534 562.5786,252.323 561.7955,252.6628"/>
    <polyline points="562.491,258.5108 537.7795,229.4163 541.526,220.9548"/>
    <polyline points="571.7266,220.9548 572.4062,242.7761 563.5806,258.0381 562.491,258.5108"/>
    <polyline points="563.1866,264.3589 531.5248,227.0814 534.2376,220.9548"/>
    <polyline points="575.1664,220.9548 575.8903,244.1987 564.5826,263.7531 563.1866,264.3589"/>
    <polygon points="528.7417,533.4671 532.2685,533.1354 531.0213,538.1338 528.6548,537.4957 528.0611,536.8639 528.0044,534.3683"/>
    <polygon points="527.6355,530.2113 537.5106,529.2825 534.0184,543.2781 527.3922,541.4913 525.7299,539.7222 525.5711,532.7347"/>
    <polygon points="526.5294,526.9554 542.7527,525.4295 537.0155,548.4224 526.1297,545.4869 523.3987,542.5806 523.1379,531.1011"/>
    <polygon points="525.4233,523.6996 547.9948,521.5766 540.0127,553.5666 524.8671,549.4825 521.0675,545.439 520.7046,529.4674"/>
    <polygon points="524.3172,520.4438 553.2369,517.7236 543.0098,558.7109 523.6046,553.4781 518.7363,548.2973 518.2713,527.8338"/>
    <polyline points="519.4392,220.9548 517.3882,221.7864 515.4218,220.9548"/>
    <polygon points="583.3883,441.9535 584.667,442.228 585.849,443.5763 586.6452,445.8085 584.7502,447.4458 583.3527,442.0596"/>
    <polygon points="581.2481,439.0347 584.8286,439.8035 588.1381,443.5786 590.3676,449.8287 585.0615,454.4133 581.1486,439.3317"/>
    <polygon points="579.108,436.1159 584.9902,437.3789 590.4272,443.581 594.0899,453.8488 585.3727,461.3807 578.9445,436.6039"/>
    <polygon points="576.9679,433.1971 585.1518,434.9543 592.7163,443.5833 597.8123,457.869 585.684,468.3482 576.7404,433.8761"/>
    <polygon points="574.8278,430.2784 585.3133,432.5298 595.0054,443.5856 601.5346,461.8892 585.9953,475.3156 574.5363,431.1482"/>
    <polygon points="477.5661,465.1626 476.6113,468.6016 473.6306,468.2558 473.4038,467.6065 474.2228,464.6562 474.7386,464.671"/>
    <polygon points="481.4806,463.1111 478.8074,472.7404 470.4612,471.772 469.8263,469.954 472.1195,461.6931 473.5638,461.7346"/>
    <polygon points="485.3951,461.0595 481.0034,476.8792 467.2918,475.2882 466.2487,472.3015 470.0162,458.7301 472.389,458.7982"/>
    <polygon points="489.3096,459.008 483.1994,481.018 464.1225,478.8045 462.6712,474.649 467.9129,455.767 471.2142,455.8618"/>
    <polygon points="493.2241,456.9565 485.3955,485.1568 460.9531,482.3207 459.0937,476.9965 465.8096,452.804 470.0394,452.9254"/>
    <polyline points="452.8108,595.0452 452.8478,591.9326 440.4618,592.371 439.0872,595.0452"/>
    <polygon points="401.4376,349.4507 397.5589,351.0762 395.6857,350.3906 395.3153,349.5618 396.7201,346.841 400.6996,347.177"/>
    <polygon points="406.8911,350.0181 396.0307,354.5696 390.786,352.65 389.7488,350.3292 393.6821,342.7111 404.8249,343.6518"/>
    <polygon points="412.3446,350.5855 394.5026,358.063 385.8862,354.9094 384.1823,351.0966 390.6442,338.5812 408.9502,340.1266"/>
    <polygon points="417.7981,351.1529 392.9745,361.5565 380.9865,357.1688 378.6158,351.864 387.6062,334.4513 413.0754,336.6014"/>
    <polygon points="423.2517,351.7204 391.4463,365.0499 376.0868,359.4282 373.0493,352.6315 384.5683,330.3214 417.2007,333.0762"/>
    <polygon points="534.0283,305.0439 534.2118,301.4486 531.5996,301.333 530.9267,304.1823"/>
    <polygon points="535.9531,307.9843 536.4671,297.9175 529.1527,297.5939 527.2687,305.5719"/>
    <polygon points="537.8779,310.9246 538.7223,294.3863 526.7058,293.8547 523.6108,306.9615"/>
    <polygon points="539.8027,313.865 540.9776,290.8552 524.2589,290.1155 519.9528,308.351"/>
    <polygon points="541.7275,316.8054 543.2328,287.3241 521.812,286.3763 516.2948,309.7406"/>
    <polygon points="464.0376,297.3758 462.728,296.3593 463.2585,294.2377 468.0452,295.4355 467.6411,296.9532 467.4576,297.0681"/>
    <polygon points="461.7382,299.1309 458.0712,296.2846 459.5566,290.3443 472.9594,293.6979 471.8279,297.9476 471.3142,298.2693"/>
    <polygon points="459.4388,300.886 453.4144,296.21 455.8547,286.4508 477.8736,291.9603 476.0148,298.9419 475.1707,299.4706"/>
    <polygon points="457.1394,302.6411 448.7576,296.1353 452.1528,282.5573 482.7878,290.2227 480.2016,299.9363 479.0273,300.6718"/>
    <polygon points="454.8399,304.3961 444.1008,296.0606 448.4509,278.6638 487.702,288.4852 484.3884,300.9306 482.8839,301.873"/>
    <polygon points="390.5701,224.9531 389.9147,223.8661 391.5832,221.8198 392.8819,221.8603 393.0706,223.9131"/>
    <polyline points="389.019,227.4589 387.1841,224.4155 390.0058,220.9548"/>
    <polyline points="395.6903,220.9548 396.0204,224.547 389.019,227.4589"/>
    <polyline points="387.468,229.9648 384.4534,224.9649 387.7231,220.9548"/>
    <polyline points="398.5819,220.9548 398.9702,225.1809 387.468,229.9648"/>
    <polyline points="385.917,232.4707 381.7227,225.5144 385.4404,220.9548"/>
    <polyline points="401.4735,220.9548 401.9201,225.8148 385.917,232.4707"/>
    <polyline points="384.3659,234.9766 378.992,226.0638 383.1577,220.9548"/>
    <polyline points="404.3651,220.9548 404.8699,226.4487 384.3659,234.9766"/>
    <polygon points="655.8041,490.813 658.4264,493.2051 656.9389,494.5337 655.7238,494.8464 654.6272,493.3227 654.0497,491.417"/>
    <polygon points="655.6123,487.4034 662.9549,494.1013 658.7898,497.8213 655.3875,498.6967 652.317,494.4305 650.7002,489.0944"/>
    <polygon points="655.4206,483.9938 667.4834,494.9974 660.6407,501.1088 655.0513,502.547 650.0069,495.5383 647.3506,486.7718"/>
    <polygon points="655.2288,480.5842 672.0119,495.8936 662.4917,504.3964 654.715,506.3974 647.6967,496.646 644.0011,484.4492"/>
    <polygon points="655.0371,477.1746 676.5404,496.7897 664.3426,507.684 654.3788,510.2477 645.3866,497.7538 640.6515,482.1266"/>
    <polygon points="435.7318,448.7762 433.8158,451.3357 432.203,451.4998 429.518,449.7896 433.8521,447.5921 435.2661,448.1475"/>
    <polygon points="439.3328,447.6232 433.9682,454.79 429.4521,455.2493 421.9341,450.4608 434.0698,444.3079 438.0288,445.8628"/>
    <polygon points="442.9338,446.4701 434.1205,458.2442 426.7013,458.9988 414.3503,451.132 434.2874,441.0237 440.7916,443.5781"/>
    <polygon points="446.5347,445.3171 434.2728,461.6985 423.9504,462.7484 406.7664,451.8031 434.5051,437.7394 443.5543,441.2935"/>
    <polygon points="450.1357,444.1641 434.4251,465.1527 421.1996,466.4979 399.1826,452.4743 434.7227,434.4552 446.3171,439.0088"/>
    <polygon points="402.9255,317.0726 398.9459,316.7367 398.7848,316.3093 399.1826,313.9551 400.0309,313.5581 403.3717,315.0984"/>
    <polygon points="406.6056,319.5683 395.4628,318.6276 395.0118,317.4311 396.1254,310.8393 398.5007,309.7277 407.855,314.0405"/>
    <polygon points="410.2857,322.064 391.9797,320.5186 391.2388,318.5528 393.0683,307.7235 396.9705,305.8973 412.3383,312.9826"/>
    <polygon points="413.9658,324.5597 388.4966,322.4096 387.4658,319.6745 390.0111,304.6077 395.4403,302.067 416.8215,311.9247"/>
    <polygon points="417.6459,327.0553 385.0135,324.3006 383.6927,320.7963 386.954,301.492 393.9101,298.2366 421.3048,310.8668"/>
    <polygon points="556.2658,304.261 554.6195,305.3879 554.4359,308.9832 554.394,310.8136 554.7124,310.9503 558.7453,309.8545"/>
    <polygon points="557.4029,297.9136 552.7932,301.0689 552.2792,311.1357 552.1618,316.2608 553.0534,316.6436 564.3453,313.5753"/>
    <polygon points="558.5399,291.5662 550.9669,296.7499 550.1225,313.2882 549.9297,321.7079 551.3944,322.3369 569.9454,317.2961"/>
    <polygon points="559.677,285.2188 549.1406,292.4309 547.9657,315.4407 547.6975,327.1551 549.7354,328.0302 575.5455,321.017"/>
    <polygon points="560.814,278.8714 547.3144,288.1119 545.809,317.5932 545.4653,332.6023 548.0764,333.7235 581.1456,324.7378"/>
    <polygon points="690.5961,517.5252 690.9585,521.0992 690.7856,521.1532 687.4209,517.3708 688.9084,516.0422 689.1908,515.8568"/>
    <polygon points="692.0659,516.5233 693.0808,526.5305 692.5967,526.6817 683.1754,516.0909 687.3405,512.3709 688.1312,511.8519"/>
    <polygon points="693.5357,515.5214 695.2031,531.9618 694.4077,532.2102 678.9299,514.8111 685.7726,508.6996 687.0716,507.8469"/>
    <polygon points="695.0055,514.5196 697.3253,537.3931 696.2188,537.7387 674.6845,513.5312 684.2047,505.0284 686.012,503.842"/>
    <polygon points="696.4754,513.5177 699.4476,542.8244 698.0299,543.2671 670.439,512.2514 682.6368,501.3571 684.9524,499.837"/>
    <polygon points="443.8655,519.7986 445.547,523.5638 443.4933,523.5304 442.8021,523.054 441.6087,519.7589 442.1637,519.3049 443.3389,519.2195"/>
    <polygon points="444.8194,517.6296 449.5275,528.1722 443.7773,528.0786 441.8418,526.7448 438.5004,517.5184 440.0542,516.2473 443.3447,516.0081"/>
    <polygon points="445.7733,515.4606 453.5081,532.7806 444.0612,532.6269 440.8814,530.4356 435.3921,515.278 437.9447,513.1897 443.3506,512.7967"/>
    <polygon points="446.7272,513.2916 457.4886,537.389 444.3452,537.1751 439.9211,534.1264 432.2837,513.0375 435.8352,510.1321 443.3565,509.5853"/>
    <polygon points="447.6811,511.1226 461.4691,541.9975 444.6292,541.7233 438.9608,537.8172 429.1754,510.7971 433.7257,507.0745 443.3624,506.3739"/>
    <polygon points="544.4042,412.1335 544.1803,410.6564 543.8345,410.426 541.2235,410.6749 539.3361,411.2514 539.1884,414.3016 540.163,414.6865 540.4929,414.5969"/>
    <polygon points="548.8864,411.8018 548.2593,407.6657 547.2912,407.0206 539.9805,407.7175 534.6956,409.3317 534.2822,417.8723 537.0109,418.95 537.9346,418.6993"/>
    <polygon points="553.3685,411.47 552.3384,404.675 550.748,403.6152 538.7374,404.7602 530.0551,407.4121 529.3759,421.443 533.8589,423.2135 535.3764,422.8016"/>
    <polygon points="557.8507,411.1382 556.4174,401.6844 554.2047,400.2098 537.4943,401.8029 525.4146,405.4925 524.4697,425.0138 530.7068,427.477 532.8182,426.9039"/>
    <polygon points="562.3329,410.8064 560.4965,398.6937 557.6614,396.8045 536.2512,398.8455 520.7741,403.5728 519.5634,428.5845 527.5548,431.7406 530.2599,431.0062"/>
    <polyline points="336.0,341.187 337.6205,342.3279 336.0,356.6057"/>
    <polyline points="720.0,416.3295 718.8621,416.5438 716.915,420.0471 720.0,422.8795"/>
    <polyline points="720.0,413.1209 714.174,414.2178 710.9751,419.9733 720.0,428.259"/>
    <polyline points="720.0,409.9123 709.4859,411.8918 705.0353,419.8995 720.0,433.6384"/>
    <polyline points="720.0,406.7036 704.7978,409.5658 699.0954,419.8256 720.0,439.0179"/>
    <polyline points="720.0,296.2305 717.2543,288.8373 720.0,288.1991"/>
    <polygon points="384.596,392.5076 383.7521,393.7379 383.4507,393.5839 380.345,390.6174 382.0351,388.5495 383.9082,389.2351"/>
    <polygon points="387.0361,394.2599 384.6731,397.7045 383.8291,397.2736 375.1331,388.9672 379.8655,383.1771 385.1102,385.0967"/>
    <polygon points="389.4762,396.0122 385.594,401.6712 384.2075,400.9632 369.9212,387.317 377.6959,377.8047 386.3122,380.9583"/>
    <polygon points="391.9162,397.7645 386.515,405.6379 384.5859,404.6529 364.7093,385.6668 375.5262,372.4324 387.5142,376.82"/>
    <polygon points="394.3563,399.5168 387.4359,409.6046 384.9643,408.3425 359.4975,384.0166 373.3566,367.06 388.7162,372.6816"/>
  </g>
</svg>
