<?xml version="1.0" encoding="utf-8" standalone="no"?>
<!DOCTYPE svg PUBLIC "-//W3C//DTD SVG 1.1//EN"
  "http://www.w3.org/Graphics/SVG/1.1/DTD/svg11.dtd">
<svg height="543.6pt" version="1.1" viewBox="0 0 558 543.6" width="558pt" xmlns="http://www.w3.org/2000/svg" xmlns:xlink="http://www.w3.org/1999/xlink">
 <metadata>
  <rdf:RDF xmlns:cc="http://creativecommons.org/ns#" xmlns:dc="http://purl.org/dc/elements/1.1/" xmlns:rdf="http://www.w3.org/1999/02/22-rdf-syntax-ns#">
   <cc:Work>
    <dc:type rdf:resource="http://purl.org/dc/dcmitype/StillImage"/>
    <dc:date>2021-07-23T18:53:17.707759</dc:date>
    <dc:format>image/svg+xml</dc:format>
    <dc:creator>
     <cc:Agent>
      <dc:title>Matplotlib v3.4.2, https://matplotlib.org/</dc:title>
     </cc:Agent>
    </dc:creator>
   </cc:Work>
  </rdf:RDF>
 </metadata>
 <defs>
  <style type="text/css">*{stroke-linecap:butt;stroke-linejoin:round;}</style>
 </defs>
 <g id="figure_1">
  <g id="patch_1">
   <path d="M 0 543.6 
L 558 543.6 
L 558 0 
L 0 0 
z
" style="fill:none;"/>
  </g>
  <g id="axes_1">
   <g id="PatchCollection_1">
    <path clip-path="url(#p1e854c0797)" d="M 169.751695 507.521022 
C 206.747528 507.521022 242.233087 493.201741 268.393091 467.716833 
C 294.553095 442.231926 309.251695 407.662123 309.251695 371.621022 
C 309.251695 335.579921 294.553095 301.010117 268.393091 275.52521 
C 242.233087 250.040303 206.747528 235.721022 169.751695 235.721022 
C 132.755863 235.721022 97.270303 250.040303 71.110299 275.52521 
C 44.950295 301.010117 30.251695 335.579921 30.251695 371.621022 
C 30.251695 407.662123 44.950295 442.231926 71.110299 467.716833 
C 97.270303 493.201741 132.755863 507.521022 169.751695 507.521022 
z
" style="fill:none;stroke:#0000ff;"/>
    <path clip-path="url(#p1e854c0797)" d="M 363.002728 249.225844 
C 370.401894 249.225844 377.499006 246.361987 382.731007 241.265006 
C 387.963008 236.168025 390.902728 229.254064 390.902728 222.045844 
C 390.902728 214.837623 387.963008 207.923663 382.731007 202.826681 
C 377.499006 197.7297 370.401894 194.865844 363.002728 194.865844 
C 355.603561 194.865844 348.50645 197.7297 343.274449 202.826681 
C 338.042448 207.923663 335.102728 214.837623 335.102728 222.045844 
C 335.102728 229.254064 338.042448 236.168025 343.274449 241.265006 
C 348.50645 246.361987 355.603561 249.225844 363.002728 249.225844 
z
" style="fill:none;stroke:#0000ff;"/>
    <path clip-path="url(#p1e854c0797)" d="M 274.314568 423.396321 
C 311.310401 423.396321 346.79596 409.07704 372.955964 383.592133 
C 399.115968 358.107226 413.814568 323.537423 413.814568 287.496321 
C 413.814568 251.45522 399.115968 216.885417 372.955964 191.40051 
C 346.79596 165.915603 311.310401 151.596321 274.314568 151.596321 
C 237.318736 151.596321 201.833176 165.915603 175.673172 191.40051 
C 149.513168 216.885417 134.814568 251.45522 134.814568 287.496321 
C 134.814568 323.537423 149.513168 358.107226 175.673172 383.592133 
C 201.833176 409.07704 237.318736 423.396321 274.314568 423.396321 
z
" style="fill:none;stroke:#0000ff;"/>
   </g>
  </g>
 </g>
 <defs>
  <clipPath id="p1e854c0797">
   <rect height="543.6" width="558" x="0" y="0"/>
  </clipPath>
 </defs>
</svg>
