<?xml version="1.0" encoding="utf-8" ?>
<svg xmlns="http://www.w3.org/2000/svg" xmlns:cc="http://creativecommons.org/ns#" xmlns:dc="http://purl.org/dc/elements/1.1/" xmlns:ev="http://www.w3.org/2001/xml-events" xmlns:inkscape="http://www.inkscape.org/namespaces/inkscape" xmlns:rdf="http://www.w3.org/1999/02/22-rdf-syntax-ns#" xmlns:sodipodi="http://sodipodi.sourceforge.net/DTD/sodipodi-0.dtd" xmlns:xlink="http://www.w3.org/1999/xlink" baseProfile="tiny" height="21.59cm" version="1.2" viewBox="0 0 1056.0 816.0000000000001" width="27.94cm">
  <metadata>
    <rdf:RDF>
      <cc:Work>
        <dc:format>image/svg+xml</dc:format>
        <dc:source>vpype read art.svg scaleto 3in 3in layout --landscape letter write art-scaled.svg
</dc:source>
        <dc:date>2021-07-27T17:10:50.684743</dc:date>
      </cc:Work>
    </rdf:RDF>
  </metadata>
  <defs/>
  <g fill="none" id="layer1" inkscape:groupmode="layer" inkscape:label="1" stroke="#00f" style="display:inline">
    <polygon points="384.0,548.2839 672.0,548.2839 672.0,267.7161 384.0,267.7161"/>
    <line x1="669.2015" x2="672.0" y1="486.9703" y2="483.611"/>
    <line x1="672.0" x2="669.2015" y1="491.6289" y2="486.9703"/>
    <polygon points="535.4701,273.2924 520.3553,304.6334 548.0878,321.5921 568.2623,301.6447 545.9707,273.1248"/>
    <polygon points="568.2623,301.6447 589.4602,307.0254 581.7981,326.68 561.885,342.5814 550.5719,332.911 548.0878,321.5921"/>
    <line x1="535.4701" x2="529.8057" y1="273.2924" y2="267.7161"/>
    <polyline points="553.8642,267.7161 545.9707,273.1248 535.4701,273.2924"/>
    <line x1="384.0" x2="400.6589" y1="546.7429" y2="548.2839"/>
    <polyline points="593.6188,305.392 589.4602,307.0254 568.2623,301.6447 545.9707,273.1248 553.8642,267.7161"/>
    <line x1="597.5197" x2="593.6188" y1="267.7161" y2="305.392"/>
    <polygon points="601.1497,356.5706 584.2902,329.9774 581.7981,326.68 561.885,342.5814 563.5895,353.3549 599.6065,358.2645"/>
    <polygon points="624.7576,343.7894 584.2902,329.9774 601.1497,356.5706"/>
    <polyline points="655.707,463.4516 651.7437,473.8027 669.2015,486.9703 672.0,483.611"/>
    <polyline points="672.0,453.5164 662.365,458.2852 655.707,463.4516"/>
    <line x1="633.9663" x2="630.6093" y1="516.7318" y2="548.2839"/>
    <polyline points="665.7928,548.2839 669.4173,540.1277 668.062,530.0461 654.1163,521.013 643.4118,516.4822 633.9663,516.7318"/>
    <line x1="669.4173" x2="672.0" y1="540.1277" y2="540.6517"/>
    <line x1="665.7928" x2="669.4173" y1="548.2839" y2="540.1277"/>
    <line x1="668.062" x2="672.0" y1="530.0461" y2="529.4664"/>
    <polyline points="672.0,540.6517 669.4173,540.1277 668.062,530.0461"/>
    <line x1="654.1163" x2="672.0" y1="521.013" y2="517.2378"/>
    <polyline points="672.0,529.4664 668.062,530.0461 654.1163,521.013"/>
    <line x1="643.4118" x2="672.0" y1="516.4822" y2="499.7428"/>
    <polyline points="672.0,517.2378 654.1163,521.013 643.4118,516.4822"/>
    <polyline points="633.9663,516.7318 633.4545,516.0515 635.4944,487.335 651.7437,473.8027 669.2015,486.9703 672.0,491.6289"/>
    <polyline points="672.0,499.7428 643.4118,516.4822 633.9663,516.7318"/>
    <polygon points="512.8687,309.1592 520.3553,304.6334 548.0878,321.5921 550.5719,332.911 515.3487,348.1744"/>
    <polyline points="438.9971,277.7127 451.077,285.8652 469.4836,286.065 479.7305,271.4577 477.1568,267.7161"/>
    <line x1="448.7846" x2="438.9971" y1="267.7161" y2="277.7127"/>
    <line x1="395.5824" x2="384.0" y1="314.7104" y2="312.8258"/>
    <polyline points="384.0,298.3283 399.9153,287.7488 412.074,290.5283 411.4727,299.7667 395.5824,314.7104"/>
    <polyline points="412.8633,548.2839 411.5743,545.4057 408.869,543.2203 400.6589,548.2839"/>
    <polyline points="415.0342,488.8075 397.216,457.0826 395.5327,457.1655 384.0,479.1448"/>
    <polyline points="384.0,482.3565 391.7793,497.8164 415.0342,488.8075"/>
    <polyline points="672.0,434.3713 658.5459,424.1757 672.0,403.3778"/>
    <polyline points="672.0,396.2758 663.6966,389.2336 666.0701,382.8325 672.0,380.4312"/>
    <polyline points="663.4755,362.7174 666.0701,382.8325 672.0,380.4312"/>
    <line x1="672.0" x2="663.4755" y1="354.5819" y2="362.7174"/>
    <polygon points="423.3686,497.2222 395.9723,517.0132 408.8268,532.7752 427.4931,521.1719"/>
    <polygon points="424.9487,492.4129 415.0342,488.8075 397.216,457.0826 414.6941,451.1033 440.2608,460.982 434.1411,487.8666"/>
    <polygon points="423.3686,497.2222 395.9723,517.0132 391.4787,513.9844 391.7793,497.8164 415.0342,488.8075 424.9487,492.4129"/>
    <polyline points="647.2853,417.0933 642.5987,405.0632 644.4184,393.7187 663.6966,389.2336 672.0,396.2758"/>
    <polyline points="672.0,403.3778 658.5459,424.1757 652.9389,422.7805 647.2853,417.0933"/>
    <polyline points="644.5624,435.9015 662.365,458.2852 672.0,453.5164"/>
    <polyline points="672.0,434.3713 658.5459,424.1757 652.9389,422.7805 644.5624,435.9015"/>
    <polygon points="626.8396,445.6498 655.707,463.4516 662.365,458.2852 644.5624,435.9015"/>
    <polygon points="546.503,418.3822 559.8614,425.4011 574.9548,395.0367 551.9843,379.7402 539.6991,402.8247"/>
    <polygon points="576.2233,395.08 574.9548,395.0367 551.9843,379.7402 550.7057,377.4669 563.5895,353.3549 599.6065,358.2645 598.4637,371.8902"/>
    <polygon points="591.1266,406.095 586.0571,420.0793 568.0172,439.8322 561.8384,436.3745 559.8614,425.4011 574.9548,395.0367 576.2233,395.08"/>
    <polygon points="592.5719,438.872 587.5428,449.092 609.8454,460.7315 624.4063,445.3965 621.3279,432.3681 617.4227,427.2052 595.9012,434.8787"/>
    <polygon points="624.4063,445.3965 626.8396,445.6498 655.707,463.4516 651.7437,473.8027 635.4944,487.335 610.7591,466.2347 609.8454,460.7315"/>
    <polygon points="621.3279,432.3681 647.2853,417.0933 652.9389,422.7805 644.5624,435.9015 626.8396,445.6498 624.4063,445.3965"/>
    <polygon points="592.5719,438.872 586.0571,420.0793 568.0172,439.8322 578.4882,449.5047 587.5428,449.092"/>
    <polygon points="621.3279,432.3681 647.2853,417.0933 642.5987,405.0632 614.365,415.9529 617.4227,427.2052"/>
    <polygon points="595.9012,434.8787 597.9366,408.1274 605.6474,408.3467 614.365,415.9529 617.4227,427.2052"/>
    <polygon points="592.5719,438.872 586.0571,420.0793 591.1266,406.095 597.9366,408.1274 595.9012,434.8787"/>
    <polygon points="596.2681,482.9279 610.7591,466.2347 635.4944,487.335 633.4545,516.0515 619.2215,513.5917 596.6273,499.3783 591.5044,493.8175"/>
    <polygon points="485.1201,304.0582 469.4836,286.065 451.077,285.8652 445.8957,319.2351 466.1757,328.3946"/>
    <polyline points="497.2415,306.2767 499.788,267.8122 496.1827,267.7161"/>
    <polyline points="486.8743,267.7161 479.7305,271.4577 469.4836,286.065 485.1201,304.0582 497.2415,306.2767"/>
    <polyline points="500.3221,307.4609 512.8687,309.1592 520.3553,304.6334 535.4701,273.2924 529.8057,267.7161"/>
    <polyline points="500.1861,267.7161 499.788,267.8122 497.2415,306.2767 500.3221,307.4609"/>
    <polygon points="511.8676,356.2534 515.3487,348.1744 550.5719,332.911 561.885,342.5814 563.5895,353.3549 550.7057,377.4669 513.2573,367.2895"/>
    <polyline points="448.7846,267.7161 438.9971,277.7127 429.1217,273.9922 427.1612,267.7161"/>
    <polyline points="486.8743,267.7161 479.7305,271.4577 477.1568,267.7161"/>
    <polyline points="496.1827,267.7161 499.788,267.8122 500.1861,267.7161"/>
    <polyline points="397.4017,267.7161 389.3414,280.7641 384.0,277.8619"/>
    <polyline points="389.3414,280.7641 399.9153,287.7488 384.0,298.3283"/>
    <line x1="384.0" x2="389.3414" y1="277.8619" y2="280.7641"/>
    <polyline points="427.1612,267.7161 429.1217,273.9922 412.074,290.5283 399.9153,287.7488 389.3414,280.7641 397.4017,267.7161"/>
    <polyline points="397.5132,326.7245 395.5824,314.7104 384.0,312.8258"/>
    <line x1="384.0" x2="397.5132" y1="333.9478" y2="326.7245"/>
    <polygon points="398.964,327.963 397.5132,326.7245 395.5824,314.7104 411.4727,299.7667 425.8151,320.9172"/>
    <polyline points="398.964,327.963 397.5132,326.7245 384.0,333.9478"/>
    <polyline points="384.0,345.6071 387.5516,349.8747 399.9787,330.0024 398.964,327.963"/>
    <polyline points="384.0,515.8603 391.4787,513.9844 395.9723,517.0132 408.8268,532.7752 408.869,543.2203 400.6589,548.2839"/>
    <line x1="400.6589" x2="384.0" y1="548.2839" y2="546.7429"/>
    <polyline points="384.0,447.8572 395.5327,457.1655 384.0,479.1448"/>
    <polyline points="384.0,515.8603 391.4787,513.9844 391.7793,497.8164 384.0,482.3565"/>
    <polyline points="672.0,277.903 665.4049,273.21 672.0,299.331"/>
    <polyline points="672.0,269.5581 664.5861,270.1162 665.4049,273.21 672.0,277.903"/>
    <polyline points="653.8941,267.7161 627.7448,280.7847 633.7516,311.3834 639.8496,309.354 657.0146,267.7161"/>
    <polyline points="615.3638,267.7161 627.7448,280.7847 653.8941,267.7161"/>
    <polyline points="633.7516,311.3834 627.0305,317.7971 593.6188,305.392 597.5197,267.7161"/>
    <polyline points="615.3638,267.7161 627.7448,280.7847 633.7516,311.3834"/>
    <polyline points="660.2306,267.7161 664.5861,270.1162 665.4049,273.21 672.0,299.331"/>
    <polyline points="672.0,305.1512 652.9705,309.189 639.8496,309.354 657.0146,267.7161"/>
    <polyline points="672.0,269.5581 664.5861,270.1162 660.2306,267.7161"/>
    <polygon points="446.1668,529.503 436.1358,546.0711 411.5743,545.4057 408.869,543.2203 408.8268,532.7752 427.4931,521.1719 435.5729,521.0625"/>
    <polyline points="412.8633,548.2839 411.5743,545.4057 436.1358,546.0711 438.5127,548.2839"/>
    <polygon points="634.6545,377.6737 604.931,376.8483 614.3974,394.5883 637.1083,386.8903"/>
    <polygon points="604.931,376.8483 598.4637,371.8902 576.2233,395.08 591.1266,406.095 597.9366,408.1274 605.6474,408.3467 614.3974,394.5883"/>
    <polygon points="637.1083,386.8903 644.4184,393.7187 642.5987,405.0632 614.365,415.9529 605.6474,408.3467 614.3974,394.5883"/>
    <polygon points="634.6545,377.6737 635.5883,359.2712 663.4755,362.7174 666.0701,382.8325 663.6966,389.2336 644.4184,393.7187 637.1083,386.8903"/>
    <polygon points="576.527,467.3122 596.2681,482.9279 610.7591,466.2347 609.8454,460.7315 587.5428,449.092 578.4882,449.5047 577.0741,452.7407 576.1677,465.2225"/>
    <polygon points="571.3635,487.2879 575.9874,495.0683 591.5044,493.8175 596.2681,482.9279 576.527,467.3122"/>
    <polygon points="507.4976,373.4714 513.2573,367.2895 550.7057,377.4669 551.9843,379.7402 539.6991,402.8247 515.0227,413.3842 509.5925,408.8246 502.8441,399.6253"/>
    <polygon points="486.1223,340.6871 500.3221,307.4609 497.2415,306.2767 485.1201,304.0582 466.1757,328.3946 467.7627,333.2883"/>
    <polygon points="488.9633,343.5482 511.8676,356.2534 515.3487,348.1744 512.8687,309.1592 500.3221,307.4609 486.1223,340.6871"/>
    <polyline points="417.263,412.9377 419.3429,422.9333 414.6941,451.1033 397.216,457.0826 395.5327,457.1655 384.0,447.8572"/>
    <line x1="384.0" x2="417.263" y1="405.7967" y2="412.9377"/>
    <polygon points="431.0068,325.4637 425.8151,320.9172 411.4727,299.7667 412.074,290.5283 429.1217,273.9922 438.9971,277.7127 451.077,285.8652 445.8957,319.2351 434.217,324.6387"/>
    <line x1="628.9811" x2="672.0" y1="348.4302" y2="345.9195"/>
    <polyline points="672.0,343.416 671.3166,341.2591 668.2814,339.4817 627.7601,330.8379 625.2467,343.5466 628.9811,348.4302"/>
    <polyline points="672.0,339.7956 671.3166,341.2591 672.0,343.416"/>
    <polyline points="668.2814,339.4817 652.9705,309.189 672.0,305.1512"/>
    <polyline points="672.0,339.7956 671.3166,341.2591 668.2814,339.4817"/>
    <polyline points="628.9811,348.4302 635.5883,359.2712 663.4755,362.7174 672.0,354.5819"/>
    <line x1="672.0" x2="628.9811" y1="345.9195" y2="348.4302"/>
    <polygon points="627.7601,330.8379 627.0305,317.7971 633.7516,311.3834 639.8496,309.354 652.9705,309.189 668.2814,339.4817"/>
    <polygon points="625.2467,343.5466 624.7576,343.7894 584.2902,329.9774 581.7981,326.68 589.4602,307.0254 593.6188,305.392 627.0305,317.7971 627.7601,330.8379"/>
    <polygon points="628.9811,348.4302 635.5883,359.2712 634.6545,377.6737 604.931,376.8483 598.4637,371.8902 599.6065,358.2645 601.1497,356.5706 624.7576,343.7894 625.2467,343.5466"/>
    <polygon points="447.3836,502.4493 435.5729,521.0625 446.1668,529.503 450.1329,529.8577 460.3814,507.4683"/>
    <polygon points="447.3836,502.4493 435.5729,521.0625 427.4931,521.1719 423.3686,497.2222 424.9487,492.4129 434.1411,487.8666 443.9615,496.3129"/>
    <polyline points="438.5127,548.2839 436.1358,546.0711 446.1668,529.503 450.1329,529.8577 468.9069,541.3295 467.0103,548.2839"/>
    <polygon points="474.3664,478.5592 443.9615,496.3129 434.1411,487.8666 440.2608,460.982 443.3602,459.9248"/>
    <polygon points="565.2817,484.0372 571.3635,487.2879 576.527,467.3122 576.1677,465.2225 562.801,472.7221"/>
    <polygon points="554.4165,466.8699 577.0741,452.7407 576.1677,465.2225 562.801,472.7221"/>
    <polygon points="543.5168,468.3189 546.2057,444.0598 561.8384,436.3745 568.0172,439.8322 578.4882,449.5047 577.0741,452.7407 554.4165,466.8699"/>
    <polygon points="538.9015,474.0284 523.9522,449.8242 536.5375,441.2019 546.2057,444.0598 543.5168,468.3189"/>
    <polygon points="419.5649,353.1331 426.5682,358.3016 438.5514,385.9043 434.7023,394.8359 388.6779,374.547 396.0183,363.2695 417.1913,353.3579"/>
    <line x1="388.6779" x2="384.0" y1="374.547" y2="378.5097"/>
    <polyline points="384.0,345.6071 387.5516,349.8747 396.0183,363.2695 388.6779,374.547"/>
    <polygon points="417.1913,353.3579 399.9787,330.0024 387.5516,349.8747 396.0183,363.2695"/>
    <polyline points="434.7023,394.8359 434.5654,396.1835 417.263,412.9377 384.0,405.7967"/>
    <polyline points="384.0,378.5097 388.6779,374.547 434.7023,394.8359"/>
    <polygon points="419.5649,353.1331 431.0068,325.4637 425.8151,320.9172 398.964,327.963 399.9787,330.0024 417.1913,353.3579"/>
    <polygon points="581.7955,526.5537 596.6273,499.3783 619.2215,513.5917 585.4295,531.0361"/>
    <polygon points="570.5002,518.9776 565.9168,507.8002 575.9874,495.0683 591.5044,493.8175 596.6273,499.3783 581.7955,526.5537"/>
    <polygon points="471.4872,539.2808 468.9069,541.3295 450.1329,529.8577 460.3814,507.4683 480.0613,506.2424"/>
    <polygon points="471.4252,391.3494 474.8133,372.4044 473.4841,371.6402 442.5448,383.8381 440.1303,385.369 461.606,391.1923"/>
    <polygon points="472.326,393.2976 471.4252,391.3494 474.8133,372.4044 507.4976,373.4714 502.8441,399.6253 489.4622,404.1437"/>
    <polygon points="462.842,405.376 461.606,391.1923 471.4252,391.3494 472.326,393.2976"/>
    <polygon points="457.3722,415.191 434.5654,396.1835 434.7023,394.8359 438.5514,385.9043 440.1303,385.369 461.606,391.1923 462.842,405.376"/>
    <polygon points="487.9049,427.9902 485.2158,408.4966 465.6896,418.0296 475.821,427.8854"/>
    <polygon points="487.9049,427.9902 485.2158,408.4966 489.4622,404.1437 502.8441,399.6253 509.5925,408.8246 491.0543,430.615"/>
    <polygon points="457.9728,416.1761 447.3682,430.4918 446.297,455.6884 466.1272,445.802 462.8634,417.9483"/>
    <polygon points="447.3682,430.4918 419.3429,422.9333 414.6941,451.1033 440.2608,460.982 443.3602,459.9248 446.297,455.6884"/>
    <polygon points="462.8634,417.9483 465.6896,418.0296 475.821,427.8854 477.27,445.7315 466.1272,445.802"/>
    <polygon points="457.9728,416.1761 457.3722,415.191 434.5654,396.1835 417.263,412.9377 419.3429,422.9333 447.3682,430.4918"/>
    <polygon points="457.9728,416.1761 457.3722,415.191 462.842,405.376 472.326,393.2976 489.4622,404.1437 485.2158,408.4966 465.6896,418.0296 462.8634,417.9483"/>
    <polygon points="537.4828,477.0934 538.9015,474.0284 543.5168,468.3189 554.4165,466.8699 562.801,472.7221 565.2817,484.0372 540.7794,481.0194"/>
    <polygon points="452.7247,351.463 457.0798,358.0696 471.4662,367.4352 473.133,358.7819 466.0302,336.8155 453.4776,349.985"/>
    <polygon points="471.4662,367.4352 473.4841,371.6402 442.5448,383.8381 457.0798,358.0696"/>
    <polygon points="452.7247,351.463 426.5682,358.3016 438.5514,385.9043 440.1303,385.369 442.5448,383.8381 457.0798,358.0696"/>
    <polygon points="473.133,358.7819 488.9633,343.5482 486.1223,340.6871 467.7627,333.2883 466.0302,336.8155"/>
    <polygon points="453.4776,349.985 434.217,324.6387 445.8957,319.2351 466.1757,328.3946 467.7627,333.2883 466.0302,336.8155"/>
    <polygon points="471.4662,367.4352 473.4841,371.6402 474.8133,372.4044 507.4976,373.4714 513.2573,367.2895 511.8676,356.2534 488.9633,343.5482 473.133,358.7819"/>
    <polygon points="452.7247,351.463 426.5682,358.3016 419.5649,353.1331 431.0068,325.4637 434.217,324.6387 453.4776,349.985"/>
    <polyline points="600.3663,548.2839 591.8704,546.5062 591.3822,548.2839"/>
    <polyline points="585.7148,541.2227 585.4295,531.0361 619.2215,513.5917 633.4545,516.0515 633.9663,516.7318 630.6093,548.2839"/>
    <polyline points="600.3663,548.2839 591.8704,546.5062 585.7148,541.2227"/>
    <polyline points="498.2495,537.5907 489.5598,541.0044 491.8199,548.2839"/>
    <polyline points="507.592,548.2839 517.9022,538.8295 498.2495,537.5907"/>
    <polyline points="467.0103,548.2839 468.9069,541.3295 471.4872,539.2808 489.5598,541.0044 491.8199,548.2839"/>
    <polyline points="517.9022,538.8295 519.9072,538.5067 524.1436,542.3326 524.7716,548.2839"/>
    <line x1="507.592" x2="517.9022" y1="548.2839" y2="538.8295"/>
    <polygon points="526.9347,431.0515 520.0164,421.0358 540.445,420.9383 535.247,439.2387"/>
    <polygon points="520.0164,421.0358 516.9681,418.7898 515.0227,413.3842 539.6991,402.8247 546.503,418.3822 540.445,420.9383"/>
    <polygon points="535.247,439.2387 536.5375,441.2019 546.2057,444.0598 561.8384,436.3745 559.8614,425.4011 546.503,418.3822 540.445,420.9383"/>
    <polygon points="526.9347,431.0515 516.8268,443.0027 523.4381,449.8847 523.9522,449.8242 536.5375,441.2019 535.247,439.2387"/>
    <polygon points="508.024,435.5043 516.9681,418.7898 520.0164,421.0358 526.9347,431.0515 516.8268,443.0027 514.7026,441.8838"/>
    <polygon points="494.6769,442.5693 491.0543,430.615 509.5925,408.8246 515.0227,413.3842 516.9681,418.7898 508.024,435.5043"/>
    <polygon points="490.376,451.4109 477.27,445.7315 475.821,427.8854 487.9049,427.9902 491.0543,430.615 494.6769,442.5693"/>
    <polygon points="543.2092,490.2753 532.6027,505.5736 535.3654,512.8372 546.5608,514.4338 556.897,507.2232"/>
    <polygon points="535.3654,512.8372 519.1327,527.0135 519.9072,538.5067 524.1436,542.3326 546.2637,536.9361 546.5608,514.4338"/>
    <polygon points="543.2092,490.2753 540.7794,481.0194 565.2817,484.0372 571.3635,487.2879 575.9874,495.0683 565.9168,507.8002 556.897,507.2232"/>
    <line x1="549.0057" x2="558.8107" y1="537.7675" y2="548.2839"/>
    <polyline points="570.6572,548.2839 571.7221,547.6043 563.5205,526.9582 549.0057,537.7675"/>
    <polyline points="591.3822,548.2839 591.8704,546.5062 585.7148,541.2227 571.7221,547.6043 570.6572,548.2839"/>
    <polygon points="563.5205,526.9582 570.5002,518.9776 581.7955,526.5537 585.4295,531.0361 585.7148,541.2227 571.7221,547.6043"/>
    <polyline points="549.0057,537.7675 546.2637,536.9361 524.1436,542.3326 524.7716,548.2839"/>
    <line x1="558.8107" x2="549.0057" y1="548.2839" y2="537.7675"/>
    <polygon points="549.0057,537.7675 546.2637,536.9361 546.5608,514.4338 556.897,507.2232 565.9168,507.8002 570.5002,518.9776 563.5205,526.9582"/>
    <polygon points="494.9872,466.5344 479.6303,480.2142 481.2705,505.2355 488.5942,507.4995 506.5946,508.4385 515.8726,497.3758 520.0359,480.1089 502.6142,468.0687 500.0163,467.4211"/>
    <polygon points="506.5946,508.4385 519.1327,527.0135 535.3654,512.8372 532.6027,505.5736 515.8726,497.3758"/>
    <polygon points="520.0359,480.1089 537.4828,477.0934 540.7794,481.0194 543.2092,490.2753 532.6027,505.5736 515.8726,497.3758"/>
    <polygon points="494.9872,466.5344 490.376,451.4109 477.27,445.7315 466.1272,445.802 446.297,455.6884 443.3602,459.9248 474.3664,478.5592 479.6303,480.2142"/>
    <polygon points="481.2705,505.2355 480.0613,506.2424 460.3814,507.4683 447.3836,502.4493 443.9615,496.3129 474.3664,478.5592 479.6303,480.2142"/>
    <polygon points="488.5942,507.4995 498.2495,537.5907 517.9022,538.8295 519.9072,538.5067 519.1327,527.0135 506.5946,508.4385"/>
    <polygon points="502.6142,468.0687 523.4381,449.8847 523.9522,449.8242 538.9015,474.0284 537.4828,477.0934 520.0359,480.1089"/>
    <polygon points="481.2705,505.2355 480.0613,506.2424 471.4872,539.2808 489.5598,541.0044 498.2495,537.5907 488.5942,507.4995"/>
    <polygon points="500.0163,467.4211 514.7026,441.8838 516.8268,443.0027 523.4381,449.8847 502.6142,468.0687"/>
    <polygon points="494.9872,466.5344 490.376,451.4109 494.6769,442.5693 508.024,435.5043 514.7026,441.8838 500.0163,467.4211"/>
    <polygon points="532.6887,525.0562 531.0654,526.4738 531.1429,527.6231 531.5665,528.0057 533.7785,527.4661 533.8082,525.2158"/>
    <polygon points="533.224,522.6124 528.6789,526.5818 528.8957,529.7998 530.0819,530.8711 536.2756,529.3601 536.3587,523.0594"/>
    <polygon points="533.7594,520.1686 526.2923,526.6897 526.6486,531.9765 528.5973,533.7365 538.7726,531.2541 538.9093,520.903"/>
    <polygon points="534.2947,517.7248 523.9058,526.7976 524.4015,534.1532 527.1127,536.6019 541.2696,533.1481 541.4598,518.7466"/>
    <polygon points="534.8301,515.281 521.5192,526.9056 522.1544,536.3299 525.6282,539.4672 543.7667,535.0421 544.0103,516.5902"/>
    <polygon points="408.4043,269.9153 410.2536,269.6562 410.8818,271.6672 409.177,273.3208 407.9611,273.0428 406.9038,272.3444"/>
    <polyline points="413.1503,267.7161 414.5298,272.1322 409.7564,276.7623 406.352,275.984 403.3913,274.0283 407.2906,267.7161"/>
    <polyline points="416.653,267.7161 418.1778,272.5972 410.3358,280.2038 404.7428,278.9252 399.8788,275.7123 404.8184,267.7161"/>
    <polyline points="420.1557,267.7161 421.8257,273.0622 410.9152,283.6453 403.1336,281.8664 396.3664,277.3962 402.3462,267.7161"/>
    <polyline points="423.6585,267.7161 425.4737,273.5272 411.4946,287.0868 401.5245,284.8076 392.8539,279.0802 399.874,267.7161"/>
    <polyline points="384.0,508.9976 386.092,508.4728 386.2844,498.1253 384.0,493.5856"/>
    <polyline points="384.0,512.429 388.7854,511.2286 389.0318,497.9709 384.0,487.971"/>
    <polygon points="641.6204,449.3738 644.5071,451.154 645.1729,450.6374 643.3927,448.399"/>
    <polygon points="638.6642,448.629 646.7471,453.6135 648.6114,452.1669 643.6266,445.8995"/>
    <polygon points="635.7081,447.8842 648.9871,456.073 652.0498,453.6965 643.8605,443.4"/>
    <polygon points="632.7519,447.1394 651.2271,458.5326 655.4882,455.2261 644.0945,440.9005"/>
    <polygon points="629.7957,446.3946 653.4671,460.9921 658.9266,456.7556 644.3284,438.401"/>
    <polygon points="485.7415,364.5695 485.9433,364.99 486.0762,365.0664 489.3446,365.1731 489.9206,364.5549 489.7816,363.4513 487.4912,362.1808 485.9082,363.7041"/>
    <polygon points="482.8864,365.1426 483.4514,366.32 483.8236,366.534 492.9752,366.8327 494.588,365.1018 494.1988,362.0117 487.7856,358.4542 483.3532,362.7197"/>
    <polygon points="480.0314,365.7158 480.9596,367.65 481.5711,368.0016 496.6058,368.4924 499.2553,365.6487 498.616,360.5721 488.0801,354.7277 480.7981,361.7353"/>
    <polygon points="477.1763,366.2889 478.4678,368.9801 479.3185,369.4692 500.2364,370.1521 503.9226,366.1957 503.0332,359.1325 488.3745,351.0012 478.2431,360.7508"/>
    <polygon points="474.3213,366.8621 475.9759,370.3101 477.0659,370.9368 503.867,371.8117 508.59,366.7426 507.4504,357.6929 488.6689,347.2747 475.6881,359.7664"/>
    <polygon points="578.1284,509.6857 577.6701,508.568 578.6771,507.2948 580.2288,507.1697 580.7411,507.7258 579.2579,510.4434"/>
    <polygon points="576.6027,511.5441 575.3194,508.4144 578.1392,504.8495 582.4839,504.4993 583.9184,506.0563 579.7654,513.6654"/>
    <polygon points="575.0771,513.4025 572.9687,508.2609 577.6012,502.4042 584.7391,501.8288 587.0956,504.3868 580.2729,516.8875"/>
    <polygon points="573.5515,515.2609 570.6181,508.1073 577.0633,499.9589 586.9942,499.1584 590.2728,502.7173 580.7805,520.1096"/>
    <polygon points="572.0258,517.1192 568.2674,507.9537 576.5253,497.5136 589.2493,496.488 593.4501,501.0478 581.288,523.3316"/>
    <polygon points="632.8213,433.0085 635.417,431.481 635.9824,432.0498 635.1447,433.3619 633.3724,434.3367 633.1291,434.3114"/>
    <polygon points="630.5226,432.8804 637.7907,428.6035 639.3737,430.1959 637.0283,433.8698 632.0659,436.5993 631.3846,436.5284"/>
    <polygon points="628.2239,432.7524 640.1643,425.7259 642.765,428.3421 638.9118,434.3777 630.7593,438.8619 629.64,438.7454"/>
    <polygon points="625.9253,432.6243 642.538,422.8484 646.1563,426.4882 640.7953,434.8857 629.4527,441.1246 627.8954,440.9624"/>
    <polygon points="623.6266,432.4962 644.9117,419.9708 649.5476,424.6343 642.6788,435.3936 628.1461,443.3872 626.1509,443.1795"/>
    <polygon points="567.0398,317.4032 569.1596,317.9413 568.3934,319.9068 566.402,321.4969 565.2707,320.5299 565.0223,319.398"/>
    <polygon points="567.2843,314.2515 573.2197,315.7581 571.0743,321.2614 565.4986,325.7138 562.331,323.0061 561.6354,319.8368"/>
    <polygon points="567.5288,311.0998 577.2798,313.575 573.7552,322.6161 564.5952,329.9307 559.3912,325.4823 558.2485,320.2756"/>
    <polygon points="567.7733,307.9481 581.3399,311.3918 576.4362,323.9707 563.6918,334.1476 556.4514,327.9585 554.8616,320.7145"/>
    <polygon points="568.0178,304.7964 585.4001,309.2086 579.1171,325.3254 562.7884,338.3645 553.5117,330.4347 551.4747,321.1533"/>
    <polygon points="454.0051,477.1866 450.9646,478.962 449.9826,478.1174 450.5945,475.4289 450.9045,475.3232"/>
    <polygon points="458.0774,477.4611 449.564,482.4322 446.8143,480.0672 448.5278,472.5395 449.3956,472.2435"/>
    <polygon points="462.1496,477.7356 448.1634,485.9024 443.646,482.0171 446.461,469.6501 447.8868,469.1638"/>
    <polygon points="466.2219,478.0101 446.7628,489.3726 440.4777,483.9669 444.3943,466.7608 446.3779,466.0842"/>
    <polygon points="470.2941,478.2846 445.3622,492.8427 437.3094,485.9168 442.3275,463.8714 444.8691,463.0045"/>
    <polygon points="646.7937,281.5596 643.8306,283.0404 644.4313,286.1003 645.0411,285.8974 646.8171,281.5891"/>
    <polygon points="648.9101,278.4429 640.6134,282.5893 642.2953,291.1569 644.0028,290.5887 648.9757,278.5257"/>
    <polygon points="651.0265,275.3262 637.3963,282.1381 640.1594,296.2135 642.9645,295.28 651.1342,275.4623"/>
    <polygon points="653.1429,272.2095 634.1791,281.687 638.0235,301.2701 641.9262,299.9714 653.2928,272.3988"/>
    <polygon points="655.2593,269.0928 630.962,281.2358 635.8876,306.3267 640.8879,304.6627 655.4513,269.3354"/>
    <polygon points="603.9361,440.7215 603.4332,441.7435 605.6634,442.9074 607.1195,441.3739 606.8117,440.0711 606.4211,439.5548 604.269,440.3222"/>
    <polygon points="601.6632,440.3516 600.2551,443.2132 606.4998,446.4723 610.5769,442.1785 609.7149,438.5305 608.6215,437.0849 602.5954,439.2335"/>
    <polygon points="599.3904,439.9817 597.077,444.6829 607.3362,450.0371 614.0342,442.983 612.6182,436.9899 610.8218,434.615 600.9219,438.1448"/>
    <polygon points="597.1176,439.6118 593.8989,446.1526 608.1726,453.6019 617.4916,443.7875 615.5214,435.4493 613.0221,432.145 599.2483,437.0561"/>
    <polygon points="594.8447,439.2419 590.7208,447.6223 609.009,457.1667 620.9489,444.592 618.4247,433.9087 615.2224,429.6751 597.5747,435.9674"/>
    <polygon points="557.5725,454.7591 557.8414,452.3332 559.4046,451.5647 560.0225,451.9104 561.0696,452.8777 560.9282,453.2013 558.6624,454.6142"/>
    <polygon points="554.7613,457.471 555.5142,450.6785 559.8914,448.5266 561.6215,449.4948 564.5533,452.2031 564.1574,453.1092 557.8133,457.0653"/>
    <polygon points="551.9502,460.183 553.1871,449.0238 560.3781,445.4886 563.2204,447.0791 568.037,451.5285 567.3866,453.017 556.9641,459.5165"/>
    <polygon points="549.1391,462.895 550.86,447.3691 560.8649,442.4506 564.8193,444.6635 571.5207,450.8539 570.6158,452.9249 556.1149,461.9676"/>
    <polygon points="546.328,465.6069 548.5328,445.7145 561.3516,439.4126 566.4183,442.2479 575.0045,450.1793 573.8449,452.8328 555.2657,464.4187"/>
    <polygon points="488.9152,288.9825 489.1698,285.1361 487.9236,285.1028 487.1641,285.5006 486.1394,286.9613 487.7031,288.7607"/>
    <polygon points="490.5805,292.4413 491.2935,281.6713 487.8039,281.5783 485.6774,282.692 482.8083,286.7821 487.1865,291.8202"/>
    <polygon points="492.2457,295.9002 493.4171,278.2065 487.6842,278.0537 484.1906,279.8835 479.4771,286.6028 486.6699,294.8797"/>
    <polygon points="493.911,299.359 495.5407,274.7418 487.5645,274.5291 482.7039,277.0749 476.146,286.4235 486.1533,297.9392"/>
    <polygon points="495.5763,302.8179 497.6643,271.277 487.4448,271.0046 481.2172,274.2663 472.8148,286.2443 485.6367,300.9987"/>
    <polygon points="619.1623,294.624 618.4902,295.2653 615.149,294.0248 615.5999,289.6699 616.6635,289.5606 618.5616,291.5641"/>
    <polygon points="622.0802,297.9758 620.1983,299.7717 610.843,296.2983 612.1055,284.1044 615.0836,283.7984 620.3983,289.4082"/>
    <polygon points="624.998,301.3277 621.9063,304.2781 606.5369,298.5717 608.6111,278.5389 613.5036,278.0362 622.2349,287.2523"/>
    <polygon points="627.9159,304.6796 623.6144,308.7844 602.2309,300.8452 605.1167,272.9735 611.9237,272.274 624.0715,285.0964"/>
    <polyline points="630.8338,308.0315 625.3224,313.2908 597.9249,303.1186 601.5904,267.7161"/>
    <polyline points="611.4847,267.7161 625.9082,282.9406 630.8338,308.0315"/>
    <line x1="384.5286" x2="384.0" y1="321.8" y2="318.5108"/>
    <line x1="384.0" x2="384.5286" y1="322.0825" y2="321.8"/>
    <polyline points="387.7747,323.0311 386.8866,317.5046 384.0,317.0349"/>
    <line x1="384.0" x2="387.7747" y1="325.0489" y2="323.0311"/>
    <polyline points="391.0209,324.2622 389.7852,316.5732 384.0,315.6319"/>
    <line x1="384.0" x2="391.0209" y1="328.0152" y2="324.2622"/>
    <polyline points="394.267,325.4934 392.6838,315.6418 384.0,314.2288"/>
    <line x1="384.0" x2="394.267" y1="330.9815" y2="325.4934"/>
    <polyline points="476.7385,548.2839 476.9418,547.5386 477.6642,546.9649 482.7246,547.4476 482.9842,548.2839"/>
    <polyline points="474.3064,548.2839 474.9331,545.9863 476.12,545.0439 484.4334,545.8368 485.1932,548.2839"/>
    <polyline points="471.8744,548.2839 472.9243,544.434 474.5757,543.1228 486.1422,544.226 487.4021,548.2839"/>
    <polyline points="469.4423,548.2839 470.9156,542.8818 473.0315,541.2018 487.851,542.6152 489.611,548.2839"/>
    <line x1="671.7464" x2="672.0" y1="487.2643" y2="486.9599"/>
    <line x1="672.0" x2="671.7464" y1="487.6864" y2="487.2643"/>
    <polygon points="508.6438,457.3944 510.1124,454.8407 510.3248,454.9526 510.9859,455.6408 508.9036,457.4592"/>
    <polygon points="506.9183,459.3997 511.0304,452.2493 511.6252,452.5626 513.4764,454.4895 507.6457,459.5811"/>
    <polygon points="505.1928,461.4051 511.9485,449.6579 512.9256,450.1726 515.9668,453.3383 506.3878,461.703"/>
    <polygon points="503.4673,463.4104 512.8665,447.0665 514.226,447.7827 518.4572,452.1871 505.13,463.8249"/>
    <polygon points="501.7418,465.4157 513.7845,444.4751 515.5264,445.3927 520.9477,451.0359 503.8721,465.9468"/>
    <polygon points="481.247,422.6696 480.9781,420.7202 479.0255,421.6735 480.0386,422.6591"/>
    <polygon points="482.5786,423.7337 481.8256,418.2755 476.3583,420.9447 479.1951,423.7043"/>
    <polygon points="483.9101,424.7978 482.6731,415.8308 473.6911,420.216 478.3515,424.7496"/>
    <polygon points="485.2417,425.8619 483.5207,413.3861 471.0239,419.4872 477.508,425.7949"/>
    <polygon points="486.5733,426.9261 484.3682,410.9413 468.3568,418.7584 476.6645,426.8401"/>
    <polygon points="527.1055,439.7808 526.0947,440.9759 526.7558,441.6641 526.8072,441.6581 528.0657,440.7959 527.9367,440.5995"/>
    <polygon points="527.0713,438.035 524.2411,441.3813 526.0923,443.3082 526.2362,443.2913 529.7601,440.8771 529.3987,440.3274"/>
    <polygon points="527.0372,436.2891 522.3875,441.7866 525.4287,444.9523 525.6652,444.9245 531.4544,440.9583 530.8608,440.0552"/>
    <polygon points="527.003,434.5432 520.5339,442.192 524.7652,446.5964 525.0942,446.5577 533.1488,441.0395 532.3228,439.783"/>
    <polygon points="526.9689,432.7974 518.6803,442.5974 524.1016,448.2405 524.5232,448.191 534.8432,441.1207 533.7849,439.5108"/>
    <polygon points="416.3675,339.2524 417.5117,336.4854 416.9925,336.0308 414.3074,336.7354 414.4089,336.9393 416.1301,339.2748"/>
    <polygon points="417.007,342.0285 420.2107,334.2811 418.757,333.0081 411.2387,334.9809 411.5229,335.5519 416.3424,342.0915"/>
    <polygon points="417.6465,344.8047 422.9097,332.0767 420.5216,329.9854 408.17,333.2264 408.6368,334.1645 416.5546,344.9081"/>
    <polygon points="418.2859,347.5808 425.6088,329.8724 422.2861,326.9626 405.1013,331.472 405.7508,332.7771 416.7668,347.7247"/>
    <polygon points="418.9254,350.357 428.3078,327.668 424.0506,323.9399 402.0327,329.7175 402.8648,331.3897 416.9791,350.5413"/>
    <polygon points="591.856,520.1358 593.3392,517.4183 595.5986,518.8396 592.2194,520.584"/>
    <polygon points="589.8439,521.4194 593.9968,513.8103 600.3232,517.79 590.8614,522.6744"/>
    <polygon points="587.8318,522.703 594.6545,510.2023 605.0478,516.7405 589.5034,524.7649"/>
    <polygon points="585.8197,523.9866 595.3121,506.5943 609.7724,515.6909 588.1455,526.8553"/>
    <polygon points="583.8076,525.2701 595.9697,502.9863 614.497,514.6413 586.7875,528.9457"/>
    <polygon points="656.9948,437.0397 658.775,439.278 661.2668,438.0448 658.3931,435.8671 657.8324,435.7276"/>
    <polygon points="654.5083,436.8121 659.493,443.0795 666.4699,439.6263 658.4237,433.5288 656.8537,433.1382"/>
    <polygon points="652.0218,436.5844 660.211,446.8809 671.673,441.2078 658.4542,431.1905 655.875,430.5487"/>
    <polyline points="649.5353,436.3568 660.929,450.6823 672.0,445.2028"/>
    <polyline points="672.0,439.0942 658.4848,428.8522 654.8963,427.9593 649.5353,436.3568"/>
    <polyline points="647.0488,436.1292 661.647,454.4838 672.0,449.3596"/>
    <polyline points="672.0,436.7328 658.5153,426.5139 653.9176,425.3699 647.0488,436.1292"/>
    <polygon points="437.9971,443.114 435.1946,442.3582 434.7297,445.1752 437.2864,446.163 437.5963,446.0573 437.89,445.6337"/>
    <polygon points="439.8714,440.5896 432.0243,438.4732 430.7226,446.3608 437.8813,449.1268 438.7491,448.8308 439.5714,447.6446"/>
    <polygon points="441.7456,438.0651 428.854,434.5882 426.7155,447.5464 438.4762,452.0906 439.9019,451.6043 441.2528,449.6556"/>
    <polygon points="443.6198,435.5407 425.6836,430.7033 422.7084,448.732 439.071,455.0544 441.0547,454.3778 442.9342,451.6665"/>
    <polygon points="445.494,433.0162 422.5133,426.8183 418.7012,449.9177 439.6659,458.0182 442.2074,457.1513 444.6156,453.6775"/>
    <polygon points="538.0924,460.1221 536.5975,457.7016 537.856,456.8394 538.8229,457.1252 538.554,459.5511"/>
    <polygon points="538.2542,462.9033 534.0684,456.1262 537.5923,453.7119 540.2994,454.5121 539.5465,461.3047"/>
    <polygon points="538.4161,465.6846 531.5394,454.5507 537.3286,450.5844 541.776,451.899 540.5391,463.0582"/>
    <polygon points="538.5779,468.4659 529.0103,452.9752 537.0649,447.4569 543.2526,449.286 541.5317,464.8118"/>
    <polygon points="538.7397,471.2471 526.4812,451.3997 536.8012,444.3294 544.7291,446.6729 542.5243,466.5653"/>
    <polygon points="555.2635,524.9115 554.9893,524.8283 555.019,522.5781 556.0526,521.857 556.9546,521.9147 557.413,523.0325 556.715,523.8305"/>
    <polygon points="554.012,527.4827 553.2442,527.2499 553.3274,520.9492 556.2215,518.9303 558.7471,519.0918 560.0304,522.2215 558.0761,524.4561"/>
    <polygon points="552.7604,530.0539 551.4991,529.6714 551.6357,519.3204 556.3904,516.0035 560.5395,516.2689 562.6478,521.4105 559.4372,525.0816"/>
    <polygon points="551.5088,532.6251 549.754,532.093 549.9441,517.6915 556.5593,513.0767 562.3319,513.446 565.2653,520.5995 560.7983,525.7071"/>
    <polygon points="550.2573,535.1963 548.0088,534.5145 548.2525,516.0627 556.7282,510.1499 564.1244,510.6231 567.8827,519.7886 562.1594,526.3326"/>
    <polyline points="384.0,288.4406 385.7328,289.5852 384.0,290.737"/>
    <polyline points="384.4144,285.9131 389.2784,289.1261 384.0,292.6348"/>
    <line x1="384.0" x2="384.4144" y1="285.688" y2="285.9131"/>
    <polyline points="386.0568,284.1968 392.824,288.667 384.0,294.5326"/>
    <line x1="384.0" x2="386.0568" y1="283.0793" y2="284.1968"/>
    <polyline points="387.6991,282.4805 396.3697,288.2079 384.0,296.4305"/>
    <line x1="384.0" x2="387.6991" y1="280.4706" y2="282.4805"/>
    <polyline points="443.2356,267.7161 441.2617,269.7322 435.9104,267.7161"/>
    <polyline points="446.0101,267.7161 440.1294,273.7224 432.0316,270.6716 431.1083,267.7161"/>
    <polygon points="525.3021,319.7603 526.0507,319.3077 528.824,321.0036 529.0724,322.1355 525.5501,323.6618"/>
    <polygon points="522.8154,317.6401 524.9116,316.3729 532.6767,321.1213 533.3723,324.2906 523.5098,328.5643"/>
    <polygon points="520.3287,315.5199 523.7726,313.438 536.5295,321.239 537.6722,326.4457 521.4695,333.4669"/>
    <polygon points="517.8421,313.3997 522.6335,310.5032 540.3823,321.3567 541.9721,328.6008 519.4292,338.3694"/>
    <polygon points="515.3554,311.2794 521.4944,307.5683 544.2351,321.4744 546.272,330.7559 517.3889,343.2719"/>
    <polygon points="644.4711,343.1393 648.8509,342.8837 648.7047,342.4222 648.4012,342.2444 644.349,341.38 644.0977,342.6509"/>
    <polygon points="641.3731,344.1975 653.6365,343.4817 653.2271,342.1895 652.3772,341.6919 641.0313,339.2716 640.3275,342.8301"/>
    <polygon points="638.2751,345.2557 658.4221,344.0798 657.7495,341.9569 656.3533,341.1393 637.7135,337.1632 636.5573,343.0092"/>
    <polygon points="635.1771,346.3138 663.2076,344.6779 662.2718,341.7243 660.3293,340.5868 634.3957,335.0548 632.7871,343.1883"/>
    <polygon points="632.0791,347.372 667.9932,345.276 666.7942,341.4917 664.3054,340.0342 631.0779,332.9464 629.0169,343.3675"/>
    <polygon points="503.3268,428.9756 502.9645,427.7802 504.8184,425.6012 505.3614,426.0571 505.5559,426.5977 504.6615,428.2691"/>
    <polygon points="501.5968,431.6944 500.5825,428.3472 505.7732,422.2459 507.2936,423.5225 507.8384,425.0361 505.334,429.7162"/>
    <polygon points="499.8668,434.4131 498.2005,428.9141 506.728,418.8906 509.2259,420.988 510.1208,423.4745 506.0065,431.1632"/>
    <polygon points="498.1368,437.1318 495.8184,429.4811 507.6828,415.5353 511.1582,418.4534 512.4032,421.9129 506.679,432.6102"/>
    <polygon points="496.4069,439.8505 493.4364,430.0481 508.6377,412.18 513.0904,415.9188 514.6857,420.3513 507.3515,434.0573"/>
    <polygon points="610.4455,329.2139 610.3966,329.2382 606.3499,327.857 606.1007,327.5273 606.8669,325.5618 607.2828,325.3985 610.6239,326.639 610.6969,327.9431"/>
    <polygon points="613.4058,332.0805 613.2688,332.1484 601.938,328.2811 601.2402,327.3578 603.3856,321.8545 604.55,321.3972 613.9052,324.8706 614.1095,328.522"/>
    <polygon points="616.366,334.947 616.141,335.0587 597.526,328.7052 596.3796,327.1884 599.9042,318.1472 601.8172,317.3959 617.1865,323.1022 617.5222,329.101"/>
    <polygon points="619.3262,337.8135 619.0132,337.9689 593.1141,329.1292 591.5191,327.0189 596.4229,314.44 599.0844,313.3946 620.4678,321.3339 620.9348,329.68"/>
    <polygon points="622.2864,340.6801 621.8854,340.8791 588.7022,329.5533 586.6586,326.8495 592.9415,310.7327 596.3516,309.3933 623.7492,319.5655 624.3475,330.259"/>
    <polygon points="573.4924,530.8929 574.1904,530.0949 575.3199,530.8525 575.6833,531.3007 575.7119,532.3194 574.3126,532.9575"/>
    <polygon points="571.4981,530.106 573.4524,527.8714 576.6151,529.9927 577.6326,531.2478 577.7125,534.1 573.7945,535.8869"/>
    <polygon points="569.5037,529.319 572.7143,525.648 577.9102,529.133 579.5818,531.1948 579.713,535.8807 573.2764,538.8162"/>
    <polygon points="567.5093,528.5321 571.9763,523.4245 579.2053,528.2732 581.531,531.1419 581.7136,537.6614 572.7583,541.7456"/>
    <polygon points="565.5149,527.7451 571.2382,521.2011 580.5004,527.4135 583.4802,531.089 583.7142,539.442 572.2402,544.675"/>
    <polyline points="672.0,272.6862 670.4922,272.7997 670.8688,274.2229 672.0,275.0278"/>
    <polyline points="672.0,271.6435 668.5235,271.9052 669.0475,273.8853 672.0,275.9862"/>
    <polyline points="672.0,270.6008 666.5548,271.0107 667.2262,273.5476 672.0,276.9446"/>
    <polygon points="579.5884,485.784 580.0508,486.5621 581.6025,486.437 582.0789,485.348 580.1048,483.7865"/>
    <polygon points="577.9434,486.0848 579.2381,488.2633 583.5829,487.9131 584.9167,484.864 579.3892,480.4916"/>
    <polygon points="576.2984,486.3856 578.4254,489.9646 585.5633,489.3892 587.7546,484.38 578.6737,477.1967"/>
    <polygon points="574.6534,486.6864 577.6127,491.6658 587.5437,490.8653 590.5924,483.8959 577.9581,473.9019"/>
    <polygon points="573.0085,486.9871 576.8,493.3671 589.524,492.3414 593.4303,483.4119 577.2426,470.607"/>
    <polygon points="487.142,440.8342 485.8314,440.2663 485.6865,438.4817 486.8949,438.4921 487.2099,438.7546 487.5721,439.95"/>
    <polygon points="487.7888,442.9495 484.1191,441.3593 483.7134,436.3624 487.0969,436.3917 487.9788,437.1267 488.9931,440.4739"/>
    <polygon points="488.4356,445.0649 482.4068,442.4524 481.7403,434.2431 487.2989,434.2914 488.7477,435.4988 490.414,440.9977"/>
    <polygon points="489.0824,447.1802 480.6946,443.5454 479.7672,432.1239 487.5009,432.191 489.5165,433.8709 491.835,441.5216"/>
    <polygon points="489.7292,449.2956 478.9823,444.6384 477.7941,430.0046 487.7029,430.0906 490.2854,432.2429 493.2559,442.0454"/>
    <polygon points="440.0233,345.5753 437.4076,346.2592 436.7073,345.7423 437.8515,342.9754 438.1725,342.8929 440.0986,345.4275"/>
    <polygon points="442.5636,346.7529 435.2397,348.6677 433.2788,347.2205 436.4825,339.473 437.3814,339.2421 442.7744,346.339"/>
    <polygon points="445.1039,347.9304 433.0719,351.0761 429.8503,348.6986 435.1136,335.9707 436.5903,335.5912 445.4502,347.2505"/>
    <polygon points="447.6441,349.1079 430.904,353.4846 426.4218,350.1768 433.7447,332.4684 435.7992,331.9404 448.126,348.162"/>
    <polygon points="450.1844,350.2855 428.7361,355.8931 422.9934,351.655 432.3757,328.966 435.0081,328.2895 450.8018,349.0735"/>
    <polyline points="384.0,458.2708 386.5944,460.3648 384.0,465.3094"/>
    <polyline points="384.0,453.064 391.0636,458.7652 384.0,472.2271"/>
    <polygon points="492.8735,416.6443 492.6045,414.695 493.0292,414.2597 494.3674,413.8078 495.0422,414.7278 493.1884,416.9068"/>
    <polygon points="491.8797,418.9135 491.1268,413.4553 492.3158,412.2365 496.0627,410.9713 497.9523,413.5471 492.7616,419.6484"/>
    <polygon points="490.886,421.1827 489.649,412.2156 491.6024,410.2133 497.7581,408.1348 500.8623,412.3665 492.3348,422.3901"/>
    <polygon points="489.8923,423.4518 488.1713,410.976 490.889,408.1901 499.4534,405.2983 503.7724,411.1859 491.908,425.1317"/>
    <polygon points="488.8986,425.721 486.6935,409.7363 490.1756,406.1669 501.1488,402.4618 506.6824,410.0053 491.4811,427.8734"/>
    <polyline points="545.6091,546.3665 545.3349,546.2834 543.1229,546.823 543.2064,547.6145 544.2285,548.2839"/>
    <polyline points="546.9686,548.2839 547.0315,547.8921 545.6091,546.3665"/>
    <polyline points="546.2884,544.6467 545.5207,544.4139 539.327,545.9249 539.5609,548.1411 539.7789,548.2839"/>
    <line x1="549.6796" x2="546.2884" y1="548.2839" y2="544.6467"/>
    <polyline points="546.9678,542.9269 545.7064,542.5445 535.5312,545.0269 535.8749,548.2839"/>
    <line x1="551.9623" x2="546.9678" y1="548.2839" y2="542.9269"/>
    <polyline points="547.6471,541.2071 545.8922,540.675 531.7353,544.1288 532.1738,548.2839"/>
    <line x1="554.2451" x2="547.6471" y1="548.2839" y2="541.2071"/>
    <polyline points="548.3264,539.4873 546.078,538.8055 527.9394,543.2307 528.4727,548.2839"/>
    <line x1="556.5279" x2="548.3264" y1="548.2839" y2="539.4873"/>
    <line x1="536.6365" x2="534.7476" y1="269.5756" y2="267.7161"/>
    <polyline points="547.7601,267.7161 545.247,269.4381 536.6365,269.5756"/>
    <polygon points="552.5761,407.8033 553.912,408.5052 555.4213,405.4687 553.1243,403.9391 551.8957,406.2475"/>
    <polygon points="551.3615,409.9191 555.1019,411.8844 559.328,403.3823 552.8963,399.0993 549.4564,405.563"/>
    <polygon points="550.1469,412.0348 556.2918,415.2635 563.2347,401.2959 552.6683,394.2595 547.0171,404.8784"/>
    <polygon points="548.9323,414.1506 557.4816,418.6427 567.1414,399.2095 552.4403,389.4197 544.5777,404.1938"/>
    <polygon points="547.7176,416.2664 558.6715,422.0219 571.0481,397.1231 552.2123,384.5799 542.1384,403.5093"/>
    <polygon points="404.1431,320.503 403.998,320.3792 403.8049,319.1778 405.394,317.6834 406.8282,319.7985"/>
    <polygon points="403.1073,321.995 402.701,321.6482 402.1604,318.2843 406.6097,314.1001 410.6256,320.0222"/>
    <polygon points="402.0714,323.487 401.4041,322.9173 400.5159,317.3908 407.8255,310.5167 414.423,320.246"/>
    <polygon points="401.0356,324.979 400.1071,324.1864 398.8714,316.4974 409.0412,306.9334 418.2203,320.4697"/>
    <polygon points="399.9998,326.471 398.8101,325.4554 397.2269,315.6039 410.2569,303.35 422.0177,320.6935"/>
    <polygon points="519.4236,466.8596 521.506,465.0412 521.5574,465.0352 523.0523,467.4556 522.9104,467.7621 521.1657,468.0636"/>
    <polygon points="516.0617,467.1015 521.8924,462.0099 522.0363,461.993 526.2221,468.7702 525.8249,469.6284 520.9398,470.4727"/>
    <polygon points="512.6998,467.3433 522.2788,458.9786 522.5153,458.9508 529.392,470.0847 528.7394,471.4946 520.7138,472.8817"/>
    <polygon points="509.338,467.5851 522.6652,455.9473 522.9943,455.9086 532.5618,471.3993 531.6538,473.3609 520.4878,475.2908"/>
    <polygon points="505.9761,467.8269 523.0517,452.916 523.4732,452.8664 535.7316,472.7138 534.5683,475.2272 520.2618,477.6998"/>
    <polygon points="455.1096,336.1568 453.1835,333.6222 454.3514,333.0818 456.3794,333.9977 456.5381,334.4871 456.3649,334.8398"/>
    <polygon points="454.7832,338.9224 449.3902,331.8255 452.6603,330.3125 458.3387,332.8771 458.783,334.2474 458.2979,335.235"/>
    <polygon points="454.4568,341.6881 445.5969,330.0288 450.9691,327.5431 460.2979,331.7565 461.028,334.0076 460.231,335.6301"/>
    <polygon points="454.1304,344.4537 441.8036,328.2321 449.278,324.7738 462.2572,330.6359 463.2729,333.7678 462.1641,336.0252"/>
    <polygon points="453.804,347.2194 438.0103,326.4354 447.5869,322.0045 464.2165,329.5152 465.5178,333.5281 464.0971,336.4204"/>
    <polygon points="503.8704,522.0128 504.8359,525.0219 506.8012,525.1458 507.0017,525.1135 506.9243,523.9642 505.6705,522.1067"/>
    <polygon points="500.8152,519.1102 503.5187,527.5357 509.0214,527.8826 509.5828,527.7922 509.366,524.5741 505.8553,519.3731"/>
    <polygon points="497.7599,516.2075 502.2014,530.0494 511.2416,530.6193 512.1639,530.4708 511.8076,525.1839 506.0401,516.6394"/>
    <polygon points="494.7047,513.3049 500.8841,532.5632 513.4618,533.356 514.745,533.1494 514.2493,525.7938 506.2249,513.9058"/>
    <polygon points="491.6494,510.4022 499.5668,535.0769 515.682,536.0928 517.3261,535.828 516.691,526.4037 506.4098,511.1722"/>
    <polygon points="667.0689,522.7349 670.219,522.07 669.7202,523.4533 668.4635,523.6383"/>
    <line x1="664.4784" x2="672.0" y1="522.3905" y2="520.8028"/>
    <polyline points="672.0,524.1298 671.9019,524.4019 668.3832,524.9198 664.4784,522.3905"/>
    <line x1="661.8879" x2="672.0" y1="522.0461" y2="519.9115"/>
    <polyline points="672.0,525.6572 668.3029,526.2014 661.8879,522.0461"/>
    <line x1="659.2973" x2="672.0" y1="521.7018" y2="519.0203"/>
    <polyline points="672.0,526.9269 668.2226,527.483 659.2973,521.7018"/>
    <line x1="656.7068" x2="672.0" y1="521.3574" y2="518.129"/>
    <polyline points="672.0,528.1966 668.1423,528.7645 656.7068,521.3574"/>
    <polygon points="577.6483,414.5588 577.1413,415.9573 575.3374,417.9325 574.7195,417.5868 574.5218,416.4894 576.0311,413.453 576.158,413.4573"/>
    <polygon points="580.344,412.8661 578.9245,416.7817 573.8733,422.3125 572.1432,421.3443 571.5897,418.2718 575.8158,409.7697 576.171,409.7818"/>
    <polygon points="583.0396,411.1733 580.7077,417.6061 572.4093,426.6924 569.567,425.1019 568.6576,420.0541 575.6006,406.0865 576.1841,406.1064"/>
    <polygon points="585.7353,409.4805 582.4908,418.4305 570.9453,431.0723 566.9908,428.8594 565.7256,421.8364 575.3853,402.4032 576.1972,402.4309"/>
    <polygon points="588.431,407.7878 584.274,419.2549 569.4813,435.4523 564.4146,432.617 562.7935,423.6188 575.1701,398.72 576.2102,398.7554"/>
    <polygon points="392.4677,333.6349 392.3226,333.511 390.4939,334.4886 390.5736,334.9215 391.3264,335.8261 392.5692,333.8388"/>
    <polygon points="393.7669,332.5005 393.3607,332.1537 388.2404,334.8907 388.4635,336.1029 390.5715,338.6358 394.0511,333.0715"/>
    <polygon points="395.0662,331.3662 394.3988,330.7964 385.9869,335.2929 386.3535,337.2843 389.8165,341.4455 395.533,332.3042"/>
    <polyline points="396.3654,330.2318 395.4369,329.4391 384.0,335.5526"/>
    <polyline points="384.0,337.1434 384.2434,338.4657 389.0615,344.2553 397.0149,331.5369 396.3654,330.2318"/>
    <polyline points="397.6647,329.0974 396.475,328.0818 384.0,334.7502"/>
    <polyline points="384.0,341.8902 388.3065,347.065 398.4968,330.7697 397.6647,329.0974"/>
    <polygon points="455.4599,275.1976 456.6679,276.0128 458.5086,276.0328 459.5333,274.5721 458.1051,272.4958"/>
    <polygon points="452.1674,275.7006 455.5497,277.9833 460.7036,278.0392 463.5727,273.9492 459.574,268.1357"/>
    <polyline points="448.8748,276.2036 454.4315,279.9538 462.8986,280.0457 467.6121,273.3263 463.7532,267.7161"/>
    <line x1="457.1847" x2="448.8748" y1="267.7161" y2="276.2036"/>
    <polyline points="445.5823,276.7066 453.3134,281.9242 465.0936,282.0521 471.6516,272.7035 468.2211,267.7161"/>
    <line x1="454.3847" x2="445.5823" y1="267.7161" y2="276.7066"/>
    <polyline points="442.2897,277.2096 452.1952,283.8947 467.2886,284.0586 475.691,272.0806 472.689,267.7161"/>
    <line x1="451.5846" x2="442.2897" y1="267.7161" y2="277.2096"/>
    <polygon points="626.7819,422.7444 629.3777,421.2169 628.909,420.0139 626.0856,421.1029 626.3914,422.2281"/>
    <polygon points="625.6911,424.6692 632.9592,420.3922 631.6469,417.0238 623.7415,420.0729 624.5977,423.2235"/>
    <polygon points="624.6003,426.5939 636.5407,419.5675 634.3849,414.0336 621.3974,419.0429 622.8039,424.219"/>
    <polygon points="623.5095,428.5186 640.1223,418.7427 637.1228,411.0435 619.0533,418.0129 621.0102,425.2144"/>
    <polygon points="622.4187,430.4434 643.7038,417.918 639.8608,408.0533 616.7092,416.9829 619.2164,426.2098"/>
    <line x1="671.4603" x2="672.0" y1="531.7004" y2="531.621"/>
    <line x1="672.0" x2="671.4603" y1="535.7148" y2="531.7004"/>
    <line x1="669.7612" x2="672.0" y1="530.8733" y2="530.5437"/>
    <polyline points="672.0,539.3689 670.8725,539.1402 669.7612,530.8733"/>
    <polygon points="653.2988,409.3537 652.8301,408.1507 653.0121,407.0162 654.9399,406.5677 656.0669,407.5236 654.4249,410.0619 653.8642,409.9224"/>
    <polygon points="652.0961,410.9016 650.7839,407.5332 651.2934,404.3567 656.6913,403.1009 659.8469,405.7772 655.2491,412.8847 653.6791,412.494"/>
    <polygon points="650.8934,412.4495 648.7376,406.9157 649.5746,401.6972 658.4426,399.6341 663.6268,404.0309 656.0733,415.7074 653.4941,415.0656"/>
    <polygon points="649.6907,413.9974 646.6913,406.2982 647.8559,399.0377 660.1939,396.1673 667.4068,402.2845 656.8975,418.5302 653.309,417.6373"/>
    <polygon points="648.488,415.5453 644.645,405.6807 646.1371,396.3782 661.9453,392.7004 671.1867,400.5382 657.7217,421.3529 653.124,420.2089"/>
    <polyline points="631.3093,267.7161 634.2235,270.7922 640.3784,267.7161"/>
    <polyline points="625.9941,267.7161 632.064,274.123 644.8837,267.7161"/>
    <polyline points="620.679,267.7161 629.9044,277.4538 649.3889,267.7161"/>
    <polyline points="516.8367,546.2374 517.759,546.0889 519.7077,547.8488 519.7537,548.2839"/>
    <line x1="514.6049" x2="516.8367" y1="548.2839" y2="546.2374"/>
    <polyline points="517.1919,543.7681 518.4751,543.5615 521.1864,546.0101 521.4263,548.2839"/>
    <line x1="512.2673" x2="517.1919" y1="548.2839" y2="543.7681"/>
    <polyline points="517.547,541.2988 519.1912,541.0341 522.665,544.1713 523.0989,548.2839"/>
    <line x1="509.9296" x2="517.547" y1="548.2839" y2="541.2988"/>
    <polygon points="484.0476,518.7921 483.9266,518.8928 483.0692,522.1966 484.8765,522.369 485.7455,522.0276 484.7799,519.0185"/>
    <polygon points="483.4921,516.0808 483.1536,516.3627 480.7528,525.6135 485.8132,526.0961 488.2463,525.1402 485.5428,516.7147"/>
    <polygon points="482.9367,513.3694 482.3805,513.8326 478.4364,529.0303 486.7498,529.8231 490.7471,528.2528 486.3056,514.4109"/>
    <polygon points="482.3813,510.6581 481.6074,511.3026 476.12,532.4471 487.6865,533.5502 493.2479,531.3655 487.0685,512.1071"/>
    <polygon points="481.8259,507.9468 480.8343,508.7725 473.8036,535.8639 488.6232,537.2773 495.7487,534.4781 487.8313,509.8033"/>
    <polygon points="465.8716,398.124 465.748,396.7057 466.7299,396.7214 466.82,396.9162"/>
    <polygon points="465.2657,399.5744 464.9196,395.603 467.669,395.647 467.9212,396.1925"/>
    <polygon points="464.6598,401.0248 464.0912,394.5003 468.608,394.5726 469.0224,395.4687"/>
    <polygon points="464.0538,402.4752 463.2628,393.3977 469.5471,393.4982 470.1236,394.745"/>
    <polygon points="463.4479,403.9256 462.4344,392.295 470.4861,392.4238 471.2248,394.0213"/>
    <polygon points="466.9689,411.1011 466.9089,411.0026 467.4559,410.0211 468.4043,408.8133 470.1179,409.8979 469.6933,410.3332 467.7406,411.2865 467.458,411.2783"/>
    <polygon points="465.1697,412.1161 465.0016,411.8403 466.5331,409.0921 469.1886,405.7101 473.9868,408.747 472.7978,409.9659 467.3304,412.6351 466.5391,412.6123"/>
    <polygon points="463.3705,413.1311 463.0942,412.678 465.6103,408.1631 469.973,402.607 477.8556,407.5962 475.9023,409.5985 466.9202,413.9837 465.6202,413.9463"/>
    <polygon points="461.5712,414.1461 461.1869,413.5156 464.6876,407.234 470.7573,399.5039 481.7245,406.4454 479.0068,409.2312 466.51,415.3324 464.7012,415.2803"/>
    <polygon points="459.772,415.1611 459.2796,414.3533 463.7648,406.305 471.5417,396.4007 485.5934,405.2945 482.1113,408.8639 466.0998,416.681 463.7823,416.6143"/>
    <polygon points="467.8815,427.7966 468.1641,427.8047 469.1773,428.7903 469.3222,430.5749 468.2079,430.582"/>
    <polygon points="466.8779,425.8269 467.6692,425.8497 470.506,428.6093 470.9117,433.6062 467.7917,433.626"/>
    <polygon points="465.8743,423.8573 467.1743,423.8947 471.8347,428.4283 472.5013,436.6375 467.3756,436.67"/>
    <polygon points="464.8706,421.8876 466.6794,421.9397 473.1635,428.2473 474.0908,439.6689 466.9595,439.714"/>
    <polygon points="463.867,419.918 466.1845,419.9846 474.4922,428.0663 475.6804,442.7002 466.5433,442.758"/>
    <polygon points="408.9286,394.9758 408.9149,395.1106 407.1847,396.786 401.7164,395.612 402.4546,394.5323 404.3261,392.9469"/>
    <polygon points="414.0833,394.9478 414.045,395.3251 409.2003,400.0163 393.8892,396.7293 395.9561,393.7061 401.1965,389.2669"/>
    <polygon points="419.2381,394.9198 419.1751,395.5397 411.216,403.2467 386.0621,397.8465 389.4577,392.8798 398.0669,385.5869"/>
    <polyline points="424.3928,394.8919 424.3052,395.7543 413.2317,406.477 384.0,400.2014"/>
    <polyline points="384.0,391.1719 394.9372,381.907 424.3928,394.8919"/>
    <polyline points="429.5476,394.8639 429.4353,395.9689 415.2473,409.7074 384.0,402.9991"/>
    <polyline points="384.0,384.8408 391.8076,378.227 429.5476,394.8639"/>
  </g>
</svg>
