<?xml version="1.0" encoding="utf-8" ?>
<svg xmlns="http://www.w3.org/2000/svg" xmlns:cc="http://creativecommons.org/ns#" xmlns:dc="http://purl.org/dc/elements/1.1/" xmlns:ev="http://www.w3.org/2001/xml-events" xmlns:inkscape="http://www.inkscape.org/namespaces/inkscape" xmlns:rdf="http://www.w3.org/1999/02/22-rdf-syntax-ns#" xmlns:sodipodi="http://sodipodi.sourceforge.net/DTD/sodipodi-0.dtd" xmlns:xlink="http://www.w3.org/1999/xlink" baseProfile="tiny" height="27.94cm" version="1.2" viewBox="0 0 816.0000000000001 1056.0" width="21.59cm">
  <metadata>
    <rdf:RDF>
      <cc:Work>
        <dc:format>image/svg+xml</dc:format>
        <dc:source>vpype read art.svg scaleto 3in 3in layout letter write art-scaled.svg
</dc:source>
        <dc:date>2021-07-23T15:01:23.729323</dc:date>
      </cc:Work>
    </rdf:RDF>
  </metadata>
  <defs/>
  <g fill="none" id="layer1" inkscape:groupmode="layer" inkscape:label="1" stroke="#00f" style="display:inline">
    <polygon points="264.0,672.0 552.0,672.0 552.0,384.0 264.0,384.0"/>
    <polygon points="383.8262,474.0976 397.6605,504.7973 367.5967,525.1811 338.3446,496.8652 338.9762,495.705 377.0114,472.7907 379.5697,472.7743"/>
    <line x1="273.3234" x2="264.0" y1="498.9203" y2="488.4684"/>
    <line x1="264.0" x2="273.3234" y1="509.0133" y2="498.9203"/>
    <polygon points="305.0019,507.2809 306.2513,454.6955 297.5651,446.5382 289.9439,455.561 281.5575,498.1522"/>
    <line x1="273.3234" x2="264.0" y1="498.9203" y2="488.4684"/>
    <polyline points="264.0,459.9669 289.9439,455.561 281.5575,498.1522 273.3234,498.9203"/>
    <polyline points="264.0,600.637 278.5432,589.8382 274.0763,561.9196 264.0,556.3196"/>
    <polygon points="314.787,513.1236 338.3446,496.8652 338.9762,495.705 326.7485,465.245 306.2513,454.6955 305.0019,507.2809"/>
    <polygon points="308.5729,542.1946 274.0763,561.9196 278.5432,589.8382 298.975,603.0629 317.0506,604.4996 318.9788,603.4428 323.2279,595.2635"/>
    <polygon points="314.299,535.1602 314.787,513.1236 338.3446,496.8652 367.5967,525.1811 368.3233,536.535 321.0583,539.0244"/>
    <polyline points="314.299,535.1602 314.787,513.1236 305.0019,507.2809 281.5575,498.1522 273.3234,498.9203 264.0,509.0133"/>
    <polyline points="264.0,556.3196 274.0763,561.9196 308.5729,542.1946 314.299,535.1602"/>
    <line x1="266.3744" x2="264.0" y1="384.0" y2="389.1494"/>
    <polygon points="342.1169,580.968 323.2279,595.2635 308.5729,542.1946 314.299,535.1602 321.0583,539.0244 346.9927,564.0557"/>
    <polygon points="366.0553,558.1729 368.6588,537.2253 368.3233,536.535 321.0583,539.0244 346.9927,564.0557"/>
    <polygon points="380.8192,570.2107 429.0117,541.6492 368.6588,537.2253 366.0553,558.1729"/>
    <polygon points="440.0833,583.7162 450.6108,621.7202 417.6441,637.9937 416.7775,634.136"/>
    <polygon points="439.2313,579.3531 441.1355,573.0235 474.3525,583.6526 492.8609,598.7214 491.7639,601.2859 462.7857,626.1469 450.6108,621.7202 440.0833,583.7162"/>
    <polyline points="264.0,636.7657 272.6182,645.1393 286.8159,631.6984 287.3925,628.1246 264.0,620.8871"/>
    <polyline points="264.0,600.637 278.5432,589.8382 298.975,603.0629 287.3925,628.1246 264.0,620.8871"/>
    <polyline points="264.0,656.9691 272.8737,653.04 272.6182,645.1393 264.0,636.7657"/>
    <polygon points="309.346,650.1448 286.8159,631.6984 287.3925,628.1246 298.975,603.0629 317.0506,604.4996 319.0542,645.1739"/>
    <polygon points="333.6385,651.8526 367.204,633.788 365.2466,624.0511 318.9788,603.4428 317.0506,604.4996 319.0542,645.1739"/>
    <polygon points="292.5844,671.8735 272.8737,653.04 272.6182,645.1393 286.8159,631.6984 309.346,650.1448"/>
    <polyline points="292.5844,671.8735 272.8737,653.04 264.0,656.9691"/>
    <line x1="292.5913" x2="292.5844" y1="672.0" y2="671.8735"/>
    <polyline points="271.7086,384.0 274.9429,385.7227 279.0991,384.0"/>
    <polygon points="357.4854,441.5054 330.9845,419.0081 327.2313,418.7044 323.5726,420.4421 337.623,450.223 357.6304,449.551"/>
    <polygon points="357.4854,441.5054 374.9219,409.6607 374.151,408.996 330.9845,419.0081"/>
    <line x1="327.2313" x2="338.4569" y1="418.7044" y2="384.0"/>
    <polyline points="364.6281,384.0 374.151,408.996 330.9845,419.0081 327.2313,418.7044"/>
    <polygon points="357.6304,449.551 377.0114,472.7907 338.9762,495.705 326.7485,465.245 337.623,450.223"/>
    <polygon points="383.2529,410.5354 411.4832,440.1697 412.1172,442.3063 382.5334,434.3337 378.6827,410.9488"/>
    <polygon points="378.6827,410.9488 374.9219,409.6607 357.4854,441.5054 357.6304,449.551 377.0114,472.7907 379.5697,472.7743 382.5334,434.3337"/>
    <polygon points="384.8389,409.8249 416.8915,414.5581 425.0313,409.7096 431.5999,392.8545 406.9328,386.7658"/>
    <polygon points="384.8389,409.8249 383.2529,410.5354 411.4832,440.1697 416.8915,414.5581"/>
    <line x1="406.9328" x2="405.7237" y1="386.7658" y2="384.0"/>
    <polyline points="447.9544,384.0 431.5999,392.8545 406.9328,386.7658"/>
    <polyline points="384.8389,409.8249 383.2529,410.5354 378.6827,410.9488 374.9219,409.6607 374.151,408.996 364.6281,384.0"/>
    <polyline points="405.7237,384.0 406.9328,386.7658 384.8389,409.8249"/>
    <polygon points="416.1329,450.9914 412.1172,442.3063 382.5334,434.3337 379.5697,472.7743 383.8262,474.0976 409.1522,461.3504"/>
    <polyline points="523.5871,653.545 535.2945,671.2404 549.5394,671.8641 552.0,669.7712"/>
    <polyline points="552.0,625.9157 543.1358,630.0874 523.5871,653.545"/>
    <polyline points="453.2835,669.4966 468.7406,642.4416 499.8351,651.1665 488.6651,672.0"/>
    <line x1="454.1624" x2="453.2835" y1="672.0" y2="669.4966"/>
    <polygon points="468.7406,642.4416 462.7857,626.1469 491.7639,601.2859 506.0765,649.02 499.8351,651.1665"/>
    <polyline points="534.887,672.0 535.2945,671.2404 523.5871,653.545 518.9685,651.2202 506.0765,649.02 499.8351,651.1665 488.6651,672.0"/>
    <polygon points="453.2835,669.4966 412.1118,649.0376 417.6441,637.9937 450.6108,621.7202 462.7857,626.1469 468.7406,642.4416"/>
    <polygon points="400.1679,584.6128 435.1965,555.5324 432.1493,540.687 429.0117,541.6492 380.8192,570.2107 381.0712,590.6546"/>
    <polygon points="376.7077,598.8155 342.1169,580.968 323.2279,595.2635 318.9788,603.4428 365.2466,624.0511 376.5991,599.6264"/>
    <polygon points="380.3606,593.225 381.0712,590.6546 380.8192,570.2107 366.0553,558.1729 346.9927,564.0557 342.1169,580.968 376.7077,598.8155"/>
    <polygon points="411.8108,649.2109 412.1118,649.0376 417.6441,637.9937 416.7775,634.136 412.1467,619.3487 376.5991,599.6264 365.2466,624.0511 367.204,633.788 379.2175,645.476"/>
    <polyline points="411.8108,649.2109 412.1118,649.0376 453.2835,669.4966 454.1624,672.0"/>
    <line x1="409.502" x2="411.8108" y1="672.0" y2="649.2109"/>
    <polygon points="297.3554,435.8147 306.8211,421.4913 301.7903,410.6222 283.7938,395.3404 264.0434,430.1494"/>
    <line x1="301.7903" x2="313.9443" y1="410.6222" y2="384.0"/>
    <polyline points="279.0991,384.0 274.9429,385.7227 283.7938,395.3404 301.7903,410.6222"/>
    <line x1="264.0434" x2="264.0" y1="430.1494" y2="430.1479"/>
    <line x1="264.0" x2="266.3744" y1="389.1494" y2="384.0"/>
    <polyline points="271.7086,384.0 274.9429,385.7227 283.7938,395.3404 264.0434,430.1494"/>
    <polyline points="306.8211,421.4913 323.5726,420.4421 327.2313,418.7044 338.4569,384.0"/>
    <polyline points="313.9443,384.0 301.7903,410.6222 306.8211,421.4913"/>
    <polygon points="297.3554,435.8147 297.5651,446.5382 306.2513,454.6955 326.7485,465.245 337.623,450.223 323.5726,420.4421 306.8211,421.4913"/>
    <polyline points="297.3554,435.8147 297.5651,446.5382 289.9439,455.561 264.0,459.9669"/>
    <polyline points="264.0,430.1479 264.0434,430.1494 297.3554,435.8147"/>
    <line x1="480.8397" x2="475.8708" y1="400.1534" y2="384.0"/>
    <polyline points="447.9544,384.0 431.5999,392.8545 425.0313,409.7096 438.1902,432.1605 480.8397,400.1534"/>
    <polygon points="434.5826,445.6725 416.1329,450.9914 412.1172,442.3063 411.4832,440.1697 416.8915,414.5581 425.0313,409.7096 438.1902,432.1605"/>
    <polyline points="552.0,407.2167 545.2381,407.385 543.2119,384.0"/>
    <polygon points="459.5805,464.6198 459.9006,460.1956 434.5826,445.6725 416.1329,450.9914 409.1522,461.3504 434.6069,486.4972"/>
    <polygon points="433.0284,531.5753 397.6605,504.7973 383.8262,474.0976 409.1522,461.3504 434.6069,486.4972"/>
    <polygon points="434.6155,534.266 432.1493,540.687 429.0117,541.6492 368.6588,537.2253 368.3233,536.535 367.5967,525.1811 397.6605,504.7973 433.0284,531.5753"/>
    <polyline points="552.0,435.4416 549.6688,434.7881 552.0,477.177"/>
    <polygon points="412.6424,590.7156 396.6251,596.2174 414.3941,605.5065 424.1484,591.1688"/>
    <polygon points="396.6251,596.2174 380.3606,593.225 376.7077,598.8155 376.5991,599.6264 412.1467,619.3487 414.3941,605.5065"/>
    <polygon points="424.1484,591.1688 439.2313,579.3531 440.0833,583.7162 416.7775,634.136 412.1467,619.3487 414.3941,605.5065"/>
    <polygon points="412.6424,590.7156 400.1679,584.6128 381.0712,590.6546 380.3606,593.225 396.6251,596.2174"/>
    <polygon points="412.6424,590.7156 400.1679,584.6128 435.1965,555.5324 441.1355,573.0235 439.2313,579.3531 424.1484,591.1688"/>
    <polyline points="368.8202,672.0 371.0947,670.4515 371.357,666.2297 336.509,668.3819 335.9447,672.0"/>
    <polyline points="292.5913,672.0 292.5844,671.8735 309.346,650.1448 319.0542,645.1739 333.6385,651.8526 336.509,668.3819 335.9447,672.0"/>
    <polygon points="371.357,666.2297 379.2175,645.476 367.204,633.788 333.6385,651.8526 336.509,668.3819"/>
    <line x1="371.0947" x2="371.7357" y1="670.4515" y2="672.0"/>
    <polyline points="409.502,672.0 411.8108,649.2109 379.2175,645.476 371.357,666.2297 371.0947,670.4515"/>
    <polyline points="371.7357,672.0 371.0947,670.4515 368.8202,672.0"/>
    <polygon points="475.3442,448.291 459.9006,460.1956 434.5826,445.6725 438.1902,432.1605 480.8397,400.1534 491.188,416.2228"/>
    <polyline points="516.6194,425.522 534.3964,419.8626 545.2381,407.385 543.2119,384.0"/>
    <polyline points="475.8708,384.0 480.8397,400.1534 491.188,416.2228 516.6194,425.522"/>
    <polyline points="552.0,407.2167 545.2381,407.385 534.3964,419.8626 549.6688,434.7881 552.0,435.4416"/>
    <line x1="507.7659" x2="552.0" y1="586.1517" y2="587.4058"/>
    <polyline points="552.0,594.4171 527.9593,612.1089 520.7822,612.2178 499.6263,595.9726 507.7659,586.1517"/>
    <polyline points="527.9593,612.1089 543.1358,630.0874 552.0,625.9157"/>
    <line x1="552.0" x2="527.9593" y1="594.4171" y2="612.1089"/>
    <polygon points="527.9593,612.1089 543.1358,630.0874 523.5871,653.545 518.9685,651.2202 520.7822,612.2178"/>
    <polygon points="499.6263,595.9726 492.8609,598.7214 491.7639,601.2859 506.0765,649.02 518.9685,651.2202 520.7822,612.2178"/>
    <polygon points="507.7659,586.1517 511.4443,552.7286 494.4291,537.8455 474.3525,583.6526 492.8609,598.7214 499.6263,595.9726"/>
    <line x1="513.763" x2="552.0" y1="552.4515" y2="576.1446"/>
    <polyline points="552.0,540.8617 539.176,539.1622 513.763,552.4515"/>
    <polyline points="513.763,552.4515 511.4443,552.7286 507.7659,586.1517 552.0,587.4058"/>
    <line x1="552.0" x2="513.763" y1="576.1446" y2="552.4515"/>
    <polygon points="477.2172,521.1691 482.3326,507.0775 510.1418,483.5016 524.1216,478.8949 541.5982,486.0196 530.51,516.4231 490.8349,532.538"/>
    <line x1="541.5982" x2="552.0" y1="486.0196" y2="485.8044"/>
    <polyline points="552.0,540.8617 539.176,539.1622 530.51,516.4231 541.5982,486.0196"/>
    <polygon points="490.8349,532.538 494.4291,537.8455 511.4443,552.7286 513.763,552.4515 539.176,539.1622 530.51,516.4231"/>
    <polygon points="524.1216,478.8949 516.6194,425.522 491.188,416.2228 475.3442,448.291 510.1418,483.5016"/>
    <polygon points="482.3326,507.0775 459.5805,464.6198 459.9006,460.1956 475.3442,448.291 510.1418,483.5016"/>
    <polyline points="524.1216,478.8949 516.6194,425.522 534.3964,419.8626 549.6688,434.7881 552.0,477.177"/>
    <polyline points="552.0,485.8044 541.5982,486.0196 524.1216,478.8949"/>
    <polygon points="477.2172,521.1691 434.6155,534.266 433.0284,531.5753 434.6069,486.4972 459.5805,464.6198 482.3326,507.0775"/>
    <polygon points="477.2172,521.1691 434.6155,534.266 432.1493,540.687 435.1965,555.5324 441.1355,573.0235 474.3525,583.6526 494.4291,537.8455 490.8349,532.538"/>
    <polygon points="466.0845,437.0988 464.5401,438.2893 462.0083,436.837 462.3691,435.4858 466.634,432.2851 467.6689,433.892"/>
    <polygon points="467.9364,439.3373 463.6122,442.6706 456.5232,438.6041 457.5333,434.8207 469.4752,425.8587 472.3727,430.3582"/>
    <polygon points="469.7884,441.5757 462.6843,447.0518 451.038,440.3712 452.6975,434.1557 472.3163,419.4324 477.0765,426.8243"/>
    <polygon points="471.6403,443.8142 461.7564,451.4331 445.5529,442.1383 447.8618,433.4906 475.1574,413.0061 481.7803,423.2905"/>
    <polygon points="473.4922,446.0526 460.8285,455.8143 440.0678,443.9054 443.026,432.8255 477.9985,406.5797 486.4841,419.7566"/>
    <polygon points="361.0282,656.4167 361.8142,654.3413 360.6128,653.1725 357.2563,654.979 357.5433,656.6319"/>
    <polygon points="363.0939,658.3793 365.2949,652.5682 361.9311,649.2956 352.5327,654.3537 353.3365,658.9819"/>
    <polygon points="365.1597,660.3419 368.7755,650.7952 363.2493,645.4187 347.8092,653.7284 349.1296,661.3319"/>
    <polygon points="367.2255,662.3045 372.2562,649.0221 364.5675,641.5418 343.0856,653.1031 344.9227,663.6819"/>
    <polygon points="369.2913,664.2671 375.7368,647.249 365.8858,637.6649 338.362,652.4779 340.7159,666.0319"/>
    <polyline points="508.3295,672.0 507.6559,670.9819 507.1941,670.7494 505.9049,670.5294 505.2807,670.744 504.6073,672.0"/>
    <polyline points="513.823,672.0 510.8422,667.4945 509.5489,666.8436 505.9392,666.2275 504.1916,666.8285 501.4189,672.0"/>
    <polyline points="519.3166,672.0 514.0284,664.0071 511.9038,662.9377 505.9735,661.9256 503.1025,662.913 498.2304,672.0"/>
    <polyline points="524.6241,672.0 524.7074,671.8448 517.2146,660.5197 514.2587,659.0319 506.0079,657.6237 502.0134,658.9975 495.042,672.0"/>
    <polyline points="529.7556,672.0 530.001,671.5426 520.4009,657.0324 516.6136,655.1261 506.0422,653.3219 500.9242,655.082 491.8536,672.0"/>
    <polygon points="446.2732,647.6211 442.156,645.5752 442.7093,644.4708 446.0059,642.8434 447.2234,643.2861 447.8189,644.9156"/>
    <polygon points="447.6753,651.9962 436.1472,646.2677 437.6962,643.1754 446.9269,638.6188 450.3359,639.8582 452.0032,644.4208"/>
    <polygon points="449.0773,656.3713 430.1384,646.9601 432.6832,641.88 447.8479,634.3941 453.4483,636.4304 456.1876,643.926"/>
    <polygon points="450.4794,660.7464 424.1295,647.6526 427.6701,640.5845 448.7688,630.1695 456.5608,633.0026 460.3719,643.4312"/>
    <polygon points="451.8814,665.1215 418.1207,648.3451 422.6571,639.2891 449.6898,625.9448 459.6732,629.5747 464.5562,642.9364"/>
    <polygon points="329.7183,564.3641 327.8294,565.7936 326.3639,560.4867 326.9365,559.7833 327.6124,560.1697 330.2059,562.6728"/>
    <polygon points="332.198,567.6849 326.9091,571.6876 322.8057,556.8283 324.409,554.8587 326.3016,555.9407 333.5632,562.9494"/>
    <polygon points="334.6777,571.0056 325.9888,577.5816 319.2475,553.1699 321.8815,549.9341 324.9908,551.7116 336.9206,563.226"/>
    <polygon points="337.1575,574.3264 325.0685,583.4756 315.6893,549.5115 319.354,545.0094 323.6799,547.4826 340.278,563.5025"/>
    <polygon points="339.6372,577.6472 324.1482,589.3695 312.1311,545.8531 316.8265,540.0848 322.3691,543.2535 343.6353,563.7791"/>
    <polygon points="499.2652,578.2011 499.6331,574.8588 497.9315,573.3705 495.9239,577.9512 497.7747,579.4581 498.4513,579.1832"/>
    <polygon points="500.9654,579.7912 501.9953,570.4328 497.2311,566.2655 491.6096,579.0915 496.792,583.3107 498.6863,582.5411"/>
    <polygon points="502.6655,581.3813 504.3576,566.0067 496.5306,559.1605 487.2953,580.2318 495.8092,587.1634 498.9213,585.8989"/>
    <polygon points="504.3656,582.9714 506.7198,561.5807 495.8301,552.0555 482.981,581.372 494.8264,591.0161 499.1563,589.2568"/>
    <polygon points="506.0658,584.5615 509.0821,557.1547 495.1296,544.9505 478.6668,582.5123 493.8437,594.8687 499.3913,592.6147"/>
    <polygon points="467.0085,667.3871 468.5542,664.6816 471.6637,665.5541 469.5793,669.4417 467.3868,668.4647"/>
    <polyline points="464.2635,667.809 468.5915,660.2336 477.298,662.6766 472.2992,672.0"/>
    <polyline points="467.9567,672.0 465.3228,670.8263 464.2635,667.809"/>
    <polyline points="461.5185,668.2309 468.6288,655.7856 482.9322,659.7991 476.3907,672.0"/>
    <line x1="462.8418" x2="461.5185" y1="672.0" y2="668.2309"/>
    <polyline points="458.7735,668.6528 468.666,651.3376 488.5665,656.9215 480.4821,672.0"/>
    <line x1="459.9486" x2="458.7735" y1="672.0" y2="668.6528"/>
    <polyline points="456.0285,669.0747 468.7033,646.8896 494.2008,654.044 484.5736,672.0"/>
    <line x1="457.0555" x2="456.0285" y1="672.0" y2="669.0747"/>
    <polygon points="297.37,395.391 299.3987,390.9474 294.6853,392.9011 295.5703,393.8629"/>
    <polygon points="298.254,398.4373 303.9343,385.9951 290.7368,391.4654 293.215,394.1584"/>
    <line x1="299.1381" x2="307.12" y1="401.4835" y2="384.0"/>
    <polyline points="301.3356,384.0 286.7883,390.0297 290.8597,394.4539 299.1381,401.4835"/>
    <line x1="300.0222" x2="309.3947" y1="404.5297" y2="384.0"/>
    <polyline points="293.9235,384.0 282.8399,388.5941 288.5044,394.7494 300.0222,404.5297"/>
    <line x1="300.9062" x2="311.6695" y1="407.5759" y2="384.0"/>
    <polyline points="286.5113,384.0 278.8914,387.1584 286.1491,395.0449 300.9062,407.5759"/>
    <polygon points="357.1771,549.7952 357.4374,547.7004 357.4039,547.6314 352.6774,547.8804 355.2708,550.3835"/>
    <polygon points="358.9527,551.4707 359.6817,545.6054 359.5878,545.4121 346.3536,546.1092 353.6152,553.1179"/>
    <polygon points="360.7284,553.1463 361.926,543.5104 361.7717,543.1929 340.0297,544.338 351.9596,555.8524"/>
    <polygon points="362.504,554.8218 364.1703,541.4153 363.9556,540.9736 333.7059,542.5668 350.304,558.5868"/>
    <polygon points="364.2797,556.4973 366.4145,539.3203 366.1394,538.7543 327.3821,540.7956 348.6483,561.3212"/>
    <polygon points="391.0236,423.3779 393.8467,426.3414 393.9101,426.555 390.9517,425.7578 390.5666,423.4193"/>
    <polygon points="389.4695,420.8094 397.374,429.107 397.5515,429.7053 389.268,427.4729 388.1898,420.9252"/>
    <polygon points="387.9154,418.2409 400.9013,431.8727 401.1929,432.8555 387.5844,429.1881 385.813,418.4311"/>
    <polygon points="386.3612,415.6724 404.4286,434.6384 404.8343,436.0058 385.9007,430.9033 383.4363,415.937"/>
    <polygon points="384.8071,413.1039 407.9559,437.404 408.4757,439.156 384.217,432.6185 381.0595,413.4429"/>
    <polygon points="508.6427,457.5886 507.8924,452.2513 505.3493,451.3214 503.7649,454.5282 507.2447,458.0492"/>
    <polygon points="511.7384,461.8498 509.6378,446.9054 502.517,444.3016 498.0808,453.2807 507.8241,463.1397"/>
    <polygon points="514.8342,466.1111 511.3832,441.5596 499.6848,437.2819 492.3966,452.0333 508.4035,468.2302"/>
    <polygon points="517.93,470.3723 513.1286,436.2137 496.8525,430.2622 486.7125,450.7859 508.983,473.3206"/>
    <polygon points="521.0258,474.6336 514.874,430.8679 494.0202,423.2425 481.0283,449.5385 509.5624,478.4111"/>
    <polygon points="458.9701,510.6507 454.7099,511.9604 454.5512,511.6913 454.709,507.1835 457.2064,504.9958 459.4816,509.2415"/>
    <polygon points="462.6195,512.7544 450.691,516.4215 450.2466,515.6681 450.6886,503.0462 457.6812,496.9206 464.0518,508.8087"/>
    <polygon points="466.2689,514.8581 446.6721,520.8826 445.9421,519.6449 446.6682,498.909 458.156,488.8454 468.622,508.3759"/>
    <polygon points="469.9183,516.9617 442.6533,525.3437 441.6375,523.6217 442.6478,494.7717 458.6309,480.7702 473.1922,507.9431"/>
    <polygon points="473.5678,519.0654 438.6344,529.8049 437.333,527.5985 438.6274,490.6345 459.1057,472.695 477.7624,507.5103"/>
    <polygon points="547.1607,612.515 548.6784,614.3128 549.96,613.7096 549.9712,613.7011 551.679,611.0723 550.4493,610.0948"/>
    <polyline points="543.3204,612.4338 547.5699,617.4677 551.1586,615.7788 551.1898,615.7549 552.0,614.5078"/>
    <line x1="552.0" x2="543.3204" y1="606.0464" y2="612.4338"/>
    <polyline points="539.4802,612.3525 546.4614,620.6227 552.0,618.016"/>
    <line x1="552.0" x2="539.4802" y1="603.1391" y2="612.3525"/>
    <polyline points="535.6399,612.2713 545.3528,623.7776 552.0,620.6492"/>
    <line x1="552.0" x2="535.6399" y1="600.2317" y2="612.2713"/>
    <polyline points="531.7996,612.1901 544.2443,626.9325 552.0,623.2824"/>
    <line x1="552.0" x2="531.7996" y1="597.3244" y2="612.1901"/>
  </g>
</svg>
