<?xml version="1.0" encoding="utf-8" standalone="no"?>
<!DOCTYPE svg PUBLIC "-//W3C//DTD SVG 1.1//EN"
  "http://www.w3.org/Graphics/SVG/1.1/DTD/svg11.dtd">
<svg height="543.6pt" version="1.1" viewBox="0 0 543.6 543.6" width="543.6pt" xmlns="http://www.w3.org/2000/svg" xmlns:xlink="http://www.w3.org/1999/xlink">
 <metadata>
  <rdf:RDF xmlns:cc="http://creativecommons.org/ns#" xmlns:dc="http://purl.org/dc/elements/1.1/" xmlns:rdf="http://www.w3.org/1999/02/22-rdf-syntax-ns#">
   <cc:Work>
    <dc:type rdf:resource="http://purl.org/dc/dcmitype/StillImage"/>
    <dc:date>2021-07-23T14:51:51.720390</dc:date>
    <dc:format>image/svg+xml</dc:format>
    <dc:creator>
     <cc:Agent>
      <dc:title>Matplotlib v3.4.2, https://matplotlib.org/</dc:title>
     </cc:Agent>
    </dc:creator>
   </cc:Work>
  </rdf:RDF>
 </metadata>
 <defs>
  <style type="text/css">*{stroke-linecap:butt;stroke-linejoin:round;}</style>
 </defs>
 <g id="figure_1">
  <g id="patch_1">
   <path d="M 0 543.6 
L 543.6 543.6 
L 543.6 0 
L 0 0 
z
" style="fill:none;"/>
  </g>
  <g id="axes_1">
   <g id="LineCollection_1">
    <path clip-path="url(#pf0eb2b07b7)" style="fill:none;stroke:#1f77b4;stroke-width:1.5;"/>
    <path clip-path="url(#pf0eb2b07b7)" style="fill:none;stroke:#1f77b4;stroke-width:1.5;"/>
    <path clip-path="url(#pf0eb2b07b7)" d="M 226.17203 170.059212 
L 252.284128 228.004855 
L 195.538697 266.47935 
L 140.325507 213.03307 
L 141.517628 210.843245 
L 213.308995 167.592529 
L 218.137855 167.561413 
L 226.17203 170.059212 
" style="fill:none;stroke:#1f77b4;stroke-width:1.5;"/>
    <path clip-path="url(#pf0eb2b07b7)" style="fill:none;stroke:#1f77b4;stroke-width:1.5;"/>
    <path clip-path="url(#pf0eb2b07b7)" style="fill:none;stroke:#1f77b4;stroke-width:1.5;"/>
    <path clip-path="url(#pf0eb2b07b7)" d="M 17.597996 216.912065 
L -1 196.063073 
M -1 237.045152 
L 17.597996 216.912065 
" style="fill:none;stroke:#1f77b4;stroke-width:1.5;"/>
    <path clip-path="url(#pf0eb2b07b7)" d="M 77.391108 232.692769 
L 79.749422 133.437845 
L 63.354172 118.040828 
L 48.969165 135.071405 
L 33.13973 215.462301 
L 77.391108 232.692769 
" style="fill:none;stroke:#1f77b4;stroke-width:1.5;"/>
    <path clip-path="url(#pf0eb2b07b7)" d="M 17.597996 216.912065 
L -1 196.063073 
M -1 143.557262 
L 48.969165 135.071405 
L 33.13973 215.462301 
L 17.597996 216.912065 
" style="fill:none;stroke:#1f77b4;stroke-width:1.5;"/>
    <path clip-path="url(#pf0eb2b07b7)" d="M -1 409.644841 
L 27.450327 388.519577 
L 19.019019 335.823182 
L -1 324.697579 
" style="fill:none;stroke:#1f77b4;stroke-width:1.5;"/>
    <path clip-path="url(#pf0eb2b07b7)" d="M 95.860394 243.720762 
L 140.325507 213.03307 
L 141.517628 210.843245 
L 118.437715 153.349945 
L 79.749422 133.437845 
L 77.391108 232.692769 
L 95.860394 243.720762 
" style="fill:none;stroke:#1f77b4;stroke-width:1.5;"/>
    <path clip-path="url(#pf0eb2b07b7)" d="M 84.131422 298.592387 
L 19.019019 335.823182 
L 27.450327 388.519577 
L 66.015262 413.481215 
L 100.132955 416.192999 
L 103.772492 414.198256 
L 111.792575 398.759864 
L 84.131422 298.592387 
" style="fill:none;stroke:#1f77b4;stroke-width:1.5;"/>
    <path clip-path="url(#pf0eb2b07b7)" d="M 94.939271 285.314861 
L 95.860394 243.720762 
L 140.325507 213.03307 
L 195.538697 266.47935 
L 196.910273 287.909897 
L 107.697519 292.608626 
L 94.939271 285.314861 
" style="fill:none;stroke:#1f77b4;stroke-width:1.5;"/>
    <path clip-path="url(#pf0eb2b07b7)" d="M 94.939271 285.314861 
L 95.860394 243.720762 
L 77.391108 232.692769 
L 33.13973 215.462301 
L 17.597996 216.912065 
L -1 237.045152 
M -1 324.697579 
L 19.019019 335.823182 
L 84.131422 298.592387 
L 94.939271 285.314861 
" style="fill:none;stroke:#1f77b4;stroke-width:1.5;"/>
    <path clip-path="url(#pf0eb2b07b7)" style="fill:none;stroke:#1f77b4;stroke-width:1.5;"/>
    <path clip-path="url(#pf0eb2b07b7)" d="M 4.942817 -1 
L -1 11.888211 
" style="fill:none;stroke:#1f77b4;stroke-width:1.5;"/>
    <path clip-path="url(#pf0eb2b07b7)" style="fill:none;stroke:#1f77b4;stroke-width:1.5;"/>
    <path clip-path="url(#pf0eb2b07b7)" style="fill:none;stroke:#1f77b4;stroke-width:1.5;"/>
    <path clip-path="url(#pf0eb2b07b7)" d="M 147.445654 371.777061 
L 111.792575 398.759864 
L 84.131422 298.592387 
L 94.939271 285.314861 
L 107.697519 292.608626 
L 156.648743 339.855041 
L 147.445654 371.777061 
" style="fill:none;stroke:#1f77b4;stroke-width:1.5;"/>
    <path clip-path="url(#pf0eb2b07b7)" d="M 192.629401 328.751269 
L 197.543473 289.212699 
L 196.910273 287.909897 
L 107.697519 292.608626 
L 156.648743 339.855041 
L 192.629401 328.751269 
" style="fill:none;stroke:#1f77b4;stroke-width:1.5;"/>
    <path clip-path="url(#pf0eb2b07b7)" d="M 220.496191 351.472733 
L 311.459553 297.562829 
L 197.543473 289.212699 
L 192.629401 328.751269 
L 220.496191 351.472733 
" style="fill:none;stroke:#1f77b4;stroke-width:1.5;"/>
    <path clip-path="url(#pf0eb2b07b7)" d="M 332.357299 376.964392 
L 352.227807 448.696859 
L 290.003157 479.413162 
L 288.367594 472.131656 
L 332.357299 376.964392 
" style="fill:none;stroke:#1f77b4;stroke-width:1.5;"/>
    <path clip-path="url(#pf0eb2b07b7)" d="M 330.749025 368.729058 
L 334.343296 356.781914 
L 397.040298 376.844296 
L 431.974955 405.286659 
L 429.904377 410.127183 
L 375.207997 457.05222 
L 352.227807 448.696859 
L 332.357299 376.964392 
L 330.749025 368.729058 
" style="fill:none;stroke:#1f77b4;stroke-width:1.5;"/>
    <path clip-path="url(#pf0eb2b07b7)" d="M -1 476.123623 
L 16.266824 492.900445 
L 43.065019 467.53079 
L 44.153303 460.78518 
L -1 446.814992 
" style="fill:none;stroke:#1f77b4;stroke-width:1.5;"/>
    <path clip-path="url(#pf0eb2b07b7)" d="M -1 409.644841 
L 27.450327 388.519577 
L 66.015262 413.481215 
L 44.153303 460.78518 
L -1 446.814992 
" style="fill:none;stroke:#1f77b4;stroke-width:1.5;"/>
    <path clip-path="url(#pf0eb2b07b7)" d="M -1 515.671859 
L 16.749063 507.81304 
L 16.266824 492.900445 
L -1 476.123623 
" style="fill:none;stroke:#1f77b4;stroke-width:1.5;"/>
    <path clip-path="url(#pf0eb2b07b7)" style="fill:none;stroke:#1f77b4;stroke-width:1.5;"/>
    <path clip-path="url(#pf0eb2b07b7)" d="M 85.590628 502.348283 
L 43.065019 467.53079 
L 44.153303 460.78518 
L 66.015262 413.481215 
L 100.132955 416.192999 
L 103.91476 492.965824 
L 85.590628 502.348283 
" style="fill:none;stroke:#1f77b4;stroke-width:1.5;"/>
    <path clip-path="url(#pf0eb2b07b7)" d="M 131.442584 505.571744 
L 194.79752 471.474842 
L 191.102931 453.096363 
L 103.772492 414.198256 
L 100.132955 416.192999 
L 103.91476 492.965824 
L 131.442584 505.571744 
" style="fill:none;stroke:#1f77b4;stroke-width:1.5;"/>
    <path clip-path="url(#pf0eb2b07b7)" d="M 53.952968 543.361219 
L 16.749063 507.81304 
L 16.266824 492.900445 
L 43.065019 467.53079 
L 85.590628 502.348283 
L 53.952968 543.361219 
" style="fill:none;stroke:#1f77b4;stroke-width:1.5;"/>
    <path clip-path="url(#pf0eb2b07b7)" d="M 53.952968 543.361219 
L 16.749063 507.81304 
L -1 515.671859 
M 54.021428 544.6 
L 53.952968 543.361219 
" style="fill:none;stroke:#1f77b4;stroke-width:1.5;"/>
    <path clip-path="url(#pf0eb2b07b7)" d="M 12.672446 -1 
L 20.654778 3.251612 
L 30.912185 -1 
" style="fill:none;stroke:#1f77b4;stroke-width:1.5;"/>
    <path clip-path="url(#pf0eb2b07b7)" d="M 176.453754 108.541386 
L 126.43317 66.077836 
L 119.349137 65.504462 
L 112.443198 68.784514 
L 138.963369 124.995947 
L 176.727384 123.727591 
L 176.453754 108.541386 
" style="fill:none;stroke:#1f77b4;stroke-width:1.5;"/>
    <path clip-path="url(#pf0eb2b07b7)" d="M 176.453754 108.541386 
L 209.365066 48.434547 
L 207.909973 47.179923 
L 126.43317 66.077836 
L 176.453754 108.541386 
" style="fill:none;stroke:#1f77b4;stroke-width:1.5;"/>
    <path clip-path="url(#pf0eb2b07b7)" d="M 119.349137 65.504462 
L 140.86092 -1 
M 189.554639 -1 
L 207.909973 47.179923 
L 126.43317 66.077836 
L 119.349137 65.504462 
" style="fill:none;stroke:#1f77b4;stroke-width:1.5;"/>
    <path clip-path="url(#pf0eb2b07b7)" d="M 176.727384 123.727591 
L 213.308995 167.592529 
L 141.517628 210.843245 
L 118.437715 153.349945 
L 138.963369 124.995947 
L 176.727384 123.727591 
" style="fill:none;stroke:#1f77b4;stroke-width:1.5;"/>
    <path clip-path="url(#pf0eb2b07b7)" d="M 225.089939 50.085643 
L 278.374516 106.020294 
L 279.571159 110.053144 
L 223.731742 95.004817 
L 216.463562 50.865782 
L 225.089939 50.085643 
" style="fill:none;stroke:#1f77b4;stroke-width:1.5;"/>
    <path clip-path="url(#pf0eb2b07b7)" d="M 216.463562 50.865782 
L 209.365066 48.434547 
L 176.453754 108.541386 
L 176.727384 123.727591 
L 213.308995 167.592529 
L 218.137855 167.561413 
L 223.731742 95.004817 
L 216.463562 50.865782 
" style="fill:none;stroke:#1f77b4;stroke-width:1.5;"/>
    <path clip-path="url(#pf0eb2b07b7)" d="M 228.083462 48.744534 
L 288.582741 57.678462 
L 303.946657 48.526886 
L 316.344894 16.712868 
L 269.785637 5.220516 
L 228.083462 48.744534 
" style="fill:none;stroke:#1f77b4;stroke-width:1.5;"/>
    <path clip-path="url(#pf0eb2b07b7)" d="M 228.083462 48.744534 
L 225.089939 50.085643 
L 278.374516 106.020294 
L 288.582741 57.678462 
L 228.083462 48.744534 
" style="fill:none;stroke:#1f77b4;stroke-width:1.5;"/>
    <path clip-path="url(#pf0eb2b07b7)" d="M 269.785637 5.220516 
L 267.066367 -1 
M 349.060938 -1 
L 316.344894 16.712868 
L 269.785637 5.220516 
" style="fill:none;stroke:#1f77b4;stroke-width:1.5;"/>
    <path clip-path="url(#pf0eb2b07b7)" d="M 228.083462 48.744534 
L 225.089939 50.085643 
L 216.463562 50.865782 
L 209.365066 48.434547 
L 207.909973 47.179923 
L 189.554639 -1 
M 267.066367 -1 
L 269.785637 5.220516 
L 228.083462 48.744534 
" style="fill:none;stroke:#1f77b4;stroke-width:1.5;"/>
    <path clip-path="url(#pf0eb2b07b7)" d="M 287.150879 126.446189 
L 279.571159 110.053144 
L 223.731742 95.004817 
L 218.137855 167.561413 
L 226.17203 170.059212 
L 273.974812 145.998806 
L 287.150879 126.446189 
" style="fill:none;stroke:#1f77b4;stroke-width:1.5;"/>
    <path clip-path="url(#pf0eb2b07b7)" d="M 489.970687 508.766142 
L 512.068422 542.166213 
L 538.955701 543.343435 
L 544.6 538.54259 
M 544.6 456.145178 
L 526.868897 464.489989 
L 489.970687 508.766142 
" style="fill:none;stroke:#1f77b4;stroke-width:1.5;"/>
    <path clip-path="url(#pf0eb2b07b7)" d="M 357.272623 538.874746 
L 386.447839 487.80853 
L 445.138791 504.276737 
L 423.519274 544.6 
M 359.282643 544.6 
L 357.272623 538.874746 
" style="fill:none;stroke:#1f77b4;stroke-width:1.5;"/>
    <path clip-path="url(#pf0eb2b07b7)" d="M 386.447839 487.80853 
L 375.207997 457.05222 
L 429.904377 410.127183 
L 456.919446 500.225214 
L 445.138791 504.276737 
L 386.447839 487.80853 
" style="fill:none;stroke:#1f77b4;stroke-width:1.5;"/>
    <path clip-path="url(#pf0eb2b07b7)" d="M 510.762839 544.6 
L 512.068422 542.166213 
L 489.970687 508.766142 
L 481.253069 504.378205 
L 456.919446 500.225214 
L 445.138791 504.276737 
L 423.519274 544.6 
" style="fill:none;stroke:#1f77b4;stroke-width:1.5;"/>
    <path clip-path="url(#pf0eb2b07b7)" d="M 357.272623 538.874746 
L 279.561109 500.258495 
L 290.003157 479.413162 
L 352.227807 448.696859 
L 375.207997 457.05222 
L 386.447839 487.80853 
L 357.272623 538.874746 
" style="fill:none;stroke:#1f77b4;stroke-width:1.5;"/>
    <path clip-path="url(#pf0eb2b07b7)" d="M 257.016978 378.656724 
L 323.133412 323.767454 
L 317.381714 295.746685 
L 311.459553 297.562829 
L 220.496191 351.472733 
L 220.971934 390.060586 
L 257.016978 378.656724 
" style="fill:none;stroke:#1f77b4;stroke-width:1.5;"/>
    <path clip-path="url(#pf0eb2b07b7)" d="M 212.735744 405.464168 
L 147.445654 371.777061 
L 111.792575 398.759864 
L 103.772492 414.198256 
L 191.102931 453.096363 
L 212.530795 406.994864 
L 212.735744 405.464168 
" style="fill:none;stroke:#1f77b4;stroke-width:1.5;"/>
    <path clip-path="url(#pf0eb2b07b7)" d="M 219.630715 394.912153 
L 220.971934 390.060586 
L 220.496191 351.472733 
L 192.629401 328.751269 
L 156.648743 339.855041 
L 147.445654 371.777061 
L 212.735744 405.464168 
L 219.630715 394.912153 
" style="fill:none;stroke:#1f77b4;stroke-width:1.5;"/>
    <path clip-path="url(#pf0eb2b07b7)" d="M 278.992856 500.585602 
L 279.561109 500.258495 
L 290.003157 479.413162 
L 288.367594 472.131656 
L 279.626864 444.220665 
L 212.530795 406.994864 
L 191.102931 453.096363 
L 194.79752 471.474842 
L 217.472983 493.535909 
L 278.992856 500.585602 
" style="fill:none;stroke:#1f77b4;stroke-width:1.5;"/>
    <path clip-path="url(#pf0eb2b07b7)" d="M 278.992856 500.585602 
L 279.561109 500.258495 
L 357.272623 538.874746 
L 359.282643 544.6 
M 274.533618 544.6 
L 278.992856 500.585602 
" style="fill:none;stroke:#1f77b4;stroke-width:1.5;"/>
    <path clip-path="url(#pf0eb2b07b7)" style="fill:none;stroke:#1f77b4;stroke-width:1.5;"/>
    <path clip-path="url(#pf0eb2b07b7)" style="fill:none;stroke:#1f77b4;stroke-width:1.5;"/>
    <path clip-path="url(#pf0eb2b07b7)" d="M 62.958402 97.800298 
L 80.824888 70.764838 
L 71.329122 50.249349 
L 37.360704 21.404929 
L 0.081831 87.106905 
L 62.958402 97.800298 
" style="fill:none;stroke:#1f77b4;stroke-width:1.5;"/>
    <path clip-path="url(#pf0eb2b07b7)" d="M 71.329122 50.249349 
L 94.726354 -1 
M 30.912185 -1 
L 20.654778 3.251612 
L 37.360704 21.404929 
L 71.329122 50.249349 
" style="fill:none;stroke:#1f77b4;stroke-width:1.5;"/>
    <path clip-path="url(#pf0eb2b07b7)" d="M 0.081831 87.106905 
L -1 87.069436 
M -1 11.888211 
L 4.942817 -1 
M 12.672446 -1 
L 20.654778 3.251612 
L 37.360704 21.404929 
L 0.081831 87.106905 
" style="fill:none;stroke:#1f77b4;stroke-width:1.5;"/>
    <path clip-path="url(#pf0eb2b07b7)" d="M 80.824888 70.764838 
L 112.443198 68.784514 
L 119.349137 65.504462 
L 140.86092 -1 
M 94.726354 -1 
L 71.329122 50.249349 
L 80.824888 70.764838 
" style="fill:none;stroke:#1f77b4;stroke-width:1.5;"/>
    <path clip-path="url(#pf0eb2b07b7)" d="M 62.958402 97.800298 
L 63.354172 118.040828 
L 79.749422 133.437845 
L 118.437715 153.349945 
L 138.963369 124.995947 
L 112.443198 68.784514 
L 80.824888 70.764838 
L 62.958402 97.800298 
" style="fill:none;stroke:#1f77b4;stroke-width:1.5;"/>
    <path clip-path="url(#pf0eb2b07b7)" d="M 62.958402 97.800298 
L 63.354172 118.040828 
L 48.969165 135.071405 
L -1 143.557262 
M -1 87.069436 
L 0.081831 87.106905 
L 62.958402 97.800298 
" style="fill:none;stroke:#1f77b4;stroke-width:1.5;"/>
    <path clip-path="url(#pf0eb2b07b7)" d="M 409.284881 30.4895 
L 399.598508 -1 
M 349.060938 -1 
L 316.344894 16.712868 
L 303.946657 48.526886 
L 328.784059 90.902924 
L 409.284881 30.4895 
" style="fill:none;stroke:#1f77b4;stroke-width:1.5;"/>
    <path clip-path="url(#pf0eb2b07b7)" d="M 321.97469 116.406863 
L 287.150879 126.446189 
L 279.571159 110.053144 
L 278.374516 106.020294 
L 288.582741 57.678462 
L 303.946657 48.526886 
L 328.784059 90.902924 
L 321.97469 116.406863 
" style="fill:none;stroke:#1f77b4;stroke-width:1.5;"/>
    <path clip-path="url(#pf0eb2b07b7)" d="M 544.6 43.796683 
L 530.83687 44.139251 
L 526.925732 -1 
" style="fill:none;stroke:#1f77b4;stroke-width:1.5;"/>
    <path clip-path="url(#pf0eb2b07b7)" d="M 369.158229 152.169821 
L 369.762348 143.819219 
L 321.97469 116.406863 
L 287.150879 126.446189 
L 273.974812 145.998806 
L 322.020597 193.463456 
L 369.158229 152.169821 
" style="fill:none;stroke:#1f77b4;stroke-width:1.5;"/>
    <path clip-path="url(#pf0eb2b07b7)" d="M 319.041131 278.54846 
L 252.284128 228.004855 
L 226.17203 170.059212 
L 273.974812 145.998806 
L 322.020597 193.463456 
L 319.041131 278.54846 
" style="fill:none;stroke:#1f77b4;stroke-width:1.5;"/>
    <path clip-path="url(#pf0eb2b07b7)" d="M 322.036762 283.627051 
L 317.381714 295.746685 
L 311.459553 297.562829 
L 197.543473 289.212699 
L 196.910273 287.909897 
L 195.538697 266.47935 
L 252.284128 228.004855 
L 319.041131 278.54846 
L 322.036762 283.627051 
" style="fill:none;stroke:#1f77b4;stroke-width:1.5;"/>
    <path clip-path="url(#pf0eb2b07b7)" d="M 544.6 97.376286 
L 539.199827 95.862503 
L 544.494553 192.13731 
L 544.6 192.159494 
" style="fill:none;stroke:#1f77b4;stroke-width:1.5;"/>
    <path clip-path="url(#pf0eb2b07b7)" d="M 280.562493 390.175638 
L 250.329912 400.560433 
L 283.868826 418.093446 
L 302.280034 391.03112 
L 280.562493 390.175638 
" style="fill:none;stroke:#1f77b4;stroke-width:1.5;"/>
    <path clip-path="url(#pf0eb2b07b7)" d="M 250.329912 400.560433 
L 219.630715 394.912153 
L 212.735744 405.464168 
L 212.530795 406.994864 
L 279.626864 444.220665 
L 283.868826 418.093446 
L 250.329912 400.560433 
" style="fill:none;stroke:#1f77b4;stroke-width:1.5;"/>
    <path clip-path="url(#pf0eb2b07b7)" d="M 302.280034 391.03112 
L 330.749025 368.729058 
L 332.357299 376.964392 
L 288.367594 472.131656 
L 279.626864 444.220665 
L 283.868826 418.093446 
L 302.280034 391.03112 
" style="fill:none;stroke:#1f77b4;stroke-width:1.5;"/>
    <path clip-path="url(#pf0eb2b07b7)" d="M 280.562493 390.175638 
L 257.016978 378.656724 
L 220.971934 390.060586 
L 219.630715 394.912153 
L 250.329912 400.560433 
L 280.562493 390.175638 
" style="fill:none;stroke:#1f77b4;stroke-width:1.5;"/>
    <path clip-path="url(#pf0eb2b07b7)" d="M 280.562493 390.175638 
L 257.016978 378.656724 
L 323.133412 323.767454 
L 334.343296 356.781914 
L 330.749025 368.729058 
L 302.280034 391.03112 
L 280.562493 390.175638 
" style="fill:none;stroke:#1f77b4;stroke-width:1.5;"/>
    <path clip-path="url(#pf0eb2b07b7)" d="M 196.379145 544.6 
L 202.141327 540.677254 
L 202.636397 532.708636 
L 136.860763 536.770905 
L 135.639674 544.6 
" style="fill:none;stroke:#1f77b4;stroke-width:1.5;"/>
    <path clip-path="url(#pf0eb2b07b7)" d="M 54.021428 544.6 
L 53.952968 543.361219 
L 85.590628 502.348283 
L 103.91476 492.965824 
L 131.442584 505.571744 
L 136.860763 536.770905 
L 135.639674 544.6 
" style="fill:none;stroke:#1f77b4;stroke-width:1.5;"/>
    <path clip-path="url(#pf0eb2b07b7)" d="M 202.636397 532.708636 
L 217.472983 493.535909 
L 194.79752 471.474842 
L 131.442584 505.571744 
L 136.860763 536.770905 
L 202.636397 532.708636 
" style="fill:none;stroke:#1f77b4;stroke-width:1.5;"/>
    <path clip-path="url(#pf0eb2b07b7)" d="M 202.141327 540.677254 
L 203.765147 544.6 
M 274.533618 544.6 
L 278.992856 500.585602 
L 217.472983 493.535909 
L 202.636397 532.708636 
L 202.141327 540.677254 
" style="fill:none;stroke:#1f77b4;stroke-width:1.5;"/>
    <path clip-path="url(#pf0eb2b07b7)" d="M 203.765147 544.6 
L 202.141327 540.677254 
L 196.379145 544.6 
" style="fill:none;stroke:#1f77b4;stroke-width:1.5;"/>
    <path clip-path="url(#pf0eb2b07b7)" d="M 398.912122 121.34933 
L 369.762348 143.819219 
L 321.97469 116.406863 
L 328.784059 90.902924 
L 409.284881 30.4895 
L 428.817288 60.820473 
L 398.912122 121.34933 
" style="fill:none;stroke:#1f77b4;stroke-width:1.5;"/>
    <path clip-path="url(#pf0eb2b07b7)" d="M 476.819068 78.372853 
L 510.373198 67.690568 
L 530.83687 44.139251 
L 526.925732 -1 
M 399.598508 -1 
L 409.284881 30.4895 
L 428.817288 60.820473 
L 476.819068 78.372853 
" style="fill:none;stroke:#1f77b4;stroke-width:1.5;"/>
    <path clip-path="url(#pf0eb2b07b7)" style="fill:none;stroke:#1f77b4;stroke-width:1.5;"/>
    <path clip-path="url(#pf0eb2b07b7)" d="M 544.6 43.796683 
L 530.83687 44.139251 
L 510.373198 67.690568 
L 539.199827 95.862503 
L 544.6 97.376286 
" style="fill:none;stroke:#1f77b4;stroke-width:1.5;"/>
    <path clip-path="url(#pf0eb2b07b7)" style="fill:none;stroke:#1f77b4;stroke-width:1.5;"/>
    <path clip-path="url(#pf0eb2b07b7)" style="fill:none;stroke:#1f77b4;stroke-width:1.5;"/>
    <path clip-path="url(#pf0eb2b07b7)" d="M 460.108125 381.56125 
L 544.6 383.956826 
M 544.6 396.426394 
L 498.223246 430.555492 
L 484.676362 430.761141 
L 444.744652 400.098216 
L 460.108125 381.56125 
" style="fill:none;stroke:#1f77b4;stroke-width:1.5;"/>
    <path clip-path="url(#pf0eb2b07b7)" d="M 498.223246 430.555492 
L 526.868897 464.489989 
L 544.6 456.145178 
M 544.6 396.426394 
L 498.223246 430.555492 
" style="fill:none;stroke:#1f77b4;stroke-width:1.5;"/>
    <path clip-path="url(#pf0eb2b07b7)" d="M 498.223246 430.555492 
L 526.868897 464.489989 
L 489.970687 508.766142 
L 481.253069 504.378205 
L 484.676362 430.761141 
L 498.223246 430.555492 
" style="fill:none;stroke:#1f77b4;stroke-width:1.5;"/>
    <path clip-path="url(#pf0eb2b07b7)" d="M 444.744652 400.098216 
L 431.974955 405.286659 
L 429.904377 410.127183 
L 456.919446 500.225214 
L 481.253069 504.378205 
L 484.676362 430.761141 
L 444.744652 400.098216 
" style="fill:none;stroke:#1f77b4;stroke-width:1.5;"/>
    <path clip-path="url(#pf0eb2b07b7)" d="M 460.108125 381.56125 
L 467.05116 318.475318 
L 434.934952 290.38333 
L 397.040298 376.844296 
L 431.974955 405.286659 
L 444.744652 400.098216 
L 460.108125 381.56125 
" style="fill:none;stroke:#1f77b4;stroke-width:1.5;"/>
    <path clip-path="url(#pf0eb2b07b7)" d="M 471.427623 317.952175 
L 544.6 363.292537 
M 544.6 296.208966 
L 519.394747 292.868731 
L 471.427623 317.952175 
" style="fill:none;stroke:#1f77b4;stroke-width:1.5;"/>
    <path clip-path="url(#pf0eb2b07b7)" d="M 471.427623 317.952175 
L 467.05116 318.475318 
L 460.108125 381.56125 
L 544.6 383.956826 
M 544.6 363.292537 
L 471.427623 317.952175 
" style="fill:none;stroke:#1f77b4;stroke-width:1.5;"/>
    <path clip-path="url(#pf0eb2b07b7)" style="fill:none;stroke:#1f77b4;stroke-width:1.5;"/>
    <path clip-path="url(#pf0eb2b07b7)" d="M 402.447416 258.906631 
L 412.102701 232.308756 
L 464.592719 187.809205 
L 490.979556 179.114076 
L 523.966601 192.562063 
L 503.037544 249.948689 
L 428.150956 280.365393 
L 402.447416 258.906631 
" style="fill:none;stroke:#1f77b4;stroke-width:1.5;"/>
    <path clip-path="url(#pf0eb2b07b7)" d="M 523.966601 192.562063 
L 544.494553 192.13731 
L 544.6 192.159494 
M 544.6 296.208966 
L 519.394747 292.868731 
L 503.037544 249.948689 
L 523.966601 192.562063 
" style="fill:none;stroke:#1f77b4;stroke-width:1.5;"/>
    <path clip-path="url(#pf0eb2b07b7)" d="M 428.150956 280.365393 
L 434.934952 290.38333 
L 467.05116 318.475318 
L 471.427623 317.952175 
L 519.394747 292.868731 
L 503.037544 249.948689 
L 428.150956 280.365393 
" style="fill:none;stroke:#1f77b4;stroke-width:1.5;"/>
    <path clip-path="url(#pf0eb2b07b7)" d="M 490.979556 179.114076 
L 476.819068 78.372853 
L 428.817288 60.820473 
L 398.912122 121.34933 
L 464.592719 187.809205 
L 490.979556 179.114076 
" style="fill:none;stroke:#1f77b4;stroke-width:1.5;"/>
    <path clip-path="url(#pf0eb2b07b7)" d="M 412.102701 232.308756 
L 369.158229 152.169821 
L 369.762348 143.819219 
L 398.912122 121.34933 
L 464.592719 187.809205 
L 412.102701 232.308756 
" style="fill:none;stroke:#1f77b4;stroke-width:1.5;"/>
    <path clip-path="url(#pf0eb2b07b7)" d="M 490.979556 179.114076 
L 476.819068 78.372853 
L 510.373198 67.690568 
L 539.199827 95.862503 
L 544.494553 192.13731 
L 523.966601 192.562063 
L 490.979556 179.114076 
" style="fill:none;stroke:#1f77b4;stroke-width:1.5;"/>
    <path clip-path="url(#pf0eb2b07b7)" d="M 402.447416 258.906631 
L 322.036762 283.627051 
L 319.041131 278.54846 
L 322.020597 193.463456 
L 369.158229 152.169821 
L 412.102701 232.308756 
L 402.447416 258.906631 
" style="fill:none;stroke:#1f77b4;stroke-width:1.5;"/>
    <path clip-path="url(#pf0eb2b07b7)" d="M 402.447416 258.906631 
L 322.036762 283.627051 
L 317.381714 295.746685 
L 323.133412 323.767454 
L 334.343296 356.781914 
L 397.040298 376.844296 
L 434.934952 290.38333 
L 428.150956 280.365393 
L 402.447416 258.906631 
" style="fill:none;stroke:#1f77b4;stroke-width:1.5;"/>
    <path clip-path="url(#pf0eb2b07b7)" d="M 381.434463 100.224058 
L 378.519486 102.471047 
L 373.74072 99.729812 
L 374.421657 97.179418 
L 382.471739 91.138075 
L 384.42498 94.171173 
L 381.434463 100.224058 
" style="fill:none;stroke:#1f77b4;stroke-width:1.5;"/>
    <path clip-path="url(#pf0eb2b07b7)" d="M 384.929995 104.449113 
L 376.768058 110.740682 
L 363.387514 103.065222 
L 365.294137 95.924119 
L 387.834368 79.00836 
L 393.303441 87.501033 
L 384.929995 104.449113 
" style="fill:none;stroke:#1f77b4;stroke-width:1.5;"/>
    <path clip-path="url(#pf0eb2b07b7)" d="M 388.425527 108.674167 
L 375.016631 119.010316 
L 353.034308 106.400632 
L 356.166618 94.66882 
L 393.196996 66.878645 
L 402.181903 80.830893 
L 388.425527 108.674167 
" style="fill:none;stroke:#1f77b4;stroke-width:1.5;"/>
    <path clip-path="url(#pf0eb2b07b7)" d="M 391.921058 112.899222 
L 373.265203 127.27995 
L 342.681102 109.736043 
L 347.039098 93.413522 
L 398.559625 54.74893 
L 411.060365 74.160753 
L 391.921058 112.899222 
" style="fill:none;stroke:#1f77b4;stroke-width:1.5;"/>
    <path clip-path="url(#pf0eb2b07b7)" d="M 395.41659 117.124276 
L 371.513776 135.549585 
L 332.327896 113.071453 
L 337.911578 92.158223 
L 403.922253 42.619215 
L 419.938826 67.490613 
L 395.41659 117.124276 
" style="fill:none;stroke:#1f77b4;stroke-width:1.5;"/>
    <path clip-path="url(#pf0eb2b07b7)" d="M 183.140636 514.186464 
L 184.624295 510.269192 
L 182.356749 508.063085 
L 176.021255 511.472775 
L 176.563073 514.592691 
L 183.140636 514.186464 
" style="fill:none;stroke:#1f77b4;stroke-width:1.5;"/>
    <path clip-path="url(#pf0eb2b07b7)" d="M 187.039788 517.890899 
L 191.194032 506.922535 
L 184.844903 500.745436 
L 167.105521 510.292569 
L 168.622611 519.028334 
L 187.039788 517.890899 
" style="fill:none;stroke:#1f77b4;stroke-width:1.5;"/>
    <path clip-path="url(#pf0eb2b07b7)" d="M 190.938941 521.595333 
L 197.76377 503.575879 
L 187.333057 493.427788 
L 158.189787 509.112363 
L 160.682149 523.463977 
L 190.938941 521.595333 
" style="fill:none;stroke:#1f77b4;stroke-width:1.5;"/>
    <path clip-path="url(#pf0eb2b07b7)" d="M 194.838093 525.299767 
L 204.333507 500.229222 
L 189.821211 486.110139 
L 149.274052 507.932156 
L 152.741687 527.89962 
L 194.838093 525.299767 
" style="fill:none;stroke:#1f77b4;stroke-width:1.5;"/>
    <path clip-path="url(#pf0eb2b07b7)" d="M 198.737245 529.004202 
L 210.903245 496.882566 
L 192.309366 478.792491 
L 140.358318 506.75195 
L 144.801225 532.335262 
L 198.737245 529.004202 
" style="fill:none;stroke:#1f77b4;stroke-width:1.5;"/>
    <path clip-path="url(#pf0eb2b07b7)" style="fill:none;stroke:#1f77b4;stroke-width:1.5;"/>
    <path clip-path="url(#pf0eb2b07b7)" style="fill:none;stroke:#1f77b4;stroke-width:1.5;"/>
    <path clip-path="url(#pf0eb2b07b7)" style="fill:none;stroke:#1f77b4;stroke-width:1.5;"/>
    <path clip-path="url(#pf0eb2b07b7)" style="fill:none;stroke:#1f77b4;stroke-width:1.5;"/>
    <path clip-path="url(#pf0eb2b07b7)" style="fill:none;stroke:#1f77b4;stroke-width:1.5;"/>
    <path clip-path="url(#pf0eb2b07b7)" d="M 461.833587 544.6 
L 459.900541 541.678258 
L 459.028779 541.239465 
L 456.595417 540.824166 
L 455.417351 541.229318 
L 453.610143 544.6 
" style="fill:none;stroke:#1f77b4;stroke-width:1.5;"/>
    <path clip-path="url(#pf0eb2b07b7)" d="M 472.020319 544.6 
L 472.101936 544.447855 
L 465.91457 535.095835 
L 463.473637 533.867213 
L 456.660223 532.704375 
L 453.361639 533.838802 
L 447.591969 544.6 
" style="fill:none;stroke:#1f77b4;stroke-width:1.5;"/>
    <path clip-path="url(#pf0eb2b07b7)" d="M 481.705949 544.6 
L 482.093557 543.877444 
L 471.9286 528.513412 
L 467.918495 526.494961 
L 456.725028 524.584585 
L 451.305927 526.448285 
L 441.573795 544.6 
" style="fill:none;stroke:#1f77b4;stroke-width:1.5;"/>
    <path clip-path="url(#pf0eb2b07b7)" d="M 491.391579 544.6 
L 492.085179 543.307034 
L 477.942629 521.930988 
L 472.363353 519.122709 
L 456.789834 516.464795 
L 449.250215 519.057769 
L 435.555621 544.6 
" style="fill:none;stroke:#1f77b4;stroke-width:1.5;"/>
    <path clip-path="url(#pf0eb2b07b7)" d="M 501.077209 544.6 
L 502.0768 542.736623 
L 483.956658 515.348565 
L 476.808211 511.750457 
L 456.85464 508.345004 
L 447.194503 511.667253 
L 429.537448 544.6 
" style="fill:none;stroke:#1f77b4;stroke-width:1.5;"/>
    <path clip-path="url(#pf0eb2b07b7)" d="M 344.040668 497.584743 
L 336.269517 493.723118 
L 337.313722 491.638585 
L 343.536187 488.566955 
L 345.834205 489.402491 
L 346.95819 492.478122 
L 344.040668 497.584743 
" style="fill:none;stroke:#1f77b4;stroke-width:1.5;"/>
    <path clip-path="url(#pf0eb2b07b7)" d="M 346.687059 505.842744 
L 324.927835 495.030194 
L 327.851609 489.193501 
L 345.274511 480.592936 
L 351.708964 482.932437 
L 354.856119 491.544203 
L 346.687059 505.842744 
" style="fill:none;stroke:#1f77b4;stroke-width:1.5;"/>
    <path clip-path="url(#pf0eb2b07b7)" d="M 349.33345 514.100744 
L 313.586153 496.337269 
L 318.389496 486.748416 
L 347.012835 472.618917 
L 357.583722 476.462382 
L 362.754049 490.610285 
L 349.33345 514.100744 
" style="fill:none;stroke:#1f77b4;stroke-width:1.5;"/>
    <path clip-path="url(#pf0eb2b07b7)" d="M 351.979841 522.358745 
L 302.244472 497.644344 
L 308.927383 484.303332 
L 348.751159 464.644897 
L 363.45848 469.992328 
L 370.651979 489.676367 
L 351.979841 522.358745 
" style="fill:none;stroke:#1f77b4;stroke-width:1.5;"/>
    <path clip-path="url(#pf0eb2b07b7)" d="M 354.626232 530.616745 
L 290.90279 498.95142 
L 299.46527 481.858247 
L 350.489483 456.670878 
L 369.333239 463.522274 
L 378.549909 488.742448 
L 354.626232 530.616745 
" style="fill:none;stroke:#1f77b4;stroke-width:1.5;"/>
    <path clip-path="url(#pf0eb2b07b7)" d="M 124.043244 340.437193 
L 120.477937 343.135474 
L 117.711821 333.118726 
L 118.792606 331.790973 
L 120.068431 332.52035 
L 124.963553 337.244991 
L 124.043244 340.437193 
" style="fill:none;stroke:#1f77b4;stroke-width:1.5;"/>
    <path clip-path="url(#pf0eb2b07b7)" d="M 128.723726 346.705167 
L 118.740864 354.260352 
L 110.995741 326.213458 
L 114.021939 322.495751 
L 117.594249 324.538005 
L 131.300591 337.767001 
L 128.723726 346.705167 
" style="fill:none;stroke:#1f77b4;stroke-width:1.5;"/>
    <path clip-path="url(#pf0eb2b07b7)" d="M 133.404208 352.97314 
L 117.003792 365.38523 
L 104.279661 319.30819 
L 109.251272 313.200528 
L 115.120066 316.55566 
L 137.637629 338.289011 
L 133.404208 352.97314 
" style="fill:none;stroke:#1f77b4;stroke-width:1.5;"/>
    <path clip-path="url(#pf0eb2b07b7)" d="M 138.08469 359.241114 
L 115.266719 376.510108 
L 97.563582 312.402922 
L 104.480605 303.905306 
L 112.645884 308.573316 
L 143.974667 338.811021 
L 138.08469 359.241114 
" style="fill:none;stroke:#1f77b4;stroke-width:1.5;"/>
    <path clip-path="url(#pf0eb2b07b7)" d="M 142.765172 365.509087 
L 113.529647 387.634986 
L 90.847502 305.497654 
L 99.709938 294.610083 
L 110.171702 300.590971 
L 150.311705 339.333031 
L 142.765172 365.509087 
" style="fill:none;stroke:#1f77b4;stroke-width:1.5;"/>
    <path clip-path="url(#pf0eb2b07b7)" d="M 444.063104 366.554595 
L 444.757407 360.246001 
L 441.545786 357.436803 
L 437.756321 366.082899 
L 441.249787 368.927136 
L 442.526756 368.408291 
L 444.063104 366.554595 
" style="fill:none;stroke:#1f77b4;stroke-width:1.5;"/>
    <path clip-path="url(#pf0eb2b07b7)" d="M 447.272108 369.555926 
L 449.216158 351.891865 
L 440.22362 344.026108 
L 429.613116 368.235179 
L 439.39482 376.19904 
L 442.970335 374.746276 
L 447.272108 369.555926 
" style="fill:none;stroke:#1f77b4;stroke-width:1.5;"/>
    <path clip-path="url(#pf0eb2b07b7)" d="M 450.481112 372.557257 
L 453.674908 343.537728 
L 438.901453 330.615414 
L 421.469912 370.387458 
L 437.539854 383.470945 
L 443.413915 381.084261 
L 450.481112 372.557257 
" style="fill:none;stroke:#1f77b4;stroke-width:1.5;"/>
    <path clip-path="url(#pf0eb2b07b7)" d="M 453.690116 375.558588 
L 458.133659 335.183591 
L 437.579286 317.204719 
L 413.326707 372.539738 
L 435.684887 390.74285 
L 443.857494 387.422246 
L 453.690116 375.558588 
" style="fill:none;stroke:#1f77b4;stroke-width:1.5;"/>
    <path clip-path="url(#pf0eb2b07b7)" d="M 456.899121 378.559919 
L 462.592409 326.829454 
L 436.257119 303.794024 
L 405.183503 374.692017 
L 433.829921 398.014755 
L 444.301073 393.760231 
L 456.899121 378.559919 
" style="fill:none;stroke:#1f77b4;stroke-width:1.5;"/>
    <path clip-path="url(#pf0eb2b07b7)" d="M 383.178554 534.893203 
L 386.096076 529.786581 
L 391.965171 531.433402 
L 388.03094 538.771263 
L 383.89265 536.927204 
L 383.178554 534.893203 
" style="fill:none;stroke:#1f77b4;stroke-width:1.5;"/>
    <path clip-path="url(#pf0eb2b07b7)" d="M 377.997368 535.689512 
L 386.166428 521.390971 
L 402.599895 526.002069 
L 392.628522 544.6 
M 387.212325 544.6 
L 379.996837 541.384713 
L 377.997368 535.689512 
" style="fill:none;stroke:#1f77b4;stroke-width:1.5;"/>
    <path clip-path="url(#pf0eb2b07b7)" d="M 372.816182 536.48582 
L 386.236781 512.995361 
L 413.234619 520.570736 
L 400.35121 544.6 
M 375.664904 544.6 
L 372.816182 536.48582 
" style="fill:none;stroke:#1f77b4;stroke-width:1.5;"/>
    <path clip-path="url(#pf0eb2b07b7)" d="M 367.634996 537.282129 
L 386.307133 504.59975 
L 423.869343 515.139403 
L 408.073898 544.6 
M 370.20415 544.6 
L 367.634996 537.282129 
" style="fill:none;stroke:#1f77b4;stroke-width:1.5;"/>
    <path clip-path="url(#pf0eb2b07b7)" d="M 362.45381 538.078437 
L 386.377486 496.20414 
L 434.504067 509.70807 
L 415.796586 544.6 
M 364.743397 544.6 
L 362.45381 538.078437 
" style="fill:none;stroke:#1f77b4;stroke-width:1.5;"/>
    <path clip-path="url(#pf0eb2b07b7)" d="M 62.985851 21.500575 
L 66.814977 13.11325 
L 57.918417 16.800801 
L 59.589009 18.616133 
L 62.985851 21.500575 
" style="fill:none;stroke:#1f77b4;stroke-width:1.5;"/>
    <path clip-path="url(#pf0eb2b07b7)" d="M 64.654505 27.25033 
L 75.376057 3.765819 
L 50.465689 14.090963 
L 55.143348 19.173892 
L 64.654505 27.25033 
" style="fill:none;stroke:#1f77b4;stroke-width:1.5;"/>
    <path clip-path="url(#pf0eb2b07b7)" d="M 66.32316 33.000085 
L 81.845461 -1 
M 72.883573 -1 
L 43.012961 11.381125 
L 50.697687 19.731652 
L 66.32316 33.000085 
" style="fill:none;stroke:#1f77b4;stroke-width:1.5;"/>
    <path clip-path="url(#pf0eb2b07b7)" d="M 67.991814 38.74984 
L 86.139092 -1 
M 58.89311 -1 
L 35.560233 8.671288 
L 46.252026 20.289411 
L 67.991814 38.74984 
" style="fill:none;stroke:#1f77b4;stroke-width:1.5;"/>
    <path clip-path="url(#pf0eb2b07b7)" d="M 69.660468 44.499594 
L 90.432723 -1 
M 44.902648 -1 
L 28.107505 5.96145 
L 41.806365 20.84717 
L 69.660468 44.499594 
" style="fill:none;stroke:#1f77b4;stroke-width:1.5;"/>
    <path clip-path="url(#pf0eb2b07b7)" d="M 175.871762 312.938447 
L 176.363169 308.98459 
L 176.299849 308.85431 
L 167.378574 309.324183 
L 172.273696 314.048824 
L 175.871762 312.938447 
" style="fill:none;stroke:#1f77b4;stroke-width:1.5;"/>
    <path clip-path="url(#pf0eb2b07b7)" d="M 179.22329 316.101012 
L 180.59923 305.030212 
L 180.421934 304.665427 
L 155.442363 305.981071 
L 169.148705 319.210067 
L 179.22329 316.101012 
" style="fill:none;stroke:#1f77b4;stroke-width:1.5;"/>
    <path clip-path="url(#pf0eb2b07b7)" d="M 182.574818 319.263576 
L 184.835291 301.075834 
L 184.544018 300.476545 
L 143.506152 302.63796 
L 166.023715 324.371311 
L 182.574818 319.263576 
" style="fill:none;stroke:#1f77b4;stroke-width:1.5;"/>
    <path clip-path="url(#pf0eb2b07b7)" d="M 185.926346 322.42614 
L 189.071351 297.121455 
L 188.666103 296.287662 
L 131.569941 299.294849 
L 162.898724 329.532554 
L 185.926346 322.42614 
" style="fill:none;stroke:#1f77b4;stroke-width:1.5;"/>
    <path clip-path="url(#pf0eb2b07b7)" d="M 189.277874 325.588705 
L 193.307412 293.167077 
L 192.788188 292.098779 
L 119.63373 295.951738 
L 159.773733 334.693797 
L 189.277874 325.588705 
" style="fill:none;stroke:#1f77b4;stroke-width:1.5;"/>
    <path clip-path="url(#pf0eb2b07b7)" d="M 239.757122 74.325863 
L 245.08558 79.919328 
L 245.205244 80.322613 
L 239.621303 78.81778 
L 238.894485 74.403877 
L 239.757122 74.325863 
" style="fill:none;stroke:#1f77b4;stroke-width:1.5;"/>
    <path clip-path="url(#pf0eb2b07b7)" d="M 236.823686 69.477819 
L 251.743367 85.139521 
L 252.078427 86.268719 
L 236.44339 82.055188 
L 234.4083 69.696258 
L 236.823686 69.477819 
" style="fill:none;stroke:#1f77b4;stroke-width:1.5;"/>
    <path clip-path="url(#pf0eb2b07b7)" d="M 233.890249 64.629775 
L 258.401154 90.359714 
L 258.95161 92.214825 
L 233.265478 85.292595 
L 229.922116 64.988639 
L 233.890249 64.629775 
" style="fill:none;stroke:#1f77b4;stroke-width:1.5;"/>
    <path clip-path="url(#pf0eb2b07b7)" d="M 230.956812 59.781731 
L 265.058942 95.579908 
L 265.824793 98.160932 
L 230.087566 88.530002 
L 225.435931 60.28102 
L 230.956812 59.781731 
" style="fill:none;stroke:#1f77b4;stroke-width:1.5;"/>
    <path clip-path="url(#pf0eb2b07b7)" d="M 228.023375 54.933687 
L 271.716729 100.800101 
L 272.697976 104.107038 
L 226.909654 91.76741 
L 220.949747 55.573401 
L 228.023375 54.933687 
" style="fill:none;stroke:#1f77b4;stroke-width:1.5;"/>
    <path clip-path="url(#pf0eb2b07b7)" d="M 461.763002 138.89841 
L 460.346953 128.824287 
L 455.546775 127.069049 
L 452.556258 133.121935 
L 459.124318 139.767923 
L 461.763002 138.89841 
" style="fill:none;stroke:#1f77b4;stroke-width:1.5;"/>
    <path clip-path="url(#pf0eb2b07b7)" d="M 467.606312 146.941543 
L 463.641376 118.734001 
L 450.200877 113.819334 
L 441.827431 130.767414 
L 460.217998 149.376179 
L 467.606312 146.941543 
" style="fill:none;stroke:#1f77b4;stroke-width:1.5;"/>
    <path clip-path="url(#pf0eb2b07b7)" d="M 473.449623 154.984676 
L 466.935799 108.643714 
L 444.85498 100.569619 
L 431.098604 128.412893 
L 461.311678 158.984436 
L 473.449623 154.984676 
" style="fill:none;stroke:#1f77b4;stroke-width:1.5;"/>
    <path clip-path="url(#pf0eb2b07b7)" d="M 479.292934 163.027809 
L 470.230222 98.553427 
L 439.509083 87.319904 
L 420.369776 126.058372 
L 462.405359 168.592692 
L 479.292934 163.027809 
" style="fill:none;stroke:#1f77b4;stroke-width:1.5;"/>
    <path clip-path="url(#pf0eb2b07b7)" d="M 485.136245 171.070943 
L 473.524645 88.46314 
L 434.163185 74.070188 
L 409.640949 123.703851 
L 463.499039 178.200949 
L 485.136245 171.070943 
" style="fill:none;stroke:#1f77b4;stroke-width:1.5;"/>
    <path clip-path="url(#pf0eb2b07b7)" d="M 368.006003 239.053195 
L 359.964937 241.525237 
L 359.665374 241.017378 
L 359.963321 232.508878 
L 364.677084 228.379514 
L 368.971531 236.393408 
L 368.006003 239.053195 
" style="fill:none;stroke:#1f77b4;stroke-width:1.5;"/>
    <path clip-path="url(#pf0eb2b07b7)" d="M 374.894286 243.023883 
L 352.379302 249.9456 
L 351.540526 248.523595 
L 352.374776 224.699794 
L 365.573313 213.137576 
L 377.597765 235.576477 
L 374.894286 243.023883 
" style="fill:none;stroke:#1f77b4;stroke-width:1.5;"/>
    <path clip-path="url(#pf0eb2b07b7)" d="M 381.782568 246.99457 
L 344.793667 258.365963 
L 343.415677 256.029811 
L 344.786231 216.890709 
L 366.469542 197.895637 
L 386.223999 234.759547 
L 381.782568 246.99457 
" style="fill:none;stroke:#1f77b4;stroke-width:1.5;"/>
    <path clip-path="url(#pf0eb2b07b7)" d="M 388.670851 250.965257 
L 337.208032 266.786326 
L 335.290828 263.536027 
L 337.197687 209.081625 
L 367.365771 182.653699 
L 394.850233 233.942617 
L 388.670851 250.965257 
" style="fill:none;stroke:#1f77b4;stroke-width:1.5;"/>
    <path clip-path="url(#pf0eb2b07b7)" d="M 395.559134 254.935944 
L 329.622397 275.206689 
L 327.16598 271.042243 
L 329.609142 201.272541 
L 368.262 167.41176 
L 403.476467 233.125686 
L 395.559134 254.935944 
" style="fill:none;stroke:#1f77b4;stroke-width:1.5;"/>
    <path clip-path="url(#pf0eb2b07b7)" d="M 534.465845 431.322022 
L 537.33041 434.715471 
L 539.749579 433.576935 
L 539.770622 433.560861 
L 542.994155 428.599023 
L 540.673146 426.754009 
L 534.465845 431.322022 
" style="fill:none;stroke:#1f77b4;stroke-width:1.5;"/>
    <path clip-path="url(#pf0eb2b07b7)" d="M 527.217325 431.168716 
L 535.238107 440.670375 
L 542.011781 437.482472 
L 542.070702 437.437465 
L 544.6 433.54423 
M 544.6 418.380055 
L 544.597768 418.378281 
L 527.217325 431.168716 
" style="fill:none;stroke:#1f77b4;stroke-width:1.5;"/>
    <path clip-path="url(#pf0eb2b07b7)" d="M 519.968805 431.01541 
L 533.145805 446.625278 
L 544.273983 441.38801 
L 544.370781 441.314069 
L 544.6 440.961243 
M 544.6 412.889077 
L 519.968805 431.01541 
" style="fill:none;stroke:#1f77b4;stroke-width:1.5;"/>
    <path clip-path="url(#pf0eb2b07b7)" d="M 512.720286 430.862104 
L 531.053502 452.580182 
L 544.6 446.204777 
M 544.6 407.401516 
L 512.720286 430.862104 
" style="fill:none;stroke:#1f77b4;stroke-width:1.5;"/>
    <path clip-path="url(#pf0eb2b07b7)" d="M 505.471766 430.708798 
L 528.9612 458.535085 
L 544.6 451.174977 
M 544.6 401.913955 
L 505.471766 430.708798 
" style="fill:none;stroke:#1f77b4;stroke-width:1.5;"/>
   </g>
  </g>
 </g>
 <defs>
  <clipPath id="pf0eb2b07b7">
   <rect height="543.6" width="543.6" x="0" y="0"/>
  </clipPath>
 </defs>
</svg>
